SplineFontDB: 3.0
FontName: MountainsofChristmas-Regular
FullName: Mountains of Christmas
FamilyName: Mountains of Christmas
Weight: Book
Copyright: Copyright (c) 2010 2011, Font Diner, Inc DBA Tart Workshop (diner@fontdiner.com) with Reserved Font Name "Mountains of Christmas"
Version: 1.002
ItalicAngle: 0
UnderlinePosition: -116
UnderlineWidth: 20
Ascent: 819
Descent: 205
sfntRevision: 0x00010083
LayerCount: 2
Layer: 0 1 "Back"  1
Layer: 1 1 "Fore"  0
XUID: [1021 288 713564382 9050526]
FSType: 0
OS2Version: 3
OS2_WeightWidthSlopeOnly: 0
OS2_UseTypoMetrics: 1
CreationTime: 1321484367
ModificationTime: 1321993457
PfmFamily: 65
TTFWeight: 400
TTFWidth: 5
LineGap: 0
VLineGap: 0
Panose: 3 0 5 0 5 6 0 10 0 4
OS2TypoAscent: 247
OS2TypoAOffset: 1
OS2TypoDescent: -149
OS2TypoDOffset: 1
OS2TypoLinegap: 0
OS2WinAscent: 0
OS2WinAOffset: 1
OS2WinDescent: 7
OS2WinDOffset: 1
HheadAscent: 0
HheadAOffset: 1
HheadDescent: -7
HheadDOffset: 1
OS2SubXSize: 717
OS2SubYSize: 666
OS2SubXOff: 0
OS2SubYOff: 143
OS2SupXSize: 717
OS2SupYSize: 666
OS2SupXOff: 0
OS2SupYOff: 488
OS2StrikeYSize: 51
OS2StrikeYPos: 256
OS2Vendor: 'dinr'
OS2CodePages: 00000001.00000000
OS2UnicodeRanges: 80000027.40000042.00000000.00000000
Lookup: 258 0 0 "'kern' Horizontal Kerning in Latin lookup 0"  {"'kern' Horizontal Kerning in Latin lookup 0 subtable"  } ['kern' ('DFLT' <'dflt' > 'latn' <'dflt' > ) ]
MarkAttachClasses: 1
DEI: 91125
TtTable: prep
PUSHW_1
 511
SCANCTRL
PUSHB_1
 4
SCANTYPE
EndTTInstrs

StartChar: exclam
Encoding: 33 33 4
Width: 223
Flags: HW
LayerCount: 2
Fore
SplineSet
142 432 m 2,0,-1
 136 321 l 1,1,-1
 137 289 l 2,2,3
 137 268 137 268 130 268 c 0,4,5
 127 268 127 268 130 266 c 1,6,7
 126 259 126 259 121.5 248 c 128,-1,8
 117 237 117 237 110 237 c 0,9,10
 97 237 97 237 89 258 c 1,11,12
 82 270 82 270 82 303 c 2,13,-1
 82 344 l 1,14,-1
 80 377 l 1,15,-1
 82 419 l 1,16,-1
 80 439 l 1,17,-1
 84 451 l 1,18,-1
 82 463 l 1,19,-1
 83 498 l 1,20,21
 83 570 83 570 77.5 605 c 128,-1,22
 72 640 72 640 72 651.5 c 128,-1,23
 72 663 72 663 76.5 673.5 c 128,-1,24
 81 684 81 684 82 689 c 0,25,26
 83.4 696 83.4 696 88 696 c 1,27,28
 91 694 91 694 92 698 c 128,-1,29
 93 702 93 702 95 702 c 0,30,31
 108 702 108 702 114.5 696 c 128,-1,32
 121 690 121 690 126.5 684.5 c 128,-1,33
 132 679 132 679 134 678 c 0,34,35
 135 677 135 677 138 669 c 1,36,-1
 142 667 l 1,37,38
 143 665 143 665 142.5 662 c 128,-1,39
 142 659 142 659 144 657 c 2,40,-1
 148 655 l 1,41,42
 152 645 152 645 152 637 c 1,43,-1
 145 588 l 1,44,-1
 148 539 l 1,45,46
 148 516 148 516 148 493 c 128,-1,47
 148 470 148 470 145 454.5 c 128,-1,48
 142 439 142 439 142 432 c 2,0,-1
146 24 m 1,49,50
 134 19 134 19 128 17.5 c 128,-1,51
 122 16 122 16 118.5 13 c 128,-1,52
 115 10 115 10 110 8 c 1,53,54
 83 14 83 14 87 40 c 1,55,56
 81 43 81 43 74.5 45 c 128,-1,57
 68 47 68 47 63 51 c 1,58,-1
 63 81 l 1,59,60
 68 87 68 87 71 94 c 128,-1,61
 74 101 74 101 78 105 c 128,-1,62
 82 109 82 109 85.5 109 c 128,-1,63
 89 109 89 109 91 110.5 c 128,-1,64
 93 112 93 112 94 114 c 128,-1,65
 95 116 95 116 97 117 c 2,66,-1
 111 119 l 2,67,68
 121 121 121 121 125 121 c 0,69,70
 139 121 139 121 145 107.5 c 128,-1,71
 151 94 151 94 151 87 c 128,-1,72
 151 80 151 80 153.5 78 c 128,-1,73
 156 76 156 76 156 61.5 c 128,-1,74
 156 47 156 47 146 24 c 1,49,50
EndSplineSet
EndChar

StartChar: quotedbl
Encoding: 34 34 5
Width: 288
Flags: HW
LayerCount: 2
Fore
SplineSet
205 715 m 1,0,1
 240 710 240 710 240 684 c 1,2,-1
 236 652 l 1,3,4
 238 643 l 1,5,-1
 233 626 l 1,6,-1
 236 612 l 1,7,8
 236 606 236 606 235 600 c 128,-1,9
 234 594 234 594 233 588 c 1,10,11
 231 586 231 586 232 584 c 128,-1,12
 233 582 233 582 233 580.5 c 128,-1,13
 233 579 233 579 230.5 569.5 c 128,-1,14
 228 560 228 560 224.5 548.5 c 128,-1,15
 221 537 221 537 218.5 527.5 c 128,-1,16
 216 518 216 518 215 517 c 0,17,18
 205 513 205 513 199.5 508 c 128,-1,19
 194 503 194 503 183 503 c 2,20,-1
 179 503 l 1,21,22
 171 513 171 513 171 524 c 2,23,-1
 174 560 l 2,24,25
 174 565 174 565 176.5 567.5 c 128,-1,26
 179 570 179 570 179 572 c 2,27,-1
 176 578 l 1,28,-1
 183 592 l 1,29,30
 184 601 184 601 184 616.5 c 0,31,32
 184 685.6 184 685.6 189 696.3 c 128,-1,33
 194 707 194 707 199 708.5 c 128,-1,34
 204 710 204 710 205 715 c 1,0,1
109 616 m 1,35,-1
 114 578 l 1,36,37
 111 569 111 569 111 562 c 2,38,-1
 114 534 l 1,39,40
 114 518.5 114 518.5 97 510 c 1,41,42
 83 500 83 500 79 499 c 1,43,44
 77 502 77 502 71.5 506 c 128,-1,45
 66 510 66 510 64 515 c 128,-1,46
 62 520 62 520 63 525.5 c 128,-1,47
 64 531 64 531 64 536 c 2,48,-1
 62 554 l 1,49,-1
 64 565 l 1,50,-1
 60 582 l 1,51,-1
 62 591 l 1,52,-1
 56 632 l 1,53,-1
 58 642 l 1,54,55
 58 648 58 648 54.5 653.5 c 128,-1,56
 51 659 51 659 51 666 c 2,57,-1
 51 680 l 2,58,59
 51 696 51 696 58 705.5 c 128,-1,60
 65 715 65 715 74 715 c 256,61,62
 83 715 83 715 86.5 708 c 128,-1,63
 90 701 90 701 99 699 c 1,64,65
 101 693 101 693 102.5 687 c 128,-1,66
 104 681 104 681 109 676 c 1,67,68
 107 673 107 673 107 666 c 1,69,-1
 111 642 l 1,70,-1
 109 632 l 2,71,72
 109 629 109 629 111 625 c 1,73,-1
 109 616 l 1,35,-1
EndSplineSet
EndChar

StartChar: numbersign
Encoding: 35 35 6
Width: 614
Flags: HW
LayerCount: 2
Fore
SplineSet
468 555 m 1,0,-1
 461 514 l 1,1,2
 461 506 461 506 472 506 c 128,-1,3
 483 506 483 506 487 510 c 1,4,5
 490 508 490 508 497 508 c 2,6,-1
 516 510 l 1,7,-1
 533 510 l 2,8,9
 581 510 581 510 581 489 c 0,10,11
 581 482 581 482 574 477 c 128,-1,12
 567 472 567 472 560 472 c 1,13,-1
 533 476 l 1,14,-1
 513 472 l 1,15,-1
 506 474 l 1,16,-1
 500 472 l 1,17,-1
 480 473 l 1,18,19
 446 473 446 473 443 462 c 0,20,21
 442 457 442 457 436 455 c 1,22,23
 437 454 437 454 437 450.5 c 0,24,25
 437 440 437 440 432 422 c 128,-1,26
 427 404 427 404 423 403 c 1,27,-1
 423 398 l 1,28,-1
 417 352 l 2,29,30
 415 341 415 341 409 332 c 128,-1,31
 403 323 403 323 403 311 c 1,32,33
 406 304 406 304 421 304 c 1,34,-1
 476 309 l 1,35,-1
 505 308 l 2,36,37
 516 308 516 308 525.5 312.5 c 128,-1,38
 535 317 535 317 544 317 c 128,-1,39
 553 317 553 317 559.5 311.5 c 128,-1,40
 566 306 566 306 564 299 c 1,41,-1
 564 298 l 2,42,43
 564 295 564 295 561.5 295 c 128,-1,44
 559 295 559 295 554.5 293 c 128,-1,45
 550 291 550 291 545 286 c 128,-1,46
 540 281 540 281 533 278 c 1,47,-1
 531 278 l 2,48,49
 525 278 525 278 517 282 c 1,50,51
 512 278 512 278 505.5 279 c 128,-1,52
 499 280 499 280 492 280 c 1,53,-1
 465 275 l 1,54,55
 459 275 459 275 457 278 c 1,56,57
 447 274 447 274 441.5 271 c 128,-1,58
 436 268 436 268 425 270 c 1,59,60
 417 267 417 267 412 263.5 c 128,-1,61
 407 260 407 260 397 262 c 1,62,63
 391 259 391 259 385 246.5 c 128,-1,64
 379 234 379 234 379.5 231.5 c 128,-1,65
 380 229 380 229 380 227 c 2,66,-1
 380 226 l 1,67,-1
 376 221 l 1,68,69
 374 210 374 210 373 200 c 128,-1,70
 372 190 372 190 368 175.5 c 128,-1,71
 364 161 364 161 359.5 153.5 c 128,-1,72
 355 146 355 146 355.5 142.5 c 128,-1,73
 356 139 356 139 356 135.5 c 128,-1,74
 356 132 356 132 354.5 130.5 c 128,-1,75
 353 129 353 129 352 126 c 2,76,-1
 348 104 l 1,77,78
 340 91 340 91 310 91 c 2,79,-1
 305 91 l 1,80,81
 302 97 302 97 302 104 c 128,-1,82
 302 111 302 111 304 119.5 c 128,-1,83
 306 128 306 128 308.5 137.5 c 128,-1,84
 311 147 311 147 314.5 159.5 c 128,-1,85
 318 172 318 172 321.5 178 c 128,-1,86
 325 184 325 184 327 190 c 128,-1,87
 329 196 329 196 328 202 c 128,-1,88
 327 208 327 208 329 218 c 128,-1,89
 331 228 331 228 335.5 241 c 128,-1,90
 340 254 340 254 340 268 c 1,91,92
 338 271 338 271 336 271 c 2,93,-1
 328 269 l 1,94,-1
 312 273 l 1,95,-1
 305 271 l 2,96,97
 303 271 303 271 302 272.5 c 128,-1,98
 301 274 301 274 299 273 c 2,99,-1
 269 268 l 1,100,101
 268 269 268 269 266 269 c 2,102,-1
 254 266 l 2,103,104
 251 265 251 265 247.5 265.5 c 128,-1,105
 244 266 244 266 241.5 266 c 0,106,107
 237 266 237 266 218 261 c 128,-1,108
 199 256 199 256 197 254 c 1,109,110
 196 250 196 250 196 241 c 128,-1,111
 196 232 196 232 193 230.5 c 0,112,113
 187 227.5 187 227.5 187 213.25 c 128,-1,114
 187 199 187 199 182.5 190 c 128,-1,115
 178 181 178 181 178.5 178 c 128,-1,116
 179 175 179 175 179 173 c 0,117,118
 164 134 164 134 160 126 c 1,119,120
 160 121 160 121 155 122 c 128,-1,121
 150 123 150 123 146 120.5 c 128,-1,122
 142 118 142 118 140 114.5 c 128,-1,123
 138 111 138 111 134 106 c 1,124,125
 121 112 121 112 121 124 c 128,-1,126
 121 136 121 136 127.5 153.5 c 128,-1,127
 134 171 134 171 138 183 c 2,128,-1
 141 194 l 2,129,130
 142 196 142 196 141.5 198.5 c 128,-1,131
 141 201 141 201 141 205 c 128,-1,132
 141 209 141 209 147.5 221 c 128,-1,133
 154 233 154 233 154 245 c 2,134,-1
 154 248 l 1,135,136
 144 260 144 260 107 258 c 1,137,-1
 92 258 l 258,138,139
 86 258 86 258 83 262 c 1,140,141
 78 261 78 261 76 256.5 c 128,-1,142
 74 252 74 252 69 252 c 2,143,-1
 42 252 l 1,144,145
 35 259 35 259 35 267 c 128,-1,146
 35 275 35 275 36 278 c 1,147,148
 43 280 43 280 45.5 281 c 128,-1,149
 48 282 48 282 54 282 c 1,150,-1
 87.5 290 l 1,151,152
 94 290 94 290 96 289 c 128,-1,153
 98 288 98 288 118 292 c 1,154,-1
 135 291 l 2,155,156
 143 291 143 291 149.5 293 c 128,-1,157
 156 295 156 295 164 297 c 1,158,159
 175 318 175 318 181.5 348.5 c 128,-1,160
 188 379 188 379 188 386 c 128,-1,161
 188 393 188 393 192.5 401 c 0,162,163
 206 425 206 425 206 447 c 128,-1,164
 206 469 206 469 192 469 c 1,165,-1
 173 466 l 2,166,167
 171 466 171 466 165 468 c 1,168,169
 155 461 155 461 144 461 c 1,170,-1
 134 463 l 1,171,-1
 80 456 l 1,172,173
 62 456 62 456 53 465 c 1,174,175
 51 475 51 475 51 481 c 2,176,-1
 51 486 l 1,177,178
 62 495 62 495 73 495 c 1,179,-1
 90 493 l 2,180,181
 95 493 95 493 98 495 c 128,-1,182
 101 497 101 497 112.5 499.5 c 128,-1,183
 124 502 124 502 143.5 500.5 c 128,-1,184
 163 499 163 499 176 501.5 c 128,-1,185
 189 504 189 504 198.5 506 c 128,-1,186
 208 508 208 508 216 508 c 1,187,188
 218 512 218 512 222 517.5 c 128,-1,189
 226 523 226 523 225.5 528 c 128,-1,190
 225 533 225 533 228.5 541.5 c 128,-1,191
 232 550 232 550 234 555 c 2,192,-1
 240 577 l 2,193,194
 243 589 243 589 248.5 602.5 c 128,-1,195
 254 616 254 616 256 630 c 1,196,197
 256 688 256 688 275 688 c 0,198,199
 285 688 285 688 289 677.5 c 128,-1,200
 293 667 293 667 293 659 c 1,201,-1
 289 638 l 1,202,-1
 291 613 l 1,203,204
 291 599 291 599 287 596 c 128,-1,205
 283 593 283 593 279 585 c 1,206,207
 276 574 276 574 275 563.5 c 0,208,209
 273.157894737 544.157894737 273.157894737 544.157894737 269 540 c 1,210,211
 265 538 265 538 266.5 534.5 c 128,-1,212
 268 531 268 531 268 528 c 128,-1,213
 268 525 268 525 264.5 522 c 128,-1,214
 261 519 261 519 262 515 c 1,215,-1
 262 514 l 1,216,217
 268 504 268 504 298 504 c 2,218,-1
 366 504 l 1,219,-1
 392 502 l 2,220,221
 398 502 398 502 410 506 c 0,222,223
 415 508 415 508 414.5 513 c 128,-1,224
 414 518 414 518 418 522 c 128,-1,225
 422 526 422 526 422.5 535.5 c 128,-1,226
 423 545 423 545 426 548.5 c 128,-1,227
 429 552 429 552 429.5 552 c 128,-1,228
 430 552 430 552 429 553.5 c 128,-1,229
 428 555 428 555 428 558 c 128,-1,230
 428 561 428 561 430.5 563.5 c 128,-1,231
 433 566 433 566 434 569.5 c 128,-1,232
 435 573 435 573 436.5 581 c 128,-1,233
 438 589 438 589 439.5 597 c 128,-1,234
 441 605 441 605 442.5 612.5 c 128,-1,235
 444 620 444 620 444 622 c 256,236,237
 444 624 444 624 447.5 628 c 128,-1,238
 451 632 451 632 453 636.5 c 128,-1,239
 455 641 455 641 455 647 c 128,-1,240
 455 653 455 653 456.5 658 c 0,241,242
 459.636363636 668.454545455 459.636363636 668.454545455 468.818181818 682.227272727 c 128,-1,243
 478 696 478 696 484 696 c 128,-1,244
 490 696 490 696 493 693 c 128,-1,245
 496 690 496 690 500 688 c 1,246,-1
 500 683 l 1,247,-1
 498 659 l 1,248,249
 490 655 490 655 488.5 640.5 c 128,-1,250
 487 626 487 626 480 620 c 1,251,-1
 480 613 l 2,252,253
 480 608 480 608 477.5 595.5 c 128,-1,254
 475 583 475 583 474 575.5 c 128,-1,255
 473 568 473 568 471.5 564.5 c 128,-1,256
 470 561 470 561 469 562 c 128,-1,257
 468 563 468 563 468 555 c 1,0,-1
295 303 m 1,258,-1
 345 301 l 1,259,-1
 352 301 l 1,260,-1
 363 323 l 2,261,262
 375 346 375 346 373.5 356 c 128,-1,263
 372 366 372 366 373.5 371.5 c 128,-1,264
 375 377 375 377 377.5 381 c 128,-1,265
 380 385 380 385 381.5 389.5 c 128,-1,266
 383 394 383 394 382.5 400.5 c 128,-1,267
 382 407 382 407 383.5 409.5 c 128,-1,268
 385 412 385 412 386 412 c 128,-1,269
 387 412 387 412 387.5 413.5 c 128,-1,270
 388 415 388 415 389 420 c 128,-1,271
 390 425 390 425 391 431.5 c 128,-1,272
 392 438 392 438 393 444 c 128,-1,273
 394 450 394 450 394 453.5 c 128,-1,274
 394 457 394 457 391 465 c 1,275,276
 389 466 389 466 384 466 c 2,277,-1
 363 463 l 1,278,279
 354 468 354 468 330 468 c 128,-1,280
 306 468 306 468 289.5 466.5 c 128,-1,281
 273 465 273 465 256 467 c 1,282,283
 252 464 252 464 251 459.5 c 128,-1,284
 250 455 250 455 248.5 450 c 128,-1,285
 247 445 247 445 244.5 442.5 c 128,-1,286
 242 440 242 440 240.5 435 c 128,-1,287
 239 430 239 430 240 425 c 128,-1,288
 241 420 241 420 241 413.5 c 128,-1,289
 241 407 241 407 237 403.5 c 128,-1,290
 233 400 233 400 230 386 c 1,291,292
 224 374 224 374 225 367.5 c 128,-1,293
 226 361 226 361 224.5 356.5 c 128,-1,294
 223 352 223 352 222.5 351 c 0,295,296
 221 348 221 348 221 346 c 2,297,-1
 221 339 l 2,298,299
 221 333 221 333 215.5 323.5 c 128,-1,300
 210 314 210 314 210 308.5 c 128,-1,301
 210 303 210 303 211 301 c 1,302,-1
 229 300 l 1,303,-1
 295 303 l 1,258,-1
EndSplineSet
EndChar

StartChar: dollar
Encoding: 36 36 7
Width: 385
Flags: HW
LayerCount: 2
Fore
SplineSet
225 425 m 1,0,-1
 222 404 l 1,1,2
 222 391 222 391 238 380 c 0,3,4
 240 378 240 378 242 378 c 128,-1,5
 244 378 244 378 246 376 c 256,6,7
 248 374 248 374 248 372 c 128,-1,8
 248 370 248 370 250 367.5 c 128,-1,9
 252 365 252 365 256 362.5 c 128,-1,10
 260 360 260 360 264 357 c 1,11,-1
 266 354 l 1,12,-1
 270 354 l 1,13,14
 310 322 310 322 323 297 c 0,15,16
 325 294 325 294 325 290.5 c 0,17,18
 325 285.5 325 285.5 330 278 c 1,19,20
 336 272 336 272 340 258 c 128,-1,21
 344 244 344 244 344 241 c 2,22,-1
 342 230 l 1,23,-1
 344 220 l 2,24,25
 344 217 344 217 340.5 209 c 128,-1,26
 337 201 337 201 331 184 c 0,27,28
 322.857142857 160.928571429 322.857142857 160.928571429 317 158 c 1,29,30
 311 157 311 157 311 151.5 c 128,-1,31
 311 146 311 146 304.5 143 c 128,-1,32
 298 140 298 140 292.5 135.5 c 128,-1,33
 287 131 287 131 283.5 127.5 c 128,-1,34
 280 124 280 124 272.5 121 c 128,-1,35
 265 118 265 118 262 112 c 128,-1,36
 259 106 259 106 254 104 c 1,37,-1
 243 104 l 2,38,39
 238 104 238 104 234 102 c 1,40,41
 233 98 233 98 233 94 c 2,42,-1
 233 85 l 2,43,44
 233 75 233 75 230 71 c 1,45,46
 231 69 231 69 233 68.5 c 128,-1,47
 235 68 235 68 235 66 c 2,48,-1
 232 13 l 1,49,50
 224 9 224 9 218 4.5 c 128,-1,51
 212 0 212 0 201 0 c 1,52,53
 190 8 190 8 190 28 c 2,54,-1
 192 69 l 2,55,56
 192 80 192 80 189 88 c 1,57,58
 168 92 168 92 148 98 c 128,-1,59
 128 104 128 104 107 104 c 1,60,61
 102 110 102 110 96.5 118.5 c 128,-1,62
 91 127 91 127 84 130 c 1,63,-1
 84 135 l 2,64,65
 84 144 84 144 76 156 c 2,66,-1
 64 176 l 2,67,68
 48 204 48 204 48 240 c 0,69,70
 48 251 48 251 67 251 c 0,71,72
 73 251 73 251 81 248 c 1,73,74
 78 227 78 227 78 215 c 128,-1,75
 78 203 78 203 86 197 c 1,76,-1
 86 193 l 1,77,-1
 93 174 l 1,78,79
 93 167 93 167 103 156 c 128,-1,80
 113 145 113 145 116 135 c 1,81,82
 129 132 129 132 142 127.5 c 128,-1,83
 155 123 155 123 163 123 c 2,84,-1
 175 123 l 2,85,86
 186 123 186 123 186 132 c 1,87,-1
 191 161 l 1,88,-1
 187 177 l 1,89,-1
 189 183 l 1,90,-1
 185 190 l 1,91,-1
 191 240 l 1,92,-1
 189 254 l 1,93,-1
 193 312 l 1,94,95
 193 340 193 340 187 337 c 0,96,97
 185 336 185 336 183 338 c 256,98,99
 181 340 181 340 181.5 342 c 128,-1,100
 182 344 182 344 180 346 c 256,101,102
 178 348 178 348 176 348 c 0,103,104
 169 348 169 348 169 353 c 128,-1,105
 169 358 169 358 159 361 c 1,106,107
 145 370 145 370 133.5 384.5 c 128,-1,108
 122 399 122 399 107 407 c 1,109,-1
 107 409 l 2,110,111
 107 417 107 417 101.5 420.5 c 128,-1,112
 96 424 96 424 90 429 c 1,113,114
 89 432 89 432 87 433.5 c 128,-1,115
 85 435 85 435 86 440 c 1,116,117
 71.2857142857 440 71.2857142857 440 59.5 495 c 0,118,119
 58 502 58 502 57 505 c 128,-1,120
 56 508 56 508 56 510.5 c 128,-1,121
 56 513 56 513 58 519 c 1,122,-1
 57 540 l 2,123,124
 57 547 57 547 58 551 c 1,125,126
 68 564 68 564 68 569 c 128,-1,127
 68 574 68 574 72 580.5 c 128,-1,128
 76 587 76 587 81.5 590 c 128,-1,129
 87 593 87 593 88 600 c 1,130,131
 103 605 103 605 109 611.5 c 128,-1,132
 115 618 115 618 121.5 623.5 c 128,-1,133
 128 629 128 629 129.5 629 c 128,-1,134
 131 629 131 629 133.5 631 c 128,-1,135
 136 633 136 633 136 634.5 c 128,-1,136
 136 636 136 636 138 637 c 2,137,-1
 167 649 l 1,138,-1
 167 659 l 2,139,140
 167 671 167 671 171 675 c 1,141,142
 170 680 170 680 167.5 682 c 128,-1,143
 165 684 165 684 165 692 c 256,144,145
 165 700 165 700 167 707 c 128,-1,146
 169 714 169 714 171 722 c 1,147,148
 175 725 175 725 183 725 c 0,149,150
 201 725 201 725 201 692 c 1,151,-1
 203 691 l 1,152,-1
 201 686 l 1,153,154
 201 681 201 681 203 670 c 0,155,156
 209 640 209 640 232 633 c 1,157,158
 237 620 237 620 249.5 613 c 128,-1,159
 262 606 262 606 269 601.5 c 128,-1,160
 276 597 276 597 279 590 c 1,161,-1
 281 590 l 1,162,163
 287 591 287 591 290 586.5 c 128,-1,164
 293 582 293 582 300.5 580 c 128,-1,165
 308 578 308 578 313 571 c 128,-1,166
 318 564 318 564 323 558 c 1,167,-1
 323 536 l 2,168,169
 323 530 323 530 321 525 c 1,170,171
 306 513 306 513 295.5 513 c 128,-1,172
 285 513 285 513 285.5 525 c 128,-1,173
 286 537 286 537 285 543 c 1,174,-1
 285 547 l 1,175,176
 282 552 282 552 278 554.5 c 128,-1,177
 274 557 274 557 270 560.5 c 128,-1,178
 266 564 266 564 263 568.5 c 0,179,180
 255.454545455 579.818181818 255.454545455 579.818181818 249.727272727 578.909090909 c 128,-1,181
 244 578 244 578 241 584 c 128,-1,182
 238 590 238 590 231 591.5 c 128,-1,183
 224 593 224 593 221 598 c 1,184,185
 217 590 217 590 217 584 c 2,186,-1
 221 554 l 1,187,188
 221 544 221 544 223.5 535.5 c 128,-1,189
 226 527 226 527 225.5 521.5 c 128,-1,190
 225 516 225 516 225 511 c 2,191,-1
 227 498 l 1,192,-1
 223 478 l 1,193,-1
 225 464 l 1,194,-1
 224 452 l 1,195,-1
 225 425 l 1,0,-1
186 498 m 1,196,-1
 188 513 l 1,197,198
 188 530 188 530 185 530 c 1,199,-1
 187 535 l 1,200,-1
 183 551 l 1,201,-1
 185 561 l 1,202,203
 185 574 185 574 180 588 c 128,-1,204
 175 602 175 602 173 615 c 1,205,-1
 169 615 l 2,206,207
 158 615 158 615 153 608 c 128,-1,208
 148 601 148 601 133 603 c 1,209,210
 125 597 125 597 119 589.5 c 128,-1,211
 113 582 113 582 105 577 c 1,212,213
 104 569 104 569 102.5 562.5 c 128,-1,214
 101 556 101 556 101 548 c 1,215,-1
 108 520 l 1,216,-1
 108 519 l 1,217,-1
 112 515 l 1,218,219
 119 499 119 499 124 490.5 c 128,-1,220
 129 482 129 482 128.5 480.5 c 128,-1,221
 128 479 128 479 129.5 477.5 c 128,-1,222
 131 476 131 476 132.5 476 c 128,-1,223
 134 476 134 476 136 473.5 c 128,-1,224
 138 471 138 471 139 468 c 128,-1,225
 140 465 140 465 142 462 c 2,226,-1
 161 444 l 2,227,228
 166 439 166 439 170 434 c 128,-1,229
 174 429 174 429 181 427 c 1,230,231
 187 431 187 431 187 438 c 2,232,-1
 185 455 l 1,233,-1
 187 483 l 1,234,-1
 186 498 l 1,196,-1
229 143 m 2,235,236
 229 131 229 131 233 131 c 0,237,238
 242.2 131 242.2 131 258.6 142.5 c 128,-1,239
 275 154 275 154 279 163 c 1,240,-1
 283 165 l 1,241,242
 285 168 285 168 284.5 171 c 128,-1,243
 284 174 284 174 286 179 c 128,-1,244
 288 184 288 184 290 185.5 c 128,-1,245
 292 187 292 187 292 197 c 256,246,247
 292 207 292 207 289.5 216 c 128,-1,248
 287 225 287 225 289 236 c 1,249,250
 273 247 273 247 272 263 c 1,251,252
 267 265 267 265 264 269.5 c 128,-1,253
 261 274 261 274 255 275 c 1,254,255
 253 291 253 291 239 289 c 1,256,-1
 236 289 l 1,257,258
 230 283 230 283 230 263 c 1,259,-1
 227 236 l 1,260,-1
 229 213 l 1,261,-1
 227 201 l 1,262,-1
 231 173 l 1,263,-1
 229 143 l 2,235,236
EndSplineSet
EndChar

StartChar: percent
Encoding: 37 37 8
Width: 556
Flags: HW
LayerCount: 2
Fore
SplineSet
87 369 m 1,0,-1
 82 364 l 1,1,2
 80 364 80 364 79 365 c 0,3,4
 78 371 78 371 72.5 372 c 128,-1,5
 67 373 67 373 63 376.5 c 128,-1,6
 59 380 59 380 56.5 385 c 128,-1,7
 54 390 54 390 49 393 c 1,8,9
 49 402 49 402 41.5 415.5 c 128,-1,10
 34 429 34 429 34 458.5 c 128,-1,11
 34 488 34 488 37 506 c 1,12,13
 39 511 39 511 43 517.5 c 128,-1,14
 47 524 47 524 46 529 c 128,-1,15
 45 534 45 534 47 538.5 c 128,-1,16
 49 543 49 543 53 548.5 c 128,-1,17
 57 554 57 554 61 562 c 128,-1,18
 65 570 65 570 70 582 c 128,-1,19
 75 594 75 594 83 602 c 1,20,-1
 86 602 l 1,21,22
 88 604 88 604 88 606 c 128,-1,23
 88 608 88 608 95.5 615.5 c 128,-1,24
 103 623 103 623 110 623 c 0,25,26
 136 623 136 623 156 600 c 1,27,-1
 189 604 l 1,28,-1
 200 602 l 1,29,-1
 237 609 l 1,30,-1
 248 612 l 2,31,32
 250 612 250 612 250 610 c 256,33,34
 250 608 250 608 254 612 c 1,35,36
 260 614 260 614 267.5 613.5 c 128,-1,37
 275 613 275 613 282.5 615.5 c 128,-1,38
 290 618 290 618 292 620 c 128,-1,39
 294 622 294 622 304 622 c 2,40,-1
 307 622 l 1,41,-1
 313 626 l 1,42,43
 318 627 318 627 322 626.5 c 128,-1,44
 326 626 326 626 332.5 628 c 128,-1,45
 339 630 339 630 346 634 c 128,-1,46
 353 638 353 638 362 638 c 1,47,48
 373 641 373 641 382 646 c 128,-1,49
 391 651 391 651 402 651 c 0,50,51
 421 651 421 651 421 628 c 0,52,53
 421 625 421 625 419.5 623 c 128,-1,54
 418 621 418 621 417 618 c 128,-1,55
 416 615 416 615 416.5 611.5 c 128,-1,56
 417 608 417 608 415 604.5 c 128,-1,57
 413 601 413 601 412 602.5 c 128,-1,58
 411 604 411 604 411 598 c 128,-1,59
 411 592 411 592 409 590 c 1,60,-1
 406 589 l 1,61,62
 404 585 404 585 402 579.5 c 128,-1,63
 400 574 400 574 398 572 c 128,-1,64
 396 570 396 570 395 568 c 2,65,-1
 387 549 l 2,66,67
 379 528 379 528 371 508 c 128,-1,68
 363 488 363 488 359 475.5 c 128,-1,69
 355 463 355 463 352.5 460.5 c 128,-1,70
 350 458 350 458 347.5 453.5 c 128,-1,71
 345 449 345 449 344.5 442 c 128,-1,72
 344 435 344 435 340.5 429.5 c 128,-1,73
 337 424 337 424 333 419.5 c 0,74,75
 324.512195122 409.951219512 324.512195122 409.951219512 325.756097561 402.975609756 c 128,-1,76
 327 396 327 396 313 376 c 1,77,78
 312 361 312 361 305 345.5 c 128,-1,79
 298 330 298 330 295 321 c 128,-1,80
 292 312 292 312 290 310 c 128,-1,81
 288 308 288 308 287 305 c 1,82,-1
 288 299 l 2,83,84
 288 296 288 296 283 294 c 1,85,86
 282 291 282 291 282 288 c 128,-1,87
 282 285 282 285 279 279.5 c 128,-1,88
 276 274 276 274 270.5 264.5 c 128,-1,89
 265 255 265 255 263.5 250.5 c 128,-1,90
 262 246 262 246 262.5 243.5 c 128,-1,91
 263 241 263 241 263 238 c 2,92,-1
 263 237 l 1,93,-1
 259 232 l 1,94,95
 256 216 256 216 252 212 c 0,96,97
 244 204 244 204 244 196.5 c 128,-1,98
 244 189 244 189 240 183 c 128,-1,99
 236 177 236 177 234 173 c 2,100,-1
 229 158 l 2,101,102
 227 154 227 154 224.5 150.5 c 128,-1,103
 222 147 222 147 219.5 141.5 c 128,-1,104
 217 136 217 136 217 128 c 128,-1,105
 217 120 217 120 209 115 c 1,106,107
 206 102 206 102 195 89 c 1,108,-1
 177 89 l 1,109,110
 174 84 174 84 171 78.5 c 128,-1,111
 168 73 168 73 160 73 c 128,-1,112
 152 73 152 73 145.5 80 c 128,-1,113
 139 87 139 87 139 98 c 128,-1,114
 139 109 139 109 148.5 124 c 128,-1,115
 158 139 158 139 161 158 c 128,-1,116
 164 177 164 177 175 185 c 1,117,-1
 175 187 l 2,118,119
 175 197 175 197 178 203 c 2,120,-1
 185 217 l 2,121,122
 187 221 187 221 187 224.5 c 128,-1,123
 187 228 187 228 191.5 236.5 c 128,-1,124
 196 245 196 245 199 262 c 1,125,126
 204 264 204 264 205.5 271 c 128,-1,127
 207 278 207 278 212 282 c 1,128,129
 214 287 214 287 214 293.5 c 128,-1,130
 214 300 214 300 215.5 304 c 128,-1,131
 217 308 217 308 218.5 310 c 128,-1,132
 220 312 220 312 224.5 321 c 128,-1,133
 229 330 229 330 234 345.5 c 128,-1,134
 239 361 239 361 246 376 c 1,135,-1
 250 380 l 1,136,-1
 250 384 l 2,137,138
 250 388 250 388 266.5 421 c 128,-1,139
 283 454 283 454 283 467 c 1,140,141
 289 471 289 471 290 477.5 c 128,-1,142
 291 484 291 484 295 490 c 1,143,-1
 299 492 l 1,144,145
 300 495 300 495 299.5 497.5 c 128,-1,146
 299 500 299 500 306 514 c 128,-1,147
 313 528 313 528 327.5 553 c 128,-1,148
 342 578 342 578 355 604 c 1,149,150
 351 605 351 605 342 605 c 128,-1,151
 333 605 333 605 323 599 c 128,-1,152
 313 593 313 593 305 590 c 128,-1,153
 297 587 297 587 293.5 588 c 128,-1,154
 290 589 290 589 286 589 c 128,-1,155
 282 589 282 589 276 585.5 c 128,-1,156
 270 582 270 582 264.5 581 c 128,-1,157
 259 580 259 580 255.5 580.5 c 128,-1,158
 252 581 252 581 247.5 581 c 128,-1,159
 243 581 243 581 231.5 575.5 c 128,-1,160
 220 570 220 570 215 565.5 c 128,-1,161
 210 561 210 561 201 558.5 c 128,-1,162
 192 556 192 556 189 547 c 1,163,-1
 189 545 l 2,164,165
 189 530 189 530 194 512.5 c 128,-1,166
 199 495 199 495 199 482 c 1,167,-1
 197 470 l 1,168,169
 199 468 199 468 199 466.5 c 0,170,171
 199 463 199 463 195 449 c 128,-1,172
 191 435 191 435 187 431 c 1,173,174
 188 429 188 429 188 423 c 128,-1,175
 188 417 188 417 184 409 c 128,-1,176
 180 401 180 401 179 393 c 1,177,178
 174 390 174 390 168.5 387.5 c 128,-1,179
 163 385 163 385 161 378 c 1,180,-1
 159 378 l 1,181,182
 151 379 151 379 147 374.5 c 128,-1,183
 143 370 143 370 137 365 c 1,184,-1
 135 365 l 1,185,186
 127 366 127 366 122 360 c 128,-1,187
 117 354 117 354 111.5 354 c 128,-1,188
 106 354 106 354 104.5 357 c 128,-1,189
 103 360 103 360 96 358 c 1,190,191
 95 364 95 364 88 369 c 1,192,-1
 87 369 l 1,0,-1
513 297 m 1,193,-1
 523 263.5 l 1,194,195
 523 257 523 257 520.5 252.5 c 128,-1,196
 518 248 518 248 516.5 241 c 128,-1,197
 515 234 515 234 516 226.5 c 128,-1,198
 517 219 517 219 514.5 208 c 128,-1,199
 512 197 512 197 503 181 c 128,-1,200
 494 165 494 165 492 150 c 1,201,202
 484 146 484 146 478.5 138 c 128,-1,203
 473 130 473 130 467 122 c 0,204,205
 451 101 451 101 431 101 c 1,206,-1
 401 104 l 2,207,208
 395 104 395 104 387 102 c 1,209,210
 369 112 369 112 358 115 c 1,211,212
 353 120 353 120 350.5 126 c 128,-1,213
 348 132 348 132 342 134 c 1,214,215
 328 174 328 174 328 193 c 128,-1,216
 328 212 328 212 330 219.5 c 128,-1,217
 332 227 332 227 334 234.5 c 128,-1,218
 336 242 336 242 335 249.5 c 128,-1,219
 334 257 334 257 341.5 273 c 128,-1,220
 349 289 349 289 355 294 c 1,221,-1
 353 297 l 1,222,-1
 357 319 l 1,223,224
 361 323 361 323 366.5 332.5 c 128,-1,225
 372 342 372 342 379.5 347 c 128,-1,226
 387 352 387 352 392.5 356 c 128,-1,227
 398 360 398 360 399.5 362.5 c 128,-1,228
 401 365 401 365 403.5 367 c 128,-1,229
 406 369 406 369 409 369 c 128,-1,230
 412 369 412 369 419.5 373.5 c 128,-1,231
 427 378 427 378 434.5 377.5 c 128,-1,232
 442 377 442 377 447 380 c 1,233,234
 460 378 460 378 467 374 c 128,-1,235
 474 370 474 370 481 358 c 1,236,237
 484 356 484 356 486 356 c 128,-1,238
 488 356 488 356 489.5 354.5 c 128,-1,239
 491 353 491 353 493.5 348 c 128,-1,240
 496 343 496 343 499.5 336.5 c 128,-1,241
 503 330 503 330 505.5 323.5 c 128,-1,242
 508 317 508 317 511.5 311 c 128,-1,243
 515 305 515 305 515 303 c 2,244,-1
 513 297 l 1,193,-1
395 176 m 0,245,246
 395 131 395 131 417 131 c 256,247,248
 439 131 439 131 447.5 141 c 128,-1,249
 456 151 456 151 459 155.5 c 128,-1,250
 462 160 462 160 464 160 c 1,251,-1
 464 161 l 2,252,253
 464 168 464 168 467.5 173.5 c 128,-1,254
 471 179 471 179 473.5 183.5 c 128,-1,255
 476 188 476 188 476 192 c 128,-1,256
 476 196 476 196 477.5 199 c 128,-1,257
 479 202 479 202 481 205 c 0,258,259
 486 212.5 486 212.5 485.5 220.75 c 128,-1,260
 485 229 485 229 489.5 240 c 128,-1,261
 494 251 494 251 494 262 c 1,262,-1
 489 276 l 1,263,264
 489 281 489 281 492 284 c 1,265,266
 485 287 485 287 484.5 295 c 128,-1,267
 484 303 484 303 481 309 c 1,268,269
 480 316 480 316 476 320.5 c 128,-1,270
 472 325 472 325 470 331 c 1,271,272
 460 331 460 331 454 335.5 c 128,-1,273
 448 340 448 340 436 339 c 1,274,275
 436 341 436 341 434 341 c 1,276,277
 432 336 432 336 428.5 333.5 c 128,-1,278
 425 331 425 331 423 328 c 128,-1,279
 421 325 421 325 421.5 321 c 128,-1,280
 422 317 422 317 421 315 c 1,281,-1
 417 313 l 1,282,283
 416 311 416 311 416.5 309.5 c 128,-1,284
 417 308 417 308 417 306 c 2,285,-1
 407 288 l 1,286,-1
 407 270 l 1,287,288
 399 259 399 259 400 241.5 c 128,-1,289
 401 224 401 224 400 213 c 128,-1,290
 399 202 399 202 397 193.5 c 128,-1,291
 395 185 395 185 395 176 c 0,245,246
161 434 m 1,292,-1
 167 461 l 2,293,294
 167 465 167 465 165 467 c 1,295,296
 165 470 165 470 167 474 c 1,297,-1
 167 478 l 1,298,-1
 165 525 l 1,299,300
 152 551 152 551 128 555 c 1,301,-1
 126 555 l 2,302,303
 124 555 124 555 118 552 c 1,304,305
 110 546 110 546 108 535.5 c 0,306,307
 102 504 102 504 102 463 c 128,-1,308
 102 422 102 422 105.5 416 c 128,-1,309
 109 410 109 410 110.5 405.5 c 128,-1,310
 112 401 112 401 112 396.5 c 128,-1,311
 112 392 112 392 116 390 c 1,312,313
 148 398 148 398 156 422 c 0,314,315
 158 427 158 427 161 429 c 1,316,-1
 161 434 l 1,292,-1
EndSplineSet
EndChar

StartChar: ampersand
Encoding: 38 38 9
Width: 699
Flags: HW
LayerCount: 2
Fore
SplineSet
614 376 m 128,-1,1
 610 376 610 376 608 374 c 2,2,-1
 605 368 l 2,3,4
 603 366 603 366 598 365.5 c 128,-1,5
 593 365 593 365 587.5 362.5 c 128,-1,6
 582 360 582 360 575.5 356 c 128,-1,7
 569 352 569 352 563 349 c 0,8,9
 549 342 549 342 531.5 337 c 128,-1,10
 514 332 514 332 502 332 c 2,11,-1
 486 333 l 2,12,13
 477 333 477 333 473 327 c 1,14,-1
 468 327 l 2,15,16
 459 327 459 327 454.5 324 c 128,-1,17
 450 321 450 321 443 318 c 1,18,-1
 437 318 l 2,19,20
 423 318 423 318 417 310 c 1,21,22
 417 303 417 303 420.5 299 c 0,23,24
 436.173913043 281.086956522 436.173913043 281.086956522 435 267 c 1,25,26
 437 264 437 264 440.5 262.5 c 128,-1,27
 444 261 444 261 447 259 c 1,28,-1
 447 258 l 2,29,30
 447 255 447 255 450 252 c 128,-1,31
 453 249 453 249 454.5 246.5 c 128,-1,32
 456 244 456 244 455.5 241 c 128,-1,33
 455 238 455 238 461 232 c 128,-1,34
 467 226 467 226 467 203.5 c 128,-1,35
 467 181 467 181 457 169 c 1,36,-1
 457 150 l 1,37,38
 450 138 450 138 440 132.5 c 128,-1,39
 430 127 430 127 428 112 c 1,40,41
 418 109 418 109 404 93.5 c 128,-1,42
 390 78 390 78 388 75 c 1,43,-1
 385 75 l 2,44,45
 374 75 374 75 370.5 69 c 128,-1,46
 367 63 367 63 360 58 c 1,47,48
 351 58 351 58 343 53.5 c 128,-1,49
 335 49 335 49 328 49 c 1,50,-1
 317 51 l 2,51,52
 313 51 313 51 311 48 c 128,-1,53
 309 45 309 45 298 45 c 2,54,-1
 296 45 l 1,55,-1
 292 41 l 1,56,-1
 291 41 l 1,57,-1
 238 47 l 1,58,-1
 225 45 l 1,59,-1
 164 56 l 1,60,61
 159 61 159 61 153 63.5 c 128,-1,62
 147 66 147 66 148 71 c 1,63,64
 136 71 136 71 123 84 c 128,-1,65
 110 97 110 97 103 100 c 1,66,67
 103 105 103 105 99.5 107.5 c 128,-1,68
 96 110 96 110 97 116 c 1,69,70
 65.3235294118 131.084033613 65.3235294118 131.084033613 53.5 175 c 0,71,72
 50 188 50 188 48 193 c 128,-1,73
 46 198 46 198 46 203 c 128,-1,74
 46 208 46 208 48 212 c 1,75,76
 44 216 44 216 44 222 c 1,77,-1
 48 244 l 1,78,-1
 46 254 l 2,79,80
 46 255 46 255 50 259 c 1,81,-1
 48 273 l 1,82,83
 48 281 48 281 49.5 287.5 c 128,-1,84
 51 294 51 294 52 300.5 c 128,-1,85
 53 307 53 307 52.5 314.5 c 128,-1,86
 52 322 52 322 53.5 327.5 c 0,87,88
 56.3846153846 338.076923077 56.3846153846 338.076923077 74.1923076923 365.038461538 c 128,-1,89
 92 392 92 392 101 399 c 1,90,-1
 107 402 l 1,91,-1
 109 407 l 1,92,-1
 112 407 l 1,93,-1
 112 411 l 1,94,-1
 116 411 l 1,95,96
 118 413 118 413 118 414 c 128,-1,97
 118 415 118 415 121.5 417.5 c 128,-1,98
 125 420 125 420 129 421 c 128,-1,99
 133 422 133 422 135 428 c 1,100,101
 153 434 153 434 158 442 c 1,102,103
 171 443 171 443 180 458 c 1,104,105
 179 463 179 463 175 466 c 128,-1,106
 171 469 171 469 171 472 c 2,107,-1
 171 477 l 1,108,-1
 166 494 l 1,109,-1
 168 500 l 1,110,-1
 165 526 l 1,111,112
 165 540 165 540 180 564 c 1,113,114
 191 567 191 567 198.5 572 c 128,-1,115
 206 577 206 577 217.5 584 c 128,-1,116
 229 591 229 591 245 591 c 128,-1,117
 261 591 261 591 264 584 c 1,118,119
 268 588 268 588 273 588 c 128,-1,120
 278 588 278 588 285.5 583 c 128,-1,121
 293 578 293 578 300 575 c 1,122,123
 310 582 310 582 312.5 594.5 c 128,-1,124
 315 607 315 607 316.5 615.5 c 128,-1,125
 318 624 318 624 321 629 c 1,126,-1
 332 633 l 1,127,128
 341 633 341 633 346.5 626.5 c 128,-1,129
 352 620 352 620 352 604 c 128,-1,130
 352 588 352 588 348 584 c 128,-1,131
 344 580 344 580 343 578 c 1,132,-1
 343 570 l 2,133,134
 343 568 343 568 339 560 c 128,-1,135
 335 552 335 552 335 539 c 1,136,-1
 339 522 l 1,137,138
 339 514 339 514 332.5 503.5 c 128,-1,139
 326 493 326 493 316 493 c 128,-1,140
 306 493 306 493 304 503 c 128,-1,141
 302 513 302 513 300 521 c 1,142,143
 292 532 292 532 275.5 541 c 128,-1,144
 259 550 259 550 245 550 c 1,145,-1
 234 549 l 1,146,147
 234 546 234 546 233.5 546.5 c 128,-1,148
 233 547 233 547 226.5 547 c 128,-1,149
 220 547 220 547 214.5 539.5 c 128,-1,150
 209 532 209 532 203 524 c 1,151,152
 207 510 207 510 209.5 498 c 128,-1,153
 212 486 212 486 217 478 c 0,154,155
 228 462 228 462 260 464 c 1,156,157
 267 459 267 459 276.5 454.5 c 128,-1,158
 286 450 286 450 286 439 c 0,159,160
 286 423 286 423 259 423 c 0,161,162
 254 423 254 423 252 425.5 c 128,-1,163
 250 428 250 428 246 430 c 1,164,-1
 241 430 l 2,165,166
 232 430 232 430 227 434 c 1,167,-1
 225 434 l 2,168,169
 222 434 222 434 221 431.5 c 128,-1,170
 220 429 220 429 210 427.5 c 128,-1,171
 200 426 200 426 193 419 c 128,-1,172
 186 412 186 412 174 411 c 1,173,174
 167 402 167 402 157 399 c 128,-1,175
 147 396 147 396 138 391 c 1,176,177
 133 383 133 383 125 375 c 0,178,179
 91 341 91 341 91 319 c 1,180,-1
 93 297 l 1,181,-1
 91 268 l 1,182,-1
 95 248 l 1,183,-1
 94 236 l 2,184,185
 94 229 94 229 99 224 c 1,186,-1
 99 222 l 1,187,-1
 97 214 l 1,188,189
 97 208 97 208 107.5 183 c 128,-1,190
 118 158 118 158 127 150.5 c 128,-1,191
 136 143 136 143 138 137.5 c 128,-1,192
 140 132 140 132 142.5 129 c 128,-1,193
 145 126 145 126 149.5 124.5 c 128,-1,194
 154 123 154 123 158 120 c 1,195,196
 161 110 161 110 182.5 98 c 128,-1,197
 204 86 204 86 208 86 c 2,198,-1
 219 87 l 1,199,200
 233 87 233 87 247.5 81.5 c 128,-1,201
 262 76 262 76 275 76 c 128,-1,202
 288 76 288 76 300.5 80 c 128,-1,203
 313 84 313 84 325 82 c 1,204,205
 334 88 334 88 344 90 c 128,-1,206
 354 92 354 92 364 99 c 128,-1,207
 374 106 374 106 382 116 c 1,208,-1
 390 128 l 1,209,210
 395 133 395 133 399.5 136 c 128,-1,211
 404 139 404 139 415 157.5 c 128,-1,212
 426 176 426 176 430 193 c 1,213,214
 428 200 428 200 426 206 c 128,-1,215
 424 212 424 212 422 219 c 128,-1,216
 420 226 420 226 416.5 232 c 128,-1,217
 413 238 413 238 411 244 c 1,218,219
 388 272 388 272 382 285 c 1,220,221
 373 285 373 285 369.5 289.5 c 128,-1,222
 366 294 366 294 360 299 c 1,223,224
 356 300 356 300 343 300 c 0,225,226
 300 300 300 300 282 285 c 0,227,228
 277 281 277 281 266.5 275.5 c 128,-1,229
 256 270 256 270 253 265 c 1,230,-1
 251 259 l 1,231,-1
 246 257 l 1,232,233
 242 250 242 250 241.5 241.5 c 128,-1,234
 241 233 241 233 234 228 c 1,235,-1
 222 227 l 2,236,237
 210 227 210 227 209.5 232 c 128,-1,238
 209 237 209 237 208 248 c 1,239,240
 210 250 210 250 210 253.5 c 128,-1,241
 210 257 210 257 207 257.5 c 128,-1,242
 204 258 204 258 204 261 c 128,-1,243
 204 264 204 264 211 268.5 c 128,-1,244
 218 273 218 273 217 285 c 1,245,246
 225 288 225 288 233 301 c 1,247,248
 242 303 242 303 249 310 c 128,-1,249
 256 317 256 317 264 323 c 1,250,251
 270 326 270 326 272 334 c 1,252,-1
 273 334 l 2,253,254
 285 334 285 334 296 341 c 128,-1,255
 307 348 307 348 321 348 c 1,256,-1
 357 344 l 1,257,-1
 364 346 l 1,258,-1
 381 345 l 2,259,260
 388 345 388 345 392.5 346.5 c 128,-1,261
 397 348 397 348 404 350 c 2,262,-1
 458 361 l 2,263,264
 469 364 469 364 478.5 365.5 c 0,265,266
 496.769230769 368.384615385 496.769230769 368.384615385 512 376 c 1,267,268
 518 377 518 377 521 377 c 2,269,-1
 528 377 l 2,270,271
 536 377 536 377 542 380 c 128,-1,272
 548 383 548 383 551 382.5 c 128,-1,273
 554 382 554 382 556.5 383.5 c 128,-1,274
 559 385 559 385 561.5 388 c 128,-1,275
 564 391 564 391 567 393 c 1,276,277
 583 395 583 395 596 404.5 c 128,-1,278
 609 414 609 414 615 418.5 c 128,-1,279
 621 423 621 423 624 423 c 1,280,-1
 648 456 l 1,281,-1
 648 465 l 2,282,283
 648 484 648 484 639 491.5 c 128,-1,284
 630 499 630 499 625.5 502 c 128,-1,285
 621 505 621 505 620 509 c 1,286,287
 612 516 612 516 608.5 518 c 128,-1,288
 605 520 605 520 587.5 520 c 128,-1,289
 570 520 570 520 541 509 c 1,290,291
 535 521 535 521 535 526.5 c 128,-1,292
 535 532 535 532 541 537.5 c 128,-1,293
 547 543 547 543 554 546.5 c 128,-1,294
 561 550 561 550 568.5 553 c 128,-1,295
 576 556 576 556 580 560 c 1,296,297
 591 559 591 559 600.5 557 c 128,-1,298
 610 555 610 555 620 554 c 1,299,300
 621 549 621 549 625.5 549 c 0,301,302
 635.25 549 635.25 549 643.125 537.5 c 128,-1,303
 651 526 651 526 667 519 c 1,304,305
 669 513 669 513 674 508 c 128,-1,306
 679 503 679 503 683 498 c 1,307,308
 685 488 685 488 685 477.5 c 128,-1,309
 685 467 685 467 682.5 463 c 128,-1,310
 680 459 680 459 676 451 c 1,311,312
 673 449 673 449 674 446.5 c 128,-1,313
 675 444 675 444 672.5 439 c 128,-1,314
 670 434 670 434 664.5 425.5 c 128,-1,315
 659 417 659 417 655 409 c 1,316,317
 647 404 647 404 641.5 399 c 0,318,319
 628.3 387 628.3 387 623.15 387 c 128,-1,320
 618 387 618 387 618 381.5 c 128,-1,0
 618 376 618 376 614 376 c 128,-1,1
EndSplineSet
EndChar

StartChar: quotesingle
Encoding: 39 39 10
Width: 165
Flags: HW
LayerCount: 2
Fore
SplineSet
108 596 m 1,0,-1
 110 583 l 1,1,-1
 108 569 l 1,2,-1
 108 554 l 2,3,4
 108 546 108 546 105 533.5 c 128,-1,5
 102 521 102 521 100 512 c 128,-1,6
 98 503 98 503 85 503 c 128,-1,7
 72 503 72 503 61 512 c 1,8,9
 63 520 63 520 63 525 c 2,10,-1
 61 552 l 1,11,-1
 61 568 l 2,12,13
 61 615 61 615 57 655 c 1,14,-1
 55 656 l 1,15,-1
 55 657 l 1,16,17
 57 664 57 664 57 666 c 2,18,-1
 53 681 l 1,19,20
 53 693 53 693 55 707 c 1,21,-1
 59 717 l 1,22,-1
 57 727 l 2,23,24
 57 732 57 732 59.5 735.5 c 128,-1,25
 62 739 62 739 63 744 c 1,26,27
 70 750 70 750 81 750 c 128,-1,28
 92 750 92 750 100 737.5 c 128,-1,29
 108 725 108 725 108 713 c 1,30,-1
 106 703 l 1,31,-1
 110 689 l 1,32,-1
 108 676 l 1,33,-1
 108 596 l 1,0,-1
EndSplineSet
EndChar

StartChar: parenleft
Encoding: 40 40 11
Width: 286
Flags: HW
LayerCount: 2
Fore
SplineSet
105 402 m 1,0,-1
 110 328 l 1,1,-1
 108 321 l 1,2,-1
 112 307 l 2,3,4
 112 305 112 305 110 303 c 1,5,6
 121 286 121 286 123 262.5 c 128,-1,7
 125 239 125 239 134 220 c 1,8,9
 134 207 134 207 139 195.5 c 128,-1,10
 144 184 144 184 144 177 c 1,11,12
 153 166 153 166 159.5 145 c 128,-1,13
 166 124 166 124 174 110 c 1,14,15
 187 80 187 80 204 47 c 1,16,17
 209.740740741 42.4074074074 209.740740741 42.4074074074 216.87037037 31.2037037037 c 128,-1,18
 224 20 224 20 227.5 17 c 128,-1,19
 231 14 231 14 234 9 c 2,20,-1
 253 -16 l 2,21,22
 258 -22 258 -22 263.5 -27 c 128,-1,23
 269 -32 269 -32 270 -38 c 1,24,-1
 270 -41 l 2,25,26
 270 -43 270 -43 264 -55 c 128,-1,27
 258 -67 258 -67 255 -69 c 1,28,29
 240 -72 240 -72 233 -72 c 128,-1,30
 226 -72 226 -72 219 -69 c 1,31,32
 216 -65 216 -65 213 -61 c 128,-1,33
 210 -57 210 -57 204 -57 c 1,34,35
 201 -43 201 -43 187 -38 c 1,36,-1
 188 -36 l 2,37,38
 188 -34 188 -34 184 -32.5 c 128,-1,39
 180 -31 180 -31 180.5 -26.5 c 128,-1,40
 181 -22 181 -22 179.5 -19.5 c 128,-1,41
 178 -17 178 -17 176 -16.5 c 128,-1,42
 174 -16 174 -16 168.5 -11 c 128,-1,43
 163 -6 163 -6 156.5 2.5 c 128,-1,44
 150 11 150 11 140 17 c 1,45,46
 139 26 139 26 133 34.5 c 128,-1,47
 127 43 127 43 124 51 c 0,48,49
 123 52 123 52 117.5 53.5 c 128,-1,50
 112 55 112 55 112 62.5 c 128,-1,51
 112 70 112 70 110 75 c 1,52,-1
 106 77 l 1,53,-1
 101 96 l 1,54,55
 98 102 98 102 94 108 c 128,-1,56
 90 114 90 114 88 118.5 c 128,-1,57
 86 123 86 123 86.5 126 c 128,-1,58
 87 129 87 129 84 131 c 1,59,60
 82 138 82 138 79.5 144.5 c 128,-1,61
 77 151 77 151 75 157 c 1,62,-1
 71 161 l 1,63,64
 63 185 63 185 63 198.5 c 0,65,66
 63 219 63 219 58.5 239 c 128,-1,67
 54 259 54 259 52 263 c 1,68,69
 52 285 52 285 48.5 296.5 c 128,-1,70
 45 308 45 308 45 312 c 2,71,-1
 46 323 l 2,72,73
 46 326 46 326 44 328 c 1,74,-1
 45 352 l 1,75,-1
 45 386 l 2,76,77
 45 401 45 401 44 419 c 1,78,-1
 41 443 l 1,79,-1
 48 489 l 2,80,81
 49 492 49 492 50 494.5 c 128,-1,82
 51 497 51 497 52.5 502 c 128,-1,83
 54 507 54 507 53.5 515 c 128,-1,84
 53 523 53 523 55 529.5 c 128,-1,85
 57 536 57 536 60 540.5 c 128,-1,86
 63 545 63 545 65.5 552 c 128,-1,87
 68 559 68 559 70 568.5 c 128,-1,88
 72 578 72 578 77 586 c 1,89,90
 79 593 79 593 83.5 599 c 128,-1,91
 88 605 88 605 92.5 615 c 128,-1,92
 97 625 97 625 102.5 638 c 128,-1,93
 108 651 108 651 113.5 659 c 128,-1,94
 119 667 119 667 123 670 c 128,-1,95
 127 673 127 673 132 680.5 c 128,-1,96
 137 688 137 688 145 696.5 c 128,-1,97
 153 705 153 705 158 710.5 c 128,-1,98
 163 716 163 716 166.5 720 c 128,-1,99
 170 724 170 724 174.5 725.5 c 128,-1,100
 179 727 179 727 183 731 c 128,-1,101
 187 735 187 735 190.5 738 c 128,-1,102
 194 741 194 741 198.5 743.5 c 128,-1,103
 203 746 203 746 208 751 c 1,104,105
 220 759 220 759 230.5 768 c 128,-1,106
 241 777 241 777 256.5 777 c 128,-1,107
 272 777 272 777 272 763 c 128,-1,108
 272 749 272 749 253 749 c 1,109,-1
 238 733 l 1,110,-1
 235 733 l 2,111,112
 229 733 229 733 220.5 724 c 128,-1,113
 212 715 212 715 212 708 c 1,114,115
 211 707 211 707 210 707 c 2,116,-1
 203 708 l 1,117,-1
 201 708 l 1,118,119
 187 690 187 690 173.5 674.5 c 128,-1,120
 160 659 160 659 154 637 c 1,121,122
 149 633 149 633 133.5 598.5 c 128,-1,123
 118 564 118 564 118 552 c 2,124,-1
 118 549 l 1,125,126
 106 523 106 523 106 507 c 2,127,-1
 107 478 l 2,128,129
 107 463 107 463 103 452 c 1,130,131
 106 437 106 437 106 407 c 1,132,-1
 105 402 l 1,0,-1
EndSplineSet
EndChar

StartChar: parenright
Encoding: 41 41 12
Width: 275
Flags: HW
LayerCount: 2
Fore
SplineSet
169 377 m 1,0,-1
 171 402 l 1,1,-1
 171 415 l 1,2,3
 169 417 169 417 169 421 c 1,4,5
 171 423 171 423 171 425.5 c 128,-1,6
 171 428 171 428 169.5 431.5 c 128,-1,7
 168 435 168 435 167 440 c 128,-1,8
 166 445 166 445 166.5 452 c 128,-1,9
 167 459 167 459 165 465 c 128,-1,10
 163 471 163 471 162.5 472 c 0,11,12
 161 475 161 475 161 476 c 2,13,-1
 161 485 l 2,14,15
 161 496 161 496 155.5 510 c 128,-1,16
 150 524 150 524 150 527.5 c 128,-1,17
 150 531 150 531 152 532 c 1,18,19
 130 558 130 558 124 592 c 1,20,21
 120 597 120 597 116.5 602.5 c 128,-1,22
 113 608 113 608 108 613 c 1,23,24
 102 622 102 622 98 632 c 128,-1,25
 94 642 94 642 82 647 c 1,26,27
 82 663 82 663 75.5 669.5 c 128,-1,28
 69 676 69 676 68 676 c 0,29,30
 63 676 63 676 64 680 c 128,-1,31
 65 684 65 684 62.5 687.5 c 128,-1,32
 60 691 60 691 55 696.5 c 128,-1,33
 50 702 50 702 31 725.5 c 128,-1,34
 12 749 12 749 8.5 763 c 128,-1,35
 5 777 5 777 3.5 780.5 c 128,-1,36
 2 784 2 784 2 791 c 128,-1,37
 2 798 2 798 15.5 801 c 128,-1,38
 29 804 29 804 36.5 804 c 128,-1,39
 44 804 44 804 57 793.5 c 128,-1,40
 70 783 70 783 73.5 778.5 c 128,-1,41
 77 774 77 774 77 772.5 c 128,-1,42
 77 771 77 771 80.5 766.5 c 128,-1,43
 84 762 84 762 89 757 c 128,-1,44
 94 752 94 752 95 743 c 1,45,46
 102 741 102 741 108 725 c 1,47,48
 125 715 125 715 132 701 c 0,49,50
 134 699 134 699 134 696.5 c 128,-1,51
 134 694 134 694 143.5 684.5 c 128,-1,52
 153 675 153 675 158 664 c 128,-1,53
 163 653 163 653 163 650 c 128,-1,54
 163 647 163 647 165 643.5 c 128,-1,55
 167 640 167 640 171.5 635.5 c 128,-1,56
 176 631 176 631 177.5 627 c 128,-1,57
 179 623 179 623 178.5 619.5 c 128,-1,58
 178 616 178 616 182 608 c 1,59,60
 189 599 189 599 197 570 c 1,61,62
 202 565 202 565 205.5 558.5 c 128,-1,63
 209 552 209 552 214 547 c 1,64,65
 214 534 214 534 218.5 521.5 c 128,-1,66
 223 509 223 509 223 500.5 c 128,-1,67
 223 492 223 492 221 483 c 1,68,69
 233 459 233 459 233 397.5 c 128,-1,70
 233 336 233 336 231 318.5 c 128,-1,71
 229 301 229 301 227 294 c 128,-1,72
 225 287 225 287 225 279 c 1,73,-1
 227 273 l 1,74,75
 227 269 227 269 225.5 266.5 c 128,-1,76
 224 264 224 264 222 258.5 c 128,-1,77
 220 253 220 253 219 240.5 c 0,78,79
 214.803418803 188.042735043 214.803418803 188.042735043 201 177 c 1,80,81
 203 173 203 173 203 169.5 c 128,-1,82
 203 166 203 166 199.5 162.5 c 0,83,84
 191 154 191 154 191 130 c 1,85,86
 181 118 181 118 179 100 c 1,87,88
 172 94 172 94 157.5 61.5 c 128,-1,89
 143 29 143 29 132 24 c 1,90,91
 130 18 130 18 128 14.5 c 128,-1,92
 126 11 126 11 126 6 c 1,93,94
 115 -1 115 -1 111.5 -8.5 c 128,-1,95
 108 -16 108 -16 95 -22 c 1,96,97
 95 -30 95 -30 80.5 -41.5 c 128,-1,98
 66 -53 66 -53 62 -53 c 128,-1,99
 58 -53 58 -53 54 -50 c 128,-1,100
 50 -47 50 -47 45 -45 c 1,101,102
 44 -43 44 -43 44 -34.5 c 128,-1,103
 44 -26 44 -26 58 -13 c 128,-1,104
 72 0 72 0 80 7 c 1,105,106
 80 14 80 14 86.5 27 c 128,-1,107
 93 40 93 40 96 43.5 c 128,-1,108
 99 47 99 47 101 48.5 c 128,-1,109
 103 50 103 50 105 53.5 c 128,-1,110
 107 57 107 57 107.5 62.5 c 128,-1,111
 108 68 108 68 110 71.5 c 128,-1,112
 112 75 112 75 115 78.5 c 128,-1,113
 118 82 118 82 120 90.5 c 128,-1,114
 122 99 122 99 127 114 c 128,-1,115
 132 129 132 129 141 153 c 128,-1,116
 150 177 150 177 155 195 c 0,117,118
 163.544303797 225.759493671 163.544303797 225.759493671 168.272151899 279.879746835 c 128,-1,119
 173 334 173 334 173 353 c 1,120,-1
 169 377 l 1,0,-1
EndSplineSet
EndChar

StartChar: asterisk
Encoding: 42 42 13
Width: 418
Flags: HW
LayerCount: 2
Fore
SplineSet
239 580 m 1,0,-1
 240 568 l 1,1,2
 250 569 250 569 255 577.5 c 128,-1,3
 260 586 260 586 268 593 c 128,-1,4
 276 600 276 600 285.5 605.5 c 128,-1,5
 295 611 295 611 304 619 c 128,-1,6
 313 627 313 627 321.5 635.5 c 128,-1,7
 330 644 330 644 342 647 c 1,8,9
 346 659 346 659 364 659 c 0,10,11
 368 659 368 659 370 658 c 1,12,13
 373 653 373 653 373 646 c 128,-1,14
 373 639 373 639 366 629 c 1,15,16
 361 627 361 627 356 625.5 c 128,-1,17
 351 624 351 624 346 622 c 1,18,19
 339 616 339 616 335 610 c 128,-1,20
 331 604 331 604 323 601 c 1,21,22
 321 598 321 598 320 594.5 c 128,-1,23
 319 591 319 591 317 588 c 1,24,25
 308 583 308 583 298.5 580 c 128,-1,26
 289 577 289 577 285 564 c 1,27,28
 269 560 269 560 262 547.5 c 128,-1,29
 255 535 255 535 242 526 c 1,30,-1
 238 510 l 1,31,32
 238 502 238 502 249 496 c 128,-1,33
 260 490 260 490 265 477 c 1,34,35
 274 477 274 477 302 448 c 1,36,-1
 334 417 l 2,37,38
 336 414 336 414 337 410.5 c 128,-1,39
 338 407 338 407 341.5 400.5 c 128,-1,40
 345 394 345 394 353.5 387 c 128,-1,41
 362 380 362 380 362 368 c 2,42,-1
 362 366 l 1,43,-1
 353 364 l 2,44,45
 352 364 352 364 350 366 c 1,46,47
 346 359 346 359 340 359 c 128,-1,48
 334 359 334 359 326 367 c 128,-1,49
 318 375 318 375 310 385 c 128,-1,50
 302 395 302 395 295 405.5 c 128,-1,51
 288 416 288 416 285 419 c 128,-1,52
 282 422 282 422 280.5 422.5 c 128,-1,53
 279 423 279 423 277.5 424.5 c 128,-1,54
 276 426 276 426 276.5 427.5 c 128,-1,55
 277 429 277 429 271.5 436.5 c 128,-1,56
 266 444 266 444 253 451 c 1,57,58
 250 456 250 456 247.5 461 c 128,-1,59
 245 466 245 466 238 468 c 1,60,61
 233 464 233 464 233.5 458 c 128,-1,62
 234 452 234 452 234 446 c 1,63,-1
 229 428 l 1,64,65
 232 411 l 1,66,-1
 229 397 l 1,67,-1
 234 383 l 1,68,-1
 232 374 l 1,69,-1
 235 327 l 1,70,-1
 235 318 l 2,71,72
 235 313 235 313 234 308 c 1,73,74
 227 305 227 305 221 305 c 2,75,-1
 210 306 l 1,76,77
 208 313 208 313 205 317.5 c 128,-1,78
 202 322 202 322 202 330 c 1,79,-1
 207 349 l 1,80,-1
 204 374 l 1,81,-1
 204 389 l 2,82,83
 204 392 204 392 202.5 404 c 128,-1,84
 201 416 201 416 198.5 438.5 c 128,-1,85
 196 461 196 461 193 470 c 1,86,87
 181 470 181 470 177 462 c 128,-1,88
 173 454 173 454 168 449 c 128,-1,89
 163 444 163 444 155 440 c 128,-1,90
 147 436 147 436 143 432 c 1,91,-1
 143 428 l 1,92,93
 138 423 138 423 132.5 422.5 c 128,-1,94
 127 422 127 422 124 409 c 1,95,96
 107 400 107 400 96 384.5 c 128,-1,97
 85 369 85 369 69 357 c 1,98,99
 53 367 53 367 53 374.5 c 0,100,101
 53 386 53 386 68 396 c 1,102,103
 80 407 80 407 84 417 c 1,104,105
 88 417 88 417 90 420 c 128,-1,106
 92 423 92 423 94 425 c 1,107,-1
 98 425 l 1,108,-1
 98 428 l 1,109,110
 114 439 114 439 117.5 445.5 c 0,111,112
 121.65625 453.21875 121.65625 453.21875 130 456 c 1,113,114
 134 459 134 459 136.5 463 c 128,-1,115
 139 467 139 467 143 470 c 2,116,-1
 157 479 l 1,117,118
 163 485 163 485 168.5 491.5 c 128,-1,119
 174 498 174 498 177.5 501 c 128,-1,120
 181 504 181 504 181 506.5 c 128,-1,121
 181 509 181 509 173 513 c 1,122,-1
 173 517 l 1,123,124
 162 528 162 528 155 528 c 1,125,-1
 155 537 l 1,126,127
 150 539 150 539 144.5 543.5 c 128,-1,128
 139 548 139 548 133 550 c 1,129,130
 131 554 131 554 129.5 555.5 c 128,-1,131
 128 557 128 557 128 562 c 1,132,133
 118 564 118 564 113.5 573 c 128,-1,134
 109 582 109 582 98 584 c 1,135,136
 98 590 98 590 93.5 592 c 128,-1,137
 89 594 89 594 88 599 c 1,138,139
 83 600 83 600 80.5 602 c 128,-1,140
 78 604 78 604 73 605 c 1,141,142
 72 611 72 611 60 619.5 c 128,-1,143
 48 628 48 628 48 643.5 c 128,-1,144
 48 659 48 659 63 659 c 0,145,146
 74 659 74 659 86.5 647.5 c 128,-1,147
 99 636 99 636 106 629 c 2,148,-1
 118 617 l 2,149,150
 122 614 122 614 126 612 c 128,-1,151
 130 610 130 610 135 605.5 c 128,-1,152
 140 601 140 601 146 594.5 c 128,-1,153
 152 588 152 588 159 582 c 2,154,-1
 173 572 l 1,155,156
 178 567 178 567 184.5 557.5 c 128,-1,157
 191 548 191 548 199 548 c 1,158,159
 206 552 206 552 205 558.5 c 128,-1,160
 204 565 204 565 204 571 c 2,161,-1
 208 596 l 1,162,-1
 206 612 l 1,163,-1
 210 639 l 1,164,165
 208 641 208 641 208 643 c 2,166,-1
 210 674 l 1,167,-1
 208 699 l 1,168,-1
 212 715 l 1,169,-1
 210 729 l 2,170,171
 210 734 210 734 216 741 c 128,-1,172
 222 748 222 748 227 748 c 1,173,-1
 229 746 l 1,174,175
 234 746 234 746 239.5 737.5 c 128,-1,176
 245 729 245 729 245.5 723 c 0,177,178
 247 705 247 705 247 694 c 2,179,-1
 247 684 l 2,180,181
 247 674 247 674 244 667 c 1,182,183
 246 662 246 662 246 656 c 2,184,-1
 246 646 l 1,185,-1
 239 580 l 1,0,-1
EndSplineSet
EndChar

StartChar: plus
Encoding: 43 43 14
Width: 526
Flags: HW
LayerCount: 2
Fore
SplineSet
405.5 345 m 1,0,-1
 448 353 l 1,1,-1
 449 353 l 1,2,3
 451 351 451 351 453 351 c 2,4,-1
 488 357 l 1,5,-1
 498 345 l 1,6,7
 496 338 496 338 491 334.5 c 128,-1,8
 486 331 486 331 481 326 c 1,9,-1
 460 330 l 1,10,11
 454 330 454 330 449 327.5 c 128,-1,12
 444 325 444 325 438.5 323.5 c 128,-1,13
 433 322 433 322 426 322.5 c 128,-1,14
 419 323 419 323 411 318 c 1,15,-1
 411 317 l 1,16,17
 409 317 409 317 409 318 c 128,-1,18
 409 319 409 319 407 319 c 2,19,-1
 400 317 l 1,20,-1
 386 319 l 1,21,22
 378 319 378 319 338 311 c 1,23,24
 332 311 332 311 329 304 c 1,25,26
 327 306 327 306 320 306 c 2,27,-1
 310 306 l 2,28,29
 308 306 308 306 307.5 304.5 c 128,-1,30
 307 303 307 303 304.5 301.5 c 128,-1,31
 302 300 302 300 293.5 299 c 128,-1,32
 285 298 285 298 285 292 c 1,33,-1
 289 283 l 1,34,-1
 284 274 l 1,35,-1
 286 264 l 1,36,-1
 285 249 l 1,37,38
 285 221 285 221 290 207.5 c 128,-1,39
 295 194 295 194 295 187 c 2,40,-1
 292 153 l 1,41,-1
 295 117 l 2,42,43
 295 107 295 107 290 105 c 0,44,45
 282 102 282 102 275.5 99.5 c 128,-1,46
 269 97 269 97 266.5 97 c 128,-1,47
 264 97 264 97 262.5 100 c 128,-1,48
 261 103 261 103 259 103 c 2,49,-1
 252 102 l 1,50,51
 241 102 241 102 241 127 c 1,52,-1
 244 170 l 1,53,-1
 240 208 l 1,54,-1
 241 226 l 1,55,-1
 235 252 l 1,56,-1
 237 276 l 2,57,58
 237 288 237 288 231.5 290 c 128,-1,59
 226 292 226 292 221 298 c 1,60,-1
 213 298 l 1,61,62
 197 301 197 301 188 292 c 1,63,-1
 170 298 l 1,64,-1
 152 292 l 1,65,-1
 151 292 l 1,66,-1
 142 295 l 1,67,68
 135 295 135 295 129 292 c 1,69,70
 119 290 119 290 108.5 291 c 128,-1,71
 98 292 98 292 82.5 292 c 128,-1,72
 67 292 67 292 52 288 c 1,73,74
 50 294 50 294 42.5 294 c 128,-1,75
 35 294 35 294 33 300 c 1,76,-1
 33 301 l 1,77,-1
 30 306 l 1,78,79
 30 322 30 322 42 322 c 2,80,-1
 66 322 l 1,81,-1
 82 324 l 1,82,-1
 99 319 l 1,83,84
 103 319 103 319 107 322 c 1,85,-1
 115 319 l 1,86,-1
 119 322 l 1,87,-1
 125 319 l 1,88,89
 128 319 128 319 131.5 321 c 0,90,91
 140.25 326 140.25 326 168 326 c 1,92,-1
 188 324 l 1,93,-1
 199 328 l 1,94,-1
 208 326 l 1,95,96
 215 326 215 326 233 332 c 1,97,98
 234 337 234 337 234 342 c 2,99,-1
 234 353 l 1,100,-1
 233 402 l 1,101,-1
 237 465 l 1,102,-1
 233 534 l 2,103,104
 233 544 233 544 237 552 c 1,105,106
 246 558 246 558 255 558 c 0,107,108
 269 558 269 558 272 526 c 1,109,110
 274 520 274 520 274 515 c 2,111,-1
 277 482 l 2,112,113
 277 474 277 474 274 471 c 1,114,-1
 277 461 l 2,115,116
 277 458 277 458 274 458 c 1,117,118
 280 442 280 442 280 427 c 128,-1,119
 280 412 280 412 276 402 c 1,120,121
 278 400 278 400 280 392 c 128,-1,122
 282 384 282 384 282 382 c 2,123,-1
 278 373 l 1,124,-1
 280 360 l 1,125,-1
 278 343 l 1,126,-1
 278 339 l 1,127,128
 285 332 285 332 299.5 332 c 128,-1,129
 314 332 314 332 330 336.5 c 128,-1,130
 346 341 346 341 357 341 c 128,-1,131
 368 341 368 341 371 342.5 c 128,-1,132
 374 344 374 344 379.5 345 c 128,-1,133
 385 346 385 346 391 345.5 c 128,-1,134
 397 345 397 345 405.5 345 c 1,0,-1
EndSplineSet
EndChar

StartChar: comma
Encoding: 44 44 15
Width: 207
Flags: HW
LayerCount: 2
Fore
SplineSet
56 60 m 1,0,1
 43 60 43 60 43 73.5 c 128,-1,2
 43 87 43 87 56.5 101 c 128,-1,3
 70 115 70 115 80 118 c 128,-1,4
 90 121 90 121 98 120.5 c 128,-1,5
 106 120 106 120 111 127 c 1,6,-1
 119 127 l 2,7,8
 124 127 124 127 124 126 c 128,-1,9
 124 125 124 125 126 123.5 c 128,-1,10
 128 122 128 122 130 122.5 c 128,-1,11
 132 123 132 123 134 121.5 c 128,-1,12
 136 120 136 120 137 117 c 128,-1,13
 138 114 138 114 141 112 c 1,14,15
 145 106 145 106 147.5 103.5 c 128,-1,16
 150 101 150 101 154 86 c 0,17,18
 158 71 158 71 158 55.5 c 128,-1,19
 158 40 158 40 147 29 c 1,20,21
 145 25 145 25 145.5 18 c 128,-1,22
 146 11 146 11 141 11 c 1,23,-1
 143 2 l 1,24,25
 143 -3 143 -3 136.5 -10 c 128,-1,26
 130 -17 130 -17 128 -25 c 1,27,28
 123 -28 123 -28 119 -32 c 128,-1,29
 115 -36 115 -36 111 -40 c 1,30,31
 111 -49 111 -49 109 -54 c 256,32,33
 107 -59 107 -59 94.5 -67.5 c 128,-1,34
 82 -76 82 -76 77 -76 c 128,-1,35
 72 -76 72 -76 70 -72.5 c 128,-1,36
 68 -69 68 -69 64 -68 c 1,37,-1
 64 -58 l 2,38,39
 64 -52 64 -52 68.5 -49 c 128,-1,40
 73 -46 73 -46 75 -44 c 0,41,42
 76 -42 76 -42 80 -37 c 128,-1,43
 84 -32 84 -32 87.5 -26 c 128,-1,44
 91 -20 91 -20 95 -15 c 0,45,46
 109 2 109 2 109 52 c 1,47,48
 105 54 105 54 99 54 c 128,-1,49
 93 54 93 54 89 48 c 1,50,51
 81 52 81 52 75.5 52 c 128,-1,52
 70 52 70 52 66 50 c 1,53,54
 57 51 57 51 56 60 c 1,0,1
EndSplineSet
EndChar

StartChar: hyphen
Encoding: 45 45 16
Width: 393
Flags: HW
LayerCount: 2
Fore
SplineSet
260 291 m 1,0,-1
 278 295 l 1,1,2
 286 295 286 295 306 303 c 1,3,4
 313 299 313 299 318 295.5 c 128,-1,5
 323 292 323 292 323 283 c 2,6,-1
 323 280 l 1,7,8
 318 275 318 275 313.5 275.5 c 128,-1,9
 309 276 309 276 304 271 c 1,10,-1
 301 271 l 1,11,-1
 292 273 l 1,12,-1
 286 271 l 1,13,-1
 283 273 l 1,14,15
 272 273 272 273 263.5 267.5 c 128,-1,16
 255 262 255 262 250.5 262 c 128,-1,17
 246 262 246 262 233 264 c 1,18,-1
 211 258 l 1,19,-1
 193 260 l 1,20,-1
 171 256 l 1,21,22
 165 256 165 256 159 260 c 1,23,24
 155 258 155 258 150.5 257.5 c 128,-1,25
 146 257 146 257 144 252 c 1,26,27
 142 252 142 252 127 258 c 1,28,29
 113 252 113 252 70 246 c 1,30,31
 67 249 67 249 67 253.5 c 128,-1,32
 67 258 67 258 70 270 c 1,33,34
 78 270 78 270 84 274 c 128,-1,35
 90 278 90 278 95.5 278 c 128,-1,36
 101 278 101 278 105 275 c 1,37,38
 114 287 114 287 184 287 c 0,39,40
 190 287 190 287 193 284 c 1,41,42
 197 284 197 284 200.5 286.5 c 128,-1,43
 204 289 204 289 209 288.5 c 128,-1,44
 214 288 214 288 218 288 c 2,45,-1
 260 291 l 1,0,-1
EndSplineSet
EndChar

StartChar: period
Encoding: 46 46 17
Width: 195
Flags: HW
LayerCount: 2
Fore
SplineSet
82 41 m 1,0,-1
 77 39 l 1,1,2
 63 39 63 39 56.5 50 c 128,-1,3
 50 61 50 61 50 70 c 128,-1,4
 50 79 50 79 51 81.5 c 0,5,6
 52.6666666667 85.6666666667 52.6666666667 85.6666666667 62.3333333333 103.833333333 c 128,-1,7
 72 122 72 122 80 124 c 128,-1,8
 88 126 88 126 90 129 c 1,9,-1
 97 129 l 1,10,11
 110 119 110 119 124 115 c 1,12,13
 126 109 126 109 131 106 c 2,14,-1
 142 101 l 1,15,16
 145 93 145 93 145 78.5 c 128,-1,17
 145 64 145 64 128 56 c 1,18,-1
 128 52 l 1,19,20
 126 50 126 50 122.5 48.5 c 128,-1,21
 119 47 119 47 118 44 c 1,22,23
 110 44 110 44 101.5 41 c 128,-1,24
 93 38 93 38 85 39 c 1,25,-1
 83 39 l 2,26,27
 82 39 82 39 82 40 c 2,28,-1
 82 41 l 1,0,-1
EndSplineSet
EndChar

StartChar: slash
Encoding: 47 47 18
Width: 298
Flags: HW
LayerCount: 2
Fore
SplineSet
73 69 m 0,0,1
 45 69 45 69 45 86 c 0,2,3
 45 107 45 107 49 112 c 128,-1,4
 53 117 53 117 54 121 c 2,5,-1
 57 134 l 2,6,7
 59 147 59 147 63 160 c 128,-1,8
 67 173 67 173 68 187 c 1,9,10
 77 199 77 199 77 208.5 c 0,11,12
 77 223.5 77 223.5 84 235.75 c 128,-1,13
 91 248 91 248 92 255.5 c 128,-1,14
 93 263 93 263 95 271 c 1,15,16
 97 271 97 271 97 280 c 128,-1,17
 97 289 97 289 105 307.5 c 128,-1,18
 113 326 113 326 113 341 c 2,19,-1
 113 343 l 1,20,-1
 117 346 l 1,21,22
 127 376 127 376 127 388 c 2,23,-1
 127 390 l 1,24,-1
 131 393 l 1,25,26
 133 399 133 399 133 405.5 c 128,-1,27
 133 412 133 412 138 416 c 1,28,29
 138 430 138 430 147 441 c 1,30,-1
 147 444 l 2,31,32
 147 451 147 451 149.5 466 c 128,-1,33
 152 481 152 481 153.5 492 c 128,-1,34
 155 503 155 503 158.5 509 c 128,-1,35
 162 515 162 515 161.5 518.5 c 128,-1,36
 161 522 161 522 168 538 c 128,-1,37
 175 554 175 554 177 571.5 c 128,-1,38
 179 589 179 589 181 598 c 128,-1,39
 183 607 183 607 182.5 611 c 0,40,41
 181.684210526 617.526315789 181.684210526 617.526315789 186.842105263 624.763157895 c 128,-1,42
 192 632 192 632 195 643 c 0,43,44
 204.818181818 679 204.818181818 679 219 679 c 0,45,46
 230 679 230 679 236 677 c 1,47,48
 243 667 243 667 243 652 c 256,49,50
 243 637 243 637 239.5 632 c 128,-1,51
 236 627 236 627 234 619.5 c 128,-1,52
 232 612 232 612 232.5 607.5 c 128,-1,53
 233 603 233 603 233 595 c 128,-1,54
 233 587 233 587 231 584.5 c 128,-1,55
 229 582 229 582 227.5 577 c 128,-1,56
 226 572 226 572 227 568.5 c 128,-1,57
 228 565 228 565 228 559.5 c 128,-1,58
 228 554 228 554 225.5 553 c 128,-1,59
 223 552 223 552 223 544.5 c 128,-1,60
 223 537 223 537 221 529 c 128,-1,61
 219 521 219 521 216 507.5 c 128,-1,62
 213 494 213 494 210.5 483 c 128,-1,63
 208 472 208 472 207 462.5 c 128,-1,64
 206 453 206 453 204 443.5 c 128,-1,65
 202 434 202 434 198.5 425 c 128,-1,66
 195 416 195 416 194.5 409 c 128,-1,67
 194 402 194 402 192 401.5 c 128,-1,68
 190 401 190 401 188 396.5 c 128,-1,69
 186 392 186 392 186.5 386 c 128,-1,70
 187 380 187 380 185 374 c 1,71,72
 178 370 178 370 176 359 c 128,-1,73
 174 348 174 348 168.5 330 c 128,-1,74
 163 312 163 312 158 286.5 c 128,-1,75
 153 261 153 261 140.5 228 c 128,-1,76
 128 195 128 195 117 152 c 128,-1,77
 106 109 106 109 101 97 c 128,-1,78
 96 85 96 85 95.5 82 c 128,-1,79
 95 79 95 79 93.5 77.5 c 128,-1,80
 92 76 92 76 90.5 76.5 c 128,-1,81
 89 77 89 77 86 74.5 c 128,-1,82
 83 72 83 72 82 70.5 c 128,-1,83
 81 69 81 69 73 69 c 0,0,1
EndSplineSet
EndChar

StartChar: zero
Encoding: 48 48 19
Width: 390
Flags: HW
LayerCount: 2
Fore
SplineSet
345 403 m 1,0,-1
 348 383 l 2,1,2
 348 378 348 378 345.5 374.5 c 128,-1,3
 343 371 343 371 341 365.5 c 128,-1,4
 339 360 339 360 339.5 354 c 128,-1,5
 340 348 340 348 339.5 343 c 128,-1,6
 339 338 339 338 336 336 c 128,-1,7
 333 334 333 334 329 318.5 c 128,-1,8
 325 303 325 303 315 298 c 0,9,10
 312 296 312 296 312 290 c 1,11,-1
 310 290 l 2,12,13
 302 290 302 290 299 284 c 128,-1,14
 296 278 296 278 288 278 c 1,15,16
 286 276 286 276 286.5 272 c 128,-1,17
 287 268 287 268 278.5 264 c 128,-1,18
 270 260 270 260 265 252 c 1,19,20
 254 251 254 251 246.5 247 c 128,-1,21
 239 243 239 243 230 239 c 1,22,-1
 222 239 l 1,23,-1
 193 238 l 2,24,25
 185 238 185 238 179.5 239.5 c 128,-1,26
 174 241 174 241 167.5 240 c 128,-1,27
 161 239 161 239 155.5 239 c 128,-1,28
 150 239 150 239 141 241 c 128,-1,29
 132 243 132 243 127.5 247 c 128,-1,30
 123 251 123 251 115 249 c 1,31,32
 115 254 115 254 111.5 253 c 128,-1,33
 108 252 108 252 104.5 255 c 128,-1,34
 101 258 101 258 95 266.5 c 128,-1,35
 89 275 89 275 84 278 c 1,36,37
 82 282 82 282 82 289 c 128,-1,38
 82 296 82 296 79 296 c 128,-1,39
 76 296 76 296 74 298 c 1,40,-1
 72 305 l 2,41,42
 69 312 69 312 66 319 c 128,-1,43
 63 326 63 326 59 331 c 1,44,-1
 60 340 l 2,45,46
 60 349 60 349 57.5 351.5 c 128,-1,47
 55 354 55 354 51 370 c 128,-1,48
 47 386 47 386 47 408 c 0,49,50
 47 453 47 453 86 500 c 1,51,52
 89 510 89 510 92 510 c 128,-1,53
 95 510 95 510 99.5 515 c 128,-1,54
 104 520 104 520 107.5 525.5 c 128,-1,55
 111 531 111 531 117 535 c 128,-1,56
 123 539 123 539 124 541.5 c 128,-1,57
 125 544 125 544 127 543 c 256,58,59
 129 542 129 542 133 547 c 1,60,61
 139 550 139 550 144 551.5 c 128,-1,62
 149 553 149 553 153 557 c 1,63,-1
 160 556 l 1,64,-1
 215 559 l 1,65,66
 222 554 222 554 228.5 549.5 c 128,-1,67
 235 545 235 545 239 538 c 1,68,69
 250 536 250 536 259 528.5 c 128,-1,70
 268 521 268 521 274 517.5 c 128,-1,71
 280 514 280 514 283 513 c 128,-1,72
 286 512 286 512 293.5 505.5 c 128,-1,73
 301 499 301 499 311 483.5 c 128,-1,74
 321 468 321 468 332 455 c 1,75,-1
 331 451 l 1,76,77
 331 441 331 441 339 435 c 1,78,79
 338 433 338 433 338 430.5 c 128,-1,80
 338 428 338 428 345 410 c 1,81,-1
 345 403 l 1,0,-1
108 437 m 1,82,-1
 113 399 l 1,83,84
 113 391 113 391 118 384.5 c 128,-1,85
 123 378 123 378 121 367 c 1,86,87
 127 356 127 356 129 344.5 c 128,-1,88
 131 333 131 333 133 322 c 1,89,90
 145 308 145 308 151 294.5 c 128,-1,91
 157 281 157 281 170 275.5 c 128,-1,92
 183 270 183 270 196 271 c 128,-1,93
 209 272 209 272 214.5 272 c 128,-1,94
 220 272 220 272 220 270 c 1,95,-1
 225 269 l 1,96,97
 234 269 234 269 240.5 272.5 c 128,-1,98
 247 276 247 276 255 280 c 1,99,100
 267 294 267 294 280 305.5 c 128,-1,101
 293 317 293 317 305 331 c 1,102,-1
 305 334 l 1,103,104
 303 342 303 342 307.5 349 c 128,-1,105
 312 356 312 356 313.5 361.5 c 128,-1,106
 315 367 315 367 314.5 369.5 c 128,-1,107
 314 372 314 372 314 374 c 2,108,-1
 314 376 l 1,109,-1
 318 378 l 1,110,111
 319 380 319 380 319 385 c 128,-1,112
 319 390 319 390 314 403 c 1,113,-1
 312 431 l 1,114,115
 301 442 301 442 294 456 c 128,-1,116
 287 470 287 470 287 472 c 1,117,-1
 284 472 l 2,118,119
 281 472 281 472 281 474 c 0,120,121
 281 480 281 480 273 480 c 0,122,123
 269 480 269 480 267 482 c 1,124,125
 268 487 268 487 262.5 487.5 c 128,-1,126
 257 488 257 488 259 495 c 1,127,128
 258 494 258 494 255.5 494 c 128,-1,129
 253 494 253 494 251 496.5 c 0,130,131
 246.6 502 246.6 502 241.3 501 c 128,-1,132
 236 500 236 500 221.5 507 c 128,-1,133
 207 514 207 514 207 514.5 c 128,-1,134
 207 515 207 515 206 515 c 2,135,-1
 198 510 l 2,136,137
 197 510 197 510 195.5 513 c 0,138,139
 190.5 523 190.5 523 170.75 523 c 128,-1,140
 151 523 151 523 145 520 c 1,141,142
 140 507 140 507 131 504 c 1,143,144
 130 489 130 489 117 482 c 1,145,146
 115 471 115 471 111.5 460 c 128,-1,147
 108 449 108 449 108 437 c 1,82,-1
EndSplineSet
EndChar

StartChar: one
Encoding: 49 49 20
Width: 342
Flags: HW
LayerCount: 2
Fore
SplineSet
266 372 m 1,0,-1
 267 352 l 1,1,-1
 264 333 l 1,2,-1
 266 293 l 1,3,-1
 266 243 l 1,4,-1
 261 161 l 1,5,-1
 263 104 l 1,6,-1
 265 83 l 2,7,8
 265 75 265 75 264 71 c 1,9,10
 252 59 252 59 254 57 c 1,11,12
 246 53 246 53 241 53 c 2,13,-1
 239 53 l 2,14,15
 237 53 237 53 235.5 51 c 128,-1,16
 234 49 234 49 232 47 c 1,17,18
 226 45 226 45 218.5 45 c 128,-1,19
 211 45 211 45 201 49 c 1,20,21
 195 58 195 58 195 71 c 1,22,-1
 197 94 l 1,23,-1
 195 145 l 2,24,25
 195 154 195 154 198 167 c 128,-1,26
 201 180 201 180 201 207 c 2,27,-1
 199 287 l 1,28,-1
 201 312 l 1,29,-1
 201 414 l 1,30,-1
 197 453 l 1,31,-1
 201 486 l 1,32,-1
 201 499 l 2,33,34
 201 505 201 505 199 511 c 1,35,-1
 198 511 l 2,36,37
 192 511 192 511 188.5 506.5 c 128,-1,38
 185 502 185 502 181.5 500 c 128,-1,39
 178 498 178 498 170 493 c 128,-1,40
 162 488 162 488 153.5 483 c 128,-1,41
 145 478 145 478 138 474 c 128,-1,42
 131 470 131 470 130 468 c 1,43,44
 116 468 116 468 103.5 462 c 128,-1,45
 91 456 91 456 77 456 c 1,46,47
 73 454 73 454 68.5 453 c 128,-1,48
 64 452 64 452 61 449 c 1,49,50
 57 450 57 450 38 450 c 128,-1,51
 19 450 19 450 14 455 c 1,52,-1
 13 465 l 2,53,54
 13 473 13 473 23.5 476.5 c 128,-1,55
 34 480 34 480 39 480 c 2,56,-1
 55 478 l 1,57,58
 64 478 64 478 89 485 c 0,59,60
 145 501 145 501 187 543 c 2,61,-1
 197 553 l 2,62,63
 208 564 208 564 208.5 578 c 0,64,65
 210.357142857 630 210.357142857 630 231 630 c 0,66,67
 246 630 246 630 251 615.5 c 128,-1,68
 256 601 256 601 257.5 594.5 c 128,-1,69
 259 588 259 588 260.5 584 c 128,-1,70
 262 580 262 580 262 577 c 2,71,-1
 258 552 l 1,72,-1
 259 525 l 2,73,74
 259 523 259 523 261 511 c 128,-1,75
 263 499 263 499 263 476.5 c 128,-1,76
 263 454 263 454 264 431 c 2,77,-1
 266 372 l 1,0,-1
EndSplineSet
EndChar

StartChar: two
Encoding: 50 50 21
Width: 411
Flags: HW
LayerCount: 2
Fore
SplineSet
259 62 m 1,0,-1
 246 62 l 2,1,2
 244 62 244 62 242 65 c 1,3,4
 235 60 235 60 223 57 c 1,5,6
 220 60 220 60 215 60 c 2,7,-1
 203 59 l 2,8,9
 198 59 198 59 195 62 c 1,10,-1
 172 53 l 1,11,-1
 170 53 l 1,12,13
 167 52 167 52 158 57 c 1,14,15
 153 55 153 55 148 53 c 128,-1,16
 143 51 143 51 138 51 c 2,17,-1
 137 51 l 1,18,-1
 135 47 l 1,19,20
 125 43 125 43 102 43 c 1,21,-1
 90 45 l 1,22,-1
 90 48 l 1,23,-1
 88 60 l 2,24,25
 88 65 88 65 93 74 c 2,26,-1
 101 87 l 2,27,28
 106 94 106 94 113 102 c 1,29,30
 120 113 120 113 125 124 c 128,-1,31
 130 135 130 135 139 143 c 1,32,33
 139 162 139 162 168 201 c 1,34,-1
 172 203 l 1,35,36
 186 231 186 231 188 246 c 1,37,38
 192 248 192 248 193 252 c 128,-1,39
 194 256 194 256 197 258 c 1,40,-1
 197 260 l 2,41,42
 197 274 197 274 206 285 c 128,-1,43
 215 296 215 296 217 304.5 c 128,-1,44
 219 313 219 313 218.5 318 c 128,-1,45
 218 323 218 323 218 329 c 128,-1,46
 218 335 218 335 222.5 344 c 128,-1,47
 227 353 227 353 227.5 360 c 128,-1,48
 228 367 228 367 230.5 371.5 c 128,-1,49
 233 376 233 376 236.5 382.5 c 128,-1,50
 240 389 240 389 239.5 393 c 128,-1,51
 239 397 239 397 240 401 c 1,52,53
 243 402 243 402 244 406 c 1,54,55
 249 409 249 409 255 462 c 128,-1,56
 261 515 261 515 261 519 c 2,57,-1
 259 537 l 1,58,-1
 259 567 l 2,59,60
 259 601 259 601 251 611 c 1,61,-1
 247 613 l 1,62,63
 246 615 246 615 247 617.5 c 128,-1,64
 248 620 248 620 248 622.5 c 128,-1,65
 248 625 248 625 244 630 c 128,-1,66
 240 635 240 635 234 643 c 128,-1,67
 228 651 228 651 219 660 c 1,68,-1
 212 659 l 2,69,70
 207 659 207 659 201.5 661.5 c 128,-1,71
 196 664 196 664 191 665 c 1,72,73
 190 669 190 669 187 669.5 c 128,-1,74
 184 670 184 670 186 677 c 1,75,-1
 184 677 l 2,76,77
 178 677 178 677 177 671.5 c 128,-1,78
 176 666 176 666 172 663 c 1,79,80
 162 660 162 660 150 656.5 c 128,-1,81
 138 653 138 653 133 643 c 1,82,83
 125 643 125 643 118 638 c 128,-1,84
 111 633 111 633 111 625 c 2,85,-1
 111 624 l 1,86,-1
 107 622 l 1,87,88
 105 617 105 617 103.5 613 c 128,-1,89
 102 609 102 609 99.5 605.5 c 128,-1,90
 97 602 97 602 93 600.5 c 128,-1,91
 89 599 89 599 90 594 c 1,92,93
 87 592 87 592 80 592 c 1,94,95
 79 584 79 584 74 575.5 c 128,-1,96
 69 567 69 567 69 558 c 1,97,-1
 71 550 l 1,98,-1
 67 527 l 1,99,100
 67 511 67 511 73 498 c 1,101,-1
 67 478 l 1,102,-1
 73 458 l 1,103,104
 82 453 82 453 89.5 450 c 128,-1,105
 97 447 97 447 97 436 c 1,106,107
 104 438 104 438 116 448 c 128,-1,108
 128 458 128 458 133 458 c 1,109,110
 136 468 136 468 136 484 c 128,-1,111
 136 500 136 500 127 513 c 1,112,113
 128 515 128 515 128 519 c 2,114,-1
 127 534 l 1,115,-1
 127 537 l 1,116,117
 138 545 138 545 145.5 545 c 128,-1,118
 153 545 153 545 166 532 c 1,119,-1
 166 528 l 2,120,121
 166 526 166 526 168 524 c 1,122,123
 174 522 174 522 173 518 c 128,-1,124
 172 514 172 514 172 511 c 128,-1,125
 172 508 172 508 174.5 505.5 c 128,-1,126
 177 503 177 503 178 499 c 128,-1,127
 179 495 179 495 178.5 490.5 c 128,-1,128
 178 486 178 486 178 481 c 2,129,-1
 178 475 l 2,130,131
 178 474 178 474 176.5 474 c 128,-1,132
 175 474 175 474 172.5 470.5 c 128,-1,133
 170 467 170 467 171 463.5 c 128,-1,134
 172 460 172 460 170 458 c 0,135,136
 164 455 164 455 160 449.5 c 128,-1,137
 156 444 156 444 150 442 c 1,138,139
 144 434 144 434 141 427 c 1,140,141
 130 422 130 422 119 418.5 c 128,-1,142
 108 415 108 415 97 411 c 1,143,144
 92 415 92 415 88 420 c 1,145,-1
 78 429 l 1,146,147
 75 428 75 428 67 428 c 128,-1,148
 59 428 59 428 52 431 c 1,149,150
 48 434 48 434 48 443 c 128,-1,151
 48 452 48 452 43 460 c 1,152,153
 41 468 41 468 42 475.5 c 128,-1,154
 43 483 43 483 41.5 488.5 c 128,-1,155
 40 494 40 494 38.5 496.5 c 0,156,157
 36 500.666666667 36 500.666666667 36 510 c 2,158,-1
 36 519 l 2,159,160
 36 533 36 533 30 537 c 1,161,162
 39 555 39 555 37 562 c 1,163,164
 43 566 43 566 47 576.5 c 128,-1,165
 51 587 51 587 51 590 c 128,-1,166
 51 593 51 593 50.5 596.5 c 128,-1,167
 50 600 50 600 56 613 c 1,168,-1
 58 624 l 1,169,-1
 62 626 l 1,170,171
 64 631 64 631 68 634 c 128,-1,172
 72 637 72 637 75 640 c 128,-1,173
 78 643 78 643 79 646.5 c 128,-1,174
 80 650 80 650 81.5 652 c 128,-1,175
 83 654 83 654 84.5 654 c 128,-1,176
 86 654 86 654 87.5 656 c 128,-1,177
 89 658 89 658 88.5 660 c 128,-1,178
 88 662 88 662 89.5 663.5 c 128,-1,179
 91 665 91 665 93 664 c 128,-1,180
 95 663 95 663 97 665 c 256,181,182
 99 667 99 667 98 668 c 0,183,184
 96 672 96 672 103 673.5 c 128,-1,185
 110 675 110 675 113 677 c 1,186,-1
 115 680 l 1,187,-1
 119 680 l 1,188,-1
 150 694 l 1,189,-1
 161 694 l 1,190,-1
 174 698 l 2,191,192
 176 698 176 698 176 697 c 128,-1,193
 176 696 176 696 178 696 c 2,194,-1
 206 696 l 1,195,-1
 215 698 l 1,196,197
 220 698 220 698 227.5 692 c 128,-1,198
 235 686 235 686 247 688 c 1,199,200
 247 684 247 684 250 684.5 c 128,-1,201
 253 685 253 685 255 684 c 0,202,203
 256 683 256 683 255.5 682.5 c 128,-1,204
 255 682 255 682 257 680 c 0,205,206
 270 674 270 674 280 660 c 2,207,-1
 289 647 l 1,208,-1
 296 639 l 1,209,210
 299 634 299 634 299 632 c 128,-1,211
 299 630 299 630 302.5 626 c 128,-1,212
 306 622 306 622 306 618 c 128,-1,213
 306 614 306 614 308 611 c 1,214,-1
 312 609 l 1,215,216
 313 606 313 606 312.5 602 c 128,-1,217
 312 598 312 598 313.5 594 c 128,-1,218
 315 590 315 590 316.5 588.5 c 128,-1,219
 318 587 318 587 318 582 c 2,220,-1
 317 566 l 1,221,-1
 319 546 l 1,222,-1
 317 532 l 1,223,-1
 319 521 l 1,224,-1
 315 507 l 1,225,-1
 317 497 l 1,226,-1
 313 481 l 1,227,-1
 314 473 l 2,228,229
 314 467 314 467 308 455 c 1,230,231
 308 413 308 413 289 369 c 0,232,233
 283 355 283 355 276 348 c 1,234,235
 273 325 273 325 266 318 c 1,236,-1
 266 305 l 2,237,238
 266 302 266 302 260.5 293 c 128,-1,239
 255 284 255 284 253 279.5 c 128,-1,240
 251 275 251 275 251 271 c 128,-1,241
 251 267 251 267 248.5 260.5 c 128,-1,242
 246 254 246 254 238 242.5 c 128,-1,243
 230 231 230 231 231 222 c 1,244,245
 226 217 226 217 223 216 c 1,246,-1
 223 215 l 2,247,248
 223 208 223 208 216 194 c 128,-1,249
 209 180 209 180 207.5 178.5 c 128,-1,250
 206 177 206 177 205 177 c 128,-1,251
 204 177 204 177 201 175 c 1,252,253
 198 171 198 171 197 166.5 c 128,-1,254
 196 162 196 162 190 161 c 1,255,256
 188 143 188 143 176 135 c 1,257,-1
 176 133 l 1,258,259
 177 125 177 125 172 121.5 c 128,-1,260
 167 118 167 118 166 111 c 1,261,262
 158 105 158 105 153 98 c 128,-1,263
 148 91 148 91 142 85 c 1,264,265
 146 81 146 81 151 81 c 1,266,-1
 170 85 l 1,267,-1
 182 84 l 1,268,269
 196 84 196 84 210.5 88 c 128,-1,270
 225 92 225 92 238.5 94 c 128,-1,271
 252 96 252 96 267.5 95.5 c 128,-1,272
 283 95 283 95 294 102 c 1,273,274
 298 100 298 100 318.5 100 c 128,-1,275
 339 100 339 100 372 111 c 1,276,277
 377 105 377 105 381 103 c 128,-1,278
 385 101 385 101 385 93.5 c 128,-1,279
 385 86 385 86 376.5 80 c 128,-1,280
 368 74 368 74 361.5 74 c 128,-1,281
 355 74 355 74 351 77 c 1,282,283
 341 73 341 73 329 73 c 2,284,-1
 305 75 l 2,285,286
 297 75 297 75 290.5 70.5 c 128,-1,287
 284 66 284 66 274 67 c 128,-1,288
 264 68 264 68 259 62 c 1,0,-1
EndSplineSet
EndChar

StartChar: three
Encoding: 51 51 22
Width: 393
Flags: HW
LayerCount: 2
Fore
SplineSet
35 146 m 1,0,-1
 42 180 l 1,1,2
 42 187 42 187 44 195 c 1,3,-1
 48 199 l 1,4,5
 50 207 50 207 55.5 214.5 c 128,-1,6
 61 222 61 222 64 230 c 1,7,8
 78 239 78 239 104.5 244 c 128,-1,9
 131 249 131 249 144 249 c 128,-1,10
 157 249 157 249 163 246.5 c 0,11,12
 172.457627119 242.559322034 172.457627119 242.559322034 185.728813559 225.279661017 c 128,-1,13
 199 208 199 208 199 202.5 c 128,-1,14
 199 197 199 197 197.5 195.5 c 128,-1,15
 196 194 196 194 194 190 c 1,16,-1
 194 188 l 1,17,-1
 192 179 l 1,18,19
 187 178 187 178 184 175 c 128,-1,20
 181 172 181 172 177 169 c 1,21,-1
 174 169 l 1,22,23
 168 168 168 168 163.5 172 c 128,-1,24
 159 176 159 176 154 179 c 1,25,-1
 154 180 l 2,26,27
 154 190 154 190 149.5 196.5 c 128,-1,28
 145 203 145 203 145 212 c 1,29,-1
 143 212 l 2,30,31
 139 212 139 212 139 214 c 128,-1,32
 139 216 139 216 135 216 c 128,-1,33
 131 216 131 216 122 210 c 1,34,-1
 119 211 l 1,35,36
 109 211 109 211 103 205 c 1,37,38
 102 206 102 206 100 206 c 2,39,-1
 87 205 l 1,40,41
 82 201 82 201 78 196 c 128,-1,42
 74 191 74 191 70 186 c 1,43,44
 68 180 68 180 67.5 171.5 c 128,-1,45
 67 163 67 163 62 158 c 1,46,47
 64 150 64 150 64 145 c 128,-1,48
 64 140 64 140 60 130 c 1,49,50
 61 125 61 125 63.5 123 c 128,-1,51
 66 121 66 121 68.5 118.5 c 128,-1,52
 71 116 71 116 71.5 112.5 c 128,-1,53
 72 109 72 109 77 109 c 1,54,-1
 77 104 l 2,55,56
 77 96 77 96 91 83.5 c 128,-1,57
 105 71 105 71 115 71 c 1,58,-1
 115 69 l 2,59,60
 115 66 115 66 118.5 66 c 128,-1,61
 122 66 122 66 121 61 c 1,62,63
 127 65 127 65 134 65 c 2,64,-1
 160 62 l 1,65,66
 169 62 169 62 176 66 c 128,-1,67
 183 70 183 70 192 71 c 1,68,69
 200 80 200 80 208.5 87.5 c 128,-1,70
 217 95 217 95 222 106 c 1,71,72
 241 139 241 139 250 175 c 1,73,74
 254 183 254 183 254 186 c 2,75,-1
 252 193 l 1,76,-1
 256 218 l 1,77,78
 256 236 256 236 253.5 251.5 c 128,-1,79
 251 267 251 267 250 285 c 1,80,81
 247 294 247 294 241 301 c 1,82,-1
 241 304 l 2,83,84
 241 324 241 324 232.5 336.5 c 128,-1,85
 224 349 224 349 224 354 c 1,86,87
 218 360 218 360 215 369 c 128,-1,88
 212 378 212 378 207 385 c 1,89,-1
 203 385 l 1,90,-1
 203 389 l 1,91,92
 199 393 199 393 194.5 393.5 c 128,-1,93
 190 394 190 394 186.5 396 c 128,-1,94
 183 398 183 398 182 399.5 c 128,-1,95
 181 401 181 401 179 402.5 c 128,-1,96
 177 404 177 404 175 404 c 128,-1,97
 173 404 173 404 171 407 c 1,98,-1
 171 408 l 1,99,-1
 157 403 l 1,100,101
 150 403 150 403 129 385 c 128,-1,102
 108 367 108 367 98 361 c 1,103,104
 87 367 87 367 87 377.5 c 128,-1,105
 87 388 87 388 89.5 390.5 c 128,-1,106
 92 393 92 393 96 398.5 c 128,-1,107
 100 404 100 404 100.5 408.5 c 128,-1,108
 101 413 101 413 103 415 c 0,109,110
 113 429 113 429 131 439.5 c 128,-1,111
 149 450 149 450 157.5 463.5 c 128,-1,112
 166 477 166 477 179 481 c 1,113,114
 181 487 181 487 185 490 c 128,-1,115
 189 493 189 493 191 496.5 c 128,-1,116
 193 500 193 500 192.5 501 c 128,-1,117
 192 502 192 502 194 504 c 2,118,-1
 203 511 l 1,119,120
 203 513 203 513 206 520 c 128,-1,121
 209 527 209 527 210.5 528.5 c 128,-1,122
 212 530 212 530 213.5 529.5 c 128,-1,123
 215 529 215 529 217 530 c 1,124,125
 218 532 218 532 217.5 533 c 128,-1,126
 217 534 217 534 219 535.5 c 128,-1,127
 221 537 221 537 222.5 538 c 128,-1,128
 224 539 224 539 226.5 541 c 128,-1,129
 229 543 229 543 228.5 544 c 128,-1,130
 228 545 228 545 229 547 c 1,131,-1
 233 549 l 2,132,133
 235 551 235 551 235 552.5 c 128,-1,134
 235 554 235 554 238.5 559 c 128,-1,135
 242 564 242 564 249.5 569 c 0,136,137
 262.1 577.4 262.1 577.4 264.55 587.7 c 128,-1,138
 267 598 267 598 276.5 604.5 c 128,-1,139
 286 611 286 611 288 620 c 1,140,141
 283 626 283 626 275 626 c 1,142,-1
 240 620 l 1,143,144
 234 620 234 620 229 623 c 128,-1,145
 224 626 224 626 217 625 c 128,-1,146
 210 624 210 624 203 624 c 128,-1,147
 196 624 196 624 192 628 c 1,148,149
 183 624 183 624 171 624 c 128,-1,150
 159 624 159 624 156 629 c 1,151,152
 154 627 154 627 151 627 c 2,153,-1
 145 627 l 2,154,155
 119 627 119 627 109.5 633.5 c 128,-1,156
 100 640 100 640 100 645 c 0,157,158
 100 653 100 653 112 653.5 c 128,-1,159
 124 654 124 654 127 654 c 2,160,-1
 186 654 l 1,161,162
 192 656 192 656 197 656 c 1,163,-1
 209 652 l 1,164,-1
 229 654 l 1,165,-1
 257 652 l 1,166,-1
 297 652 l 1,167,-1
 328 658 l 1,168,-1
 341 658 l 1,169,170
 349 655 349 655 357 641 c 1,171,172
 354 635 354 635 349.5 633 c 128,-1,173
 345 631 345 631 341 628 c 1,174,175
 338 622 338 622 335 616 c 128,-1,176
 332 610 332 610 328.5 606.5 c 128,-1,177
 325 603 325 603 321.5 602.5 c 128,-1,178
 318 602 318 602 315.5 600 c 128,-1,179
 313 598 313 598 311.5 595 c 128,-1,180
 310 592 310 592 305 594 c 1,181,182
 303 592 303 592 303 588 c 128,-1,183
 303 584 303 584 296 577 c 128,-1,184
 289 570 289 570 280 557.5 c 128,-1,185
 271 545 271 545 257 532 c 128,-1,186
 243 519 243 519 235 502 c 1,187,188
 230 497 230 497 224 492 c 128,-1,189
 218 487 218 487 214.5 483 c 128,-1,190
 211 479 211 479 211 477.5 c 128,-1,191
 211 476 211 476 208 472.5 c 128,-1,192
 205 469 205 469 201.5 466.5 c 128,-1,193
 198 464 198 464 196 458 c 1,194,195
 185 455 185 455 181 444 c 1,196,197
 185 437 185 437 194 435.5 c 128,-1,198
 203 434 203 434 209 432 c 1,199,-1
 210 432 l 1,200,201
 213 433 213 433 213.5 429 c 128,-1,202
 214 425 214 425 217 425 c 0,203,204
 222 424 222 424 227 423.5 c 0,205,206
 237.789473684 422.421052632 237.789473684 422.421052632 239.894736842 417.710526316 c 128,-1,207
 242 413 242 413 246 414 c 128,-1,208
 250 415 250 415 253.5 412.5 c 128,-1,209
 257 410 257 410 259.5 404 c 128,-1,210
 262 398 262 398 269 397 c 1,211,212
 271 389 271 389 276 386 c 128,-1,213
 281 383 281 383 286 378 c 1,214,215
 289 370 289 370 292.5 360.5 c 128,-1,216
 296 351 296 351 303 346 c 1,217,218
 308 316 308 316 314 308 c 128,-1,219
 320 300 320 300 321 297.5 c 128,-1,220
 322 295 322 295 321.5 292 c 128,-1,221
 321 289 321 289 321 287 c 2,222,-1
 325 275 l 1,223,-1
 323 263 l 1,224,-1
 325 254 l 1,225,-1
 323 246 l 1,226,-1
 324 236 l 1,227,-1
 323 226 l 1,228,-1
 325 215 l 1,229,230
 325 208 325 208 321.5 202.5 c 128,-1,231
 318 197 318 197 320 188 c 1,232,233
 308 177 308 177 303.5 161 c 128,-1,234
 299 145 299 145 290 132 c 1,235,-1
 290 129 l 2,236,237
 290 115 290 115 269 98 c 0,238,239
 264 94 264 94 262 88 c 1,240,-1
 261 88 l 1,241,242
 256 90 256 90 252 81 c 1,243,-1
 248 81 l 1,244,-1
 237 65 l 1,245,246
 235 65 235 65 223 60 c 128,-1,247
 211 55 211 55 203 47 c 1,248,-1
 201 47 l 2,249,250
 198 47 198 47 197 45.5 c 128,-1,251
 196 44 196 44 192 45 c 1,252,253
 190 41 190 41 185 40 c 128,-1,254
 180 39 180 39 179 34 c 1,255,-1
 156.5 34 l 2,256,257
 146 34 146 34 136 39 c 1,258,259
 130 36 130 36 121.5 36 c 128,-1,260
 113 36 113 36 103.5 40 c 128,-1,261
 94 44 94 44 83 45 c 1,262,263
 76 54 76 54 73 62.5 c 128,-1,264
 70 71 70 71 66.5 72 c 128,-1,265
 63 73 63 73 60 75 c 1,266,267
 60 86 60 86 46 92 c 1,268,-1
 46 94 l 2,269,270
 46 103 46 103 40.5 111.5 c 128,-1,271
 35 120 35 120 35 130 c 2,272,-1
 35 146 l 1,0,-1
EndSplineSet
EndChar

StartChar: four
Encoding: 52 52 23
Width: 390
Flags: HW
LayerCount: 2
Fore
SplineSet
282 318 m 1,0,1
 282 286 282 286 290 214 c 1,2,-1
 290 175 l 1,3,4
 298 173 298 173 308 173 c 128,-1,5
 318 173 318 173 333.5 179.5 c 128,-1,6
 349 186 349 186 366 186 c 1,7,-1
 377 175 l 1,8,9
 377 167 377 167 371.5 163 c 128,-1,10
 366 159 366 159 364 152 c 1,11,12
 327 139 327 139 298 139 c 1,13,14
 293 132 293 132 293 120 c 2,15,-1
 294 78 l 2,16,17
 294 74 294 74 297 73 c 128,-1,18
 300 72 300 72 300 67 c 1,19,-1
 296 51 l 1,20,-1
 298 45 l 1,21,22
 294 16 l 1,23,-1
 296 -24 l 1,24,-1
 293 -47 l 2,25,26
 293 -51 293 -51 294 -53 c 1,27,28
 288 -58 288 -58 286.5 -68 c 128,-1,29
 285 -78 285 -78 280 -80.5 c 128,-1,30
 275 -83 275 -83 265.5 -82 c 128,-1,31
 256 -81 256 -81 249 -83 c 1,32,33
 243 -79 243 -79 241 -74.5 c 128,-1,34
 239 -70 239 -70 234 -67 c 1,35,-1
 234 -65 l 1,36,-1
 236 -55 l 1,37,-1
 233 -47 l 1,38,-1
 234 -10 l 1,39,-1
 237 46 l 2,40,41
 237 53 237 53 236 59 c 128,-1,42
 235 65 235 65 234 71 c 1,43,-1
 235 84 l 1,44,-1
 231 120 l 1,45,46
 227 123 227 123 222 123 c 128,-1,47
 217 123 217 123 213 126 c 1,48,-1
 202 120 l 2,49,50
 199 118 199 118 191 114 c 1,51,-1
 180 118 l 1,52,53
 174 118 174 118 162 106 c 1,54,55
 155 109 155 109 151 109 c 2,56,-1
 132 106 l 1,57,58
 125 106 125 106 121 111 c 1,59,-1
 107 102 l 1,60,-1
 101 102 l 2,61,62
 89 102 89 102 86 96 c 1,63,-1
 73 100 l 2,64,65
 71 100 71 100 69 97 c 128,-1,66
 67 94 67 94 64.5 95 c 128,-1,67
 62 96 62 96 57.5 96 c 128,-1,68
 53 96 53 96 43.5 90.5 c 128,-1,69
 34 85 34 85 25 85 c 0,70,71
 12 85 12 85 12 98 c 0,72,73
 12 123 12 123 18.5 134 c 128,-1,74
 25 145 25 145 32.5 160.5 c 128,-1,75
 40 176 40 176 51 208.5 c 128,-1,76
 62 241 62 241 64.5 245 c 128,-1,77
 67 249 67 249 71 258.5 c 128,-1,78
 75 268 75 268 81 285 c 128,-1,79
 87 302 87 302 92 310.5 c 128,-1,80
 97 319 97 319 99 321.5 c 128,-1,81
 101 324 101 324 103 327.5 c 128,-1,82
 105 331 105 331 105 335 c 128,-1,83
 105 339 105 339 106.5 342.5 c 128,-1,84
 108 346 108 346 110.5 353 c 128,-1,85
 113 360 113 360 117.5 374.5 c 128,-1,86
 122 389 122 389 125 389 c 1,87,-1
 125 406 l 1,88,89
 128 412 128 412 133 417.5 c 128,-1,90
 138 423 138 423 140 431 c 1,91,92
 142 433 142 433 141.5 436 c 128,-1,93
 141 439 141 439 142 442 c 2,94,-1
 152 460 l 2,95,96
 154 465 154 465 154.5 470.5 c 128,-1,97
 155 476 155 476 160 480 c 1,98,99
 160 492 160 492 168.5 524.5 c 128,-1,100
 177 557 177 557 178 560 c 1,101,-1
 182 562 l 1,102,-1
 182 566 l 1,103,104
 189 582 189 582 192.5 601 c 128,-1,105
 196 620 196 620 208 631 c 1,106,-1
 208 634 l 2,107,108
 208 644 208 644 214 656.5 c 128,-1,109
 220 669 220 669 231 669 c 256,110,111
 242 669 242 669 247.5 658.5 c 128,-1,112
 253 648 253 648 253 635.5 c 128,-1,113
 253 623 253 623 247.5 606.5 c 0,114,115
 236 572 236 572 237 564.5 c 128,-1,116
 238 557 238 557 233.5 551.5 c 128,-1,117
 229 546 229 546 227 540 c 0,118,119
 224.857142857 533.571428571 224.857142857 533.571428571 221.428571429 506.785714286 c 128,-1,120
 218 480 218 480 210 472 c 1,121,-1
 211 467 l 2,122,123
 211 463 211 463 209 459.5 c 128,-1,124
 207 456 207 456 205 451.5 c 128,-1,125
 203 447 203 447 202 441.5 c 128,-1,126
 201 436 201 436 199.5 432.5 c 128,-1,127
 198 429 198 429 196.5 428 c 128,-1,128
 195 427 195 427 192.5 423.5 c 128,-1,129
 190 420 190 420 189.5 414 c 128,-1,130
 189 408 189 408 184 403 c 1,131,132
 182 398 182 398 182 393.5 c 128,-1,133
 182 389 182 389 178 383.5 c 128,-1,134
 174 378 174 378 176 368 c 1,135,136
 172 366 172 366 171 361 c 128,-1,137
 170 356 170 356 166 354 c 1,138,139
 165 347 165 347 164.5 340 c 128,-1,140
 164 333 164 333 161.5 325.5 c 128,-1,141
 159 318 159 318 154.5 313.5 c 128,-1,142
 150 309 150 309 152 299 c 1,143,144
 145 297 145 297 144.5 289.5 c 128,-1,145
 144 282 144 282 136 280 c 1,146,-1
 137 278 l 1,147,148
 137 272 137 272 134.5 268.5 c 128,-1,149
 132 265 132 265 133 259 c 1,150,151
 128 257 128 257 127 251 c 128,-1,152
 126 245 126 245 121 242 c 1,153,154
 119 225 119 225 113.5 216 c 128,-1,155
 108 207 108 207 106.5 203.5 c 128,-1,156
 105 200 105 200 106 194 c 128,-1,157
 107 188 107 188 105 183 c 1,158,-1
 101 179 l 1,159,160
 98 169 98 169 93.5 160 c 128,-1,161
 89 151 89 151 87 139 c 1,162,163
 90 135 90 135 100 135 c 128,-1,164
 110 135 110 135 121 139 c 128,-1,165
 132 143 132 143 141 145 c 128,-1,166
 150 147 150 147 156.5 146 c 128,-1,167
 163 145 163 145 168.5 147.5 c 128,-1,168
 174 150 174 150 179 152 c 128,-1,169
 184 154 184 154 191 156 c 128,-1,170
 198 158 198 158 211 158.5 c 128,-1,171
 224 159 224 159 227.5 164.5 c 128,-1,172
 231 170 231 170 231 174 c 2,173,-1
 231 183 l 2,174,175
 231 207 231 207 232 232 c 128,-1,176
 233 257 233 257 231 282 c 1,177,178
 229 286 229 286 229 289 c 2,179,-1
 231 295 l 1,180,-1
 228 330 l 1,181,-1
 233 359 l 1,182,-1
 231 370 l 1,183,-1
 231 384 l 2,184,185
 231 390 231 390 233 397 c 2,186,-1
 236 416 l 1,187,-1
 233 444 l 1,188,-1
 237 458 l 1,189,-1
 234 470 l 1,190,-1
 236 480 l 1,191,192
 236 497 236 497 240 507 c 1,193,194
 244 508 244 508 247.5 509.5 c 128,-1,195
 251 511 251 511 258.5 511 c 128,-1,196
 266 511 266 511 270 502 c 0,197,198
 281 474 281 474 280.5 471 c 128,-1,199
 280 468 280 468 280 465 c 2,200,-1
 285 434 l 1,201,-1
 283 427 l 1,202,-1
 285 409 l 1,203,-1
 283 382 l 1,204,-1
 285 366 l 1,205,-1
 282 346 l 1,206,-1
 283 331 l 1,207,-1
 282 318 l 1,0,1
EndSplineSet
EndChar

StartChar: five
Encoding: 53 53 24
Width: 372
Flags: HW
LayerCount: 2
Fore
SplineSet
91 31 m 2,0,-1
 91 37 l 1,1,-1
 87 39 l 1,2,3
 84 52 84 52 79.5 56.5 c 128,-1,4
 75 61 75 61 72.5 65.5 c 128,-1,5
 70 70 70 70 70.5 73.5 c 128,-1,6
 71 77 71 77 67 82 c 128,-1,7
 63 87 63 87 63 91 c 2,8,-1
 65 99 l 1,9,-1
 63 109 l 1,10,11
 63 117 63 117 69 127.5 c 128,-1,12
 75 138 75 138 77 146 c 1,13,14
 83 152 83 152 88 156.5 c 128,-1,15
 93 161 93 161 96 167 c 1,16,17
 109 170 109 170 121 173.5 c 128,-1,18
 133 177 133 177 146 177 c 1,19,-1
 155 176 l 1,20,21
 160 171 160 171 162 169.5 c 128,-1,22
 164 168 164 168 165.5 166.5 c 128,-1,23
 167 165 167 165 171 157.5 c 128,-1,24
 175 150 175 150 176 148.5 c 128,-1,25
 177 147 177 147 177 139.5 c 128,-1,26
 177 132 177 132 162 114 c 1,27,28
 147 114 147 114 140 119 c 1,29,-1
 140 121 l 2,30,31
 140 131 140 131 128.5 131 c 128,-1,32
 117 131 117 131 108 125 c 128,-1,33
 99 119 99 119 99 112 c 2,34,-1
 100 97 l 2,35,36
 100 91 100 91 98 88 c 1,37,38
 103 78 103 78 107 68 c 128,-1,39
 111 58 111 58 117 48 c 1,40,41
 128 45 128 45 137 40.5 c 128,-1,42
 146 36 146 36 164 36 c 128,-1,43
 182 36 182 36 209 48 c 1,44,45
 215 52 215 52 221 58.5 c 128,-1,46
 227 65 227 65 234 67 c 1,47,48
 241 79 241 79 252 86 c 1,49,50
 252 97 252 97 258.5 105.5 c 128,-1,51
 265 114 265 114 265 121.5 c 128,-1,52
 265 129 265 129 267.5 132 c 128,-1,53
 270 135 270 135 271 138 c 128,-1,54
 272 141 272 141 271.5 144 c 128,-1,55
 271 147 271 147 271 151 c 2,56,-1
 273 165 l 1,57,-1
 269 176 l 1,58,-1
 271 187 l 1,59,-1
 266 202 l 1,60,-1
 268 211 l 1,61,62
 268 219 268 219 262 231 c 1,63,-1
 258 233 l 1,64,65
 256 237 256 237 257 241.5 c 128,-1,66
 258 246 258 246 256 249.5 c 128,-1,67
 254 253 254 253 252 255.5 c 0,68,69
 242 268 242 268 239.5 275 c 0,70,71
 230.181818182 301.090909091 230.181818182 301.090909091 213.590909091 311.545454545 c 128,-1,72
 197 322 197 322 187.5 322 c 128,-1,73
 178 322 178 322 173 314 c 1,74,-1
 169 314 l 1,75,-1
 153 306 l 1,76,-1
 151 302 l 1,77,-1
 146 302 l 2,78,79
 143 302 143 302 140 296 c 1,80,81
 132 290 132 290 132 286 c 128,-1,82
 132 282 132 282 125.5 272.5 c 128,-1,83
 119 263 119 263 117 256.5 c 128,-1,84
 115 250 115 250 115 241 c 128,-1,85
 115 232 115 232 114 229 c 1,86,87
 108 224 108 224 104.5 220 c 128,-1,88
 101 216 101 216 93 214 c 1,89,90
 88 209 88 209 82.5 209 c 0,91,92
 72.2 209 72.2 209 67.6 221.5 c 128,-1,93
 63 234 63 234 63 245 c 1,94,-1
 67 262 l 1,95,-1
 67 265 l 1,96,97
 65 265 65 265 65 266 c 2,98,-1
 67 274 l 1,99,-1
 66 289 l 2,100,101
 66 295 66 295 69 296 c 1,102,103
 65 303 65 303 65 312 c 2,104,-1
 69 351 l 1,105,-1
 67 389 l 1,106,-1
 69 398 l 1,107,-1
 67 409 l 1,108,-1
 69 418 l 1,109,-1
 67 445 l 1,110,-1
 67 467 l 1,111,-1
 60 587 l 2,112,113
 60 603 60 603 63 618 c 1,114,115
 70 625 70 625 82 625 c 128,-1,116
 94 625 94 625 102.5 622.5 c 128,-1,117
 111 620 111 620 122 618.5 c 128,-1,118
 133 617 133 617 144.5 617.5 c 128,-1,119
 156 618 156 618 170 618 c 1,120,-1
 181 616 l 1,121,-1
 191 618 l 1,122,-1
 194 616 l 1,123,124
 199 621 199 621 217 621 c 2,125,-1
 236 621 l 1,126,-1
 246 618 l 2,127,128
 249 618 249 618 252 620 c 128,-1,129
 255 622 255 622 261 623.5 c 128,-1,130
 267 625 267 625 276 624 c 128,-1,131
 285 623 285 623 295 625 c 1,132,133
 296 618 296 618 302 616.5 c 128,-1,134
 308 615 308 615 308 605.5 c 128,-1,135
 308 596 308 596 303 584 c 1,136,137
 292 575 292 575 276.5 576.5 c 128,-1,138
 261 578 261 578 248 578 c 2,139,-1
 246 578 l 1,140,-1
 243 573 l 1,141,142
 241 572 241 572 238.5 572.5 c 128,-1,143
 236 573 236 573 234 573 c 2,144,-1
 213 567 l 1,145,-1
 199 569 l 1,146,-1
 173 563 l 1,147,-1
 145 568 l 1,148,-1
 132.5 568 l 2,149,150
 127 568 127 568 124 569 c 1,151,152
 117 566 117 566 117 546 c 2,153,-1
 117 542 l 1,154,-1
 118 542 l 1,155,-1
 119 541 l 1,156,-1
 117 530 l 1,157,-1
 124 480 l 1,158,-1
 124 462 l 1,159,-1
 123 383 l 1,160,-1
 123 362 l 2,161,162
 123 352 123 352 124 341 c 1,163,-1
 129 341 l 2,164,165
 140 341 140 341 150.5 347 c 128,-1,166
 161 353 161 353 172 353 c 2,167,-1
 173 353 l 1,168,-1
 175 357 l 1,169,170
 177 358 177 358 179.5 357.5 c 128,-1,171
 182 357 182 357 185 357 c 128,-1,172
 188 357 188 357 189 358.5 c 0,173,174
 191.333333333 362 191.333333333 362 201 362 c 2,175,-1
 210 362 l 2,176,177
 230 362 230 362 261 333 c 0,178,179
 269 326 269 326 277 322 c 1,180,181
 282 309 282 309 292 299.5 c 128,-1,182
 302 290 302 290 306.5 282.5 c 128,-1,183
 311 275 311 275 312 271.5 c 128,-1,184
 313 268 313 268 314.5 265.5 c 128,-1,185
 316 263 316 263 317.5 262 c 128,-1,186
 319 261 319 261 320.5 259 c 128,-1,187
 322 257 322 257 321.5 255 c 128,-1,188
 321 253 321 253 322.5 250.5 c 128,-1,189
 324 248 324 248 327 245.5 c 0,190,191
 333 240.5 333 240.5 332.5 228.25 c 128,-1,192
 332 216 332 216 335.5 208.5 c 128,-1,193
 339 201 339 201 339 197 c 128,-1,194
 339 193 339 193 337.5 189 c 128,-1,195
 336 185 336 185 334.5 179 c 128,-1,196
 333 173 333 173 334 163.5 c 128,-1,197
 335 154 335 154 333 145.5 c 128,-1,198
 331 137 331 137 328 131.5 c 128,-1,199
 325 126 325 126 323 121.5 c 128,-1,200
 321 117 321 117 321 114.5 c 128,-1,201
 321 112 321 112 319.5 108.5 c 128,-1,202
 318 105 318 105 313.5 102.5 c 128,-1,203
 309 100 309 100 307 96.5 c 128,-1,204
 305 93 305 93 305 90.5 c 128,-1,205
 305 88 305 88 301.5 81.5 c 128,-1,206
 298 75 298 75 288.5 67.5 c 128,-1,207
 279 60 279 60 273 50 c 1,208,209
 270 49 270 49 266.5 48.5 c 128,-1,210
 263 48 263 48 260 46 c 1,211,212
 257 47 257 47 257.5 44.5 c 128,-1,213
 258 42 258 42 256 40.5 c 128,-1,214
 254 39 254 39 252 39.5 c 128,-1,215
 250 40 250 40 246 37.5 c 128,-1,216
 242 35 242 35 239.5 30.5 c 128,-1,217
 237 26 237 26 232 20 c 1,218,219
 222 19 222 19 213.5 13.5 c 128,-1,220
 205 8 205 8 197 8 c 2,221,-1
 185.5 8 l 2,222,223
 182 8 182 8 179 3.5 c 128,-1,224
 176 -1 176 -1 153 -1 c 128,-1,225
 130 -1 130 -1 114 9 c 0,226,227
 112 10 112 10 111 11.5 c 128,-1,228
 110 13 110 13 108 14.5 c 128,-1,229
 106 16 106 16 104 15.5 c 128,-1,230
 102 15 102 15 100.5 16 c 128,-1,231
 99 17 99 17 98.5 20.5 c 128,-1,232
 98 24 98 24 96.5 25.5 c 128,-1,233
 95 27 95 27 93 28 c 128,-1,234
 91 29 91 29 91 31 c 2,0,-1
EndSplineSet
EndChar

StartChar: six
Encoding: 54 54 25
Width: 446
Flags: HW
LayerCount: 2
Fore
SplineSet
134 180 m 2,0,1
 134 156 134 156 149.5 156 c 0,2,3
 160 156 160 156 162 162.5 c 128,-1,4
 164 169 164 169 168 175 c 1,5,-1
 171 177 l 1,6,7
 177 190 177 190 194 202.5 c 128,-1,8
 211 215 211 215 215.5 220.5 c 128,-1,9
 220 226 220 226 225.5 226 c 128,-1,10
 231 226 231 226 234.5 227.5 c 128,-1,11
 238 229 238 229 240.5 230.5 c 0,12,13
 249.764705882 236.058823529 249.764705882 236.058823529 255.382352941 234.529411765 c 128,-1,14
 261 233 261 233 264.5 236.5 c 128,-1,15
 268 240 268 240 273.5 240 c 0,16,17
 281.666666667 240 281.666666667 240 306.333333333 220.5 c 128,-1,18
 331 201 331 201 331 195.5 c 128,-1,19
 331 190 331 190 332.5 188 c 128,-1,20
 334 186 334 186 336 185.5 c 128,-1,21
 338 185 338 185 339.5 181.5 c 128,-1,22
 341 178 341 178 341.5 171.5 c 128,-1,23
 342 165 342 165 344 159.5 c 128,-1,24
 346 154 346 154 352 141.5 c 128,-1,25
 358 129 358 129 358 124 c 1,26,-1
 356 118 l 1,27,-1
 358 100 l 1,28,-1
 358 94 l 1,29,30
 356 94 356 94 356 92 c 2,31,-1
 356 90 l 2,32,33
 356 86 356 86 352.5 85.5 c 128,-1,34
 349 85 349 85 347.5 80.5 c 128,-1,35
 346 76 346 76 345.5 72 c 128,-1,36
 345 68 345 68 344 62 c 1,37,38
 334 60 334 60 330 52.5 c 128,-1,39
 326 45 326 45 321 37 c 1,40,41
 312 37 312 37 308.5 32 c 128,-1,42
 305 27 305 27 303 19 c 1,43,44
 287 16 287 16 275 2 c 1,45,-1
 259 2 l 1,46,-1
 239 6 l 1,47,48
 229 6 229 6 221 2.5 c 128,-1,49
 213 -1 213 -1 205 -1 c 2,50,-1
 183 0 l 2,51,52
 178 0 178 0 177 3 c 128,-1,53
 176 6 176 6 171 8 c 1,54,55
 170 10 170 10 168 9 c 128,-1,56
 166 8 166 8 164 8 c 256,57,58
 162 8 162 8 160 10 c 0,59,60
 147 18 147 18 132.5 36.5 c 128,-1,61
 118 55 118 55 110.5 63 c 128,-1,62
 103 71 103 71 101.5 75.5 c 128,-1,63
 100 80 100 80 97 85 c 1,64,-1
 89 94 l 1,65,66
 86 99 86 99 82 108 c 128,-1,67
 78 117 78 117 73.5 125.5 c 128,-1,68
 69 134 69 134 64.5 142.5 c 128,-1,69
 60 151 60 151 57 154 c 1,70,-1
 58 159 l 1,71,72
 58 169 58 169 52 182 c 128,-1,73
 46 195 46 195 46 214 c 1,74,-1
 48 226 l 1,75,-1
 43 268 l 1,76,77
 43 289 43 289 49 314 c 128,-1,78
 55 339 55 339 57 343.5 c 128,-1,79
 59 348 59 348 59 351.5 c 128,-1,80
 59 355 59 355 60.5 358 c 128,-1,81
 62 361 62 361 64.5 363.5 c 0,82,83
 70 369 70 369 70 381 c 128,-1,84
 70 393 70 393 76 402 c 128,-1,85
 82 411 82 411 84.5 415.5 c 128,-1,86
 87 420 87 420 88 423.5 c 128,-1,87
 89 427 89 427 91 431 c 1,88,-1
 95 432 l 1,89,90
 101 446 101 446 110 458.5 c 128,-1,91
 119 471 119 471 126 485 c 1,92,93
 143 497 143 497 161.5 516.5 c 0,94,95
 194.67768595 551.47107438 194.67768595 551.47107438 205.838842975 555.23553719 c 128,-1,96
 217 559 217 559 217 563 c 128,-1,97
 217 567 217 567 220 567 c 128,-1,98
 223 567 223 567 227.5 570 c 128,-1,99
 232 573 232 573 241 579.5 c 128,-1,100
 250 586 250 586 255 587.5 c 128,-1,101
 260 589 260 589 262.5 588.5 c 128,-1,102
 265 588 265 588 269 588 c 128,-1,103
 273 588 273 588 280 592 c 128,-1,104
 287 596 287 596 294 596 c 1,105,-1
 306 594 l 1,106,-1
 319 594 l 2,107,108
 335 594 335 594 343 587.5 c 128,-1,109
 351 581 351 581 362 582 c 1,110,111
 369 577 369 577 379 572 c 128,-1,112
 389 567 389 567 400 561 c 0,113,114
 426 547 426 547 426 532 c 0,115,116
 426 527 426 527 420.5 522 c 128,-1,117
 415 517 415 517 409 517 c 128,-1,118
 403 517 403 517 400 523 c 128,-1,119
 397 529 397 529 392 532.5 c 128,-1,120
 387 536 387 536 386 535 c 128,-1,121
 385 534 385 534 381 537.5 c 128,-1,122
 377 541 377 541 373.5 540 c 128,-1,123
 370 539 370 539 365.5 541 c 128,-1,124
 361 543 361 543 357 547 c 128,-1,125
 353 551 353 551 348 553 c 1,126,-1
 345 552 l 1,127,128
 332 552 332 552 323.5 557 c 128,-1,129
 315 562 315 562 311 562 c 128,-1,130
 307 562 307 562 303 560 c 1,131,-1
 294 561 l 2,132,133
 286 561 286 561 282 554 c 1,134,-1
 277 555 l 1,135,136
 271 555 271 555 265 553 c 128,-1,137
 259 551 259 551 252 553 c 1,138,139
 244 547 244 547 237.5 537.5 c 128,-1,140
 231 528 231 528 220 525 c 1,141,142
 211 507 211 507 205 504 c 1,143,-1
 201 504 l 1,144,145
 196 490 196 490 183.5 476 c 128,-1,146
 171 462 171 462 168 462 c 1,147,148
 165 457 165 457 166 453 c 1,149,150
 161 453 161 453 161 448 c 0,151,152
 160 443 160 443 156 440 c 128,-1,153
 152 437 152 437 149 434 c 1,154,155
 146 426 146 426 146 409 c 1,156,157
 141 409 141 409 141.5 403 c 128,-1,158
 142 397 142 397 137.5 393.5 c 128,-1,159
 133 390 133 390 132 387.5 c 128,-1,160
 131 385 131 385 131.5 384 c 128,-1,161
 132 383 132 383 132 381 c 2,162,-1
 132 380 l 1,163,-1
 128 376 l 1,164,165
 126 367 126 367 126 357 c 128,-1,166
 126 347 126 347 124 338.5 c 128,-1,167
 122 330 122 330 119.5 321 c 128,-1,168
 117 312 117 312 117 302.5 c 128,-1,169
 117 293 117 293 118 286 c 128,-1,170
 119 279 119 279 118.5 269 c 0,171,172
 116.195121951 222.902439024 116.195121951 222.902439024 126 218 c 1,173,-1
 126 215 l 2,174,175
 126 201 126 201 134 184 c 1,176,-1
 134 180 l 2,0,1
329 101 m 1,177,-1
 326 123 l 2,178,179
 326 128 326 128 327 130 c 1,180,181
 319 139 319 139 316 150 c 128,-1,182
 313 161 313 161 309.5 167 c 128,-1,183
 306 173 306 173 296.5 179.5 c 128,-1,184
 287 186 287 186 280.5 190.5 c 128,-1,185
 274 195 274 195 265 195 c 128,-1,186
 256 195 256 195 249.5 192.5 c 128,-1,187
 243 190 243 190 237 188 c 1,188,189
 232 182 232 182 228.5 176 c 128,-1,190
 225 170 225 170 219 167 c 1,191,-1
 219 166 l 2,192,193
 219 160 219 160 216 157.5 c 128,-1,194
 213 155 213 155 211 150 c 1,195,-1
 211 137 l 1,196,197
 203 128 203 128 201.5 120.5 c 128,-1,198
 200 113 200 113 200 96.5 c 128,-1,199
 200 80 200 80 206.5 70 c 128,-1,200
 213 60 213 60 213 54.5 c 128,-1,201
 213 49 213 49 215 47 c 1,202,203
 220 45 220 45 220.5 42.5 c 128,-1,204
 221 40 221 40 228 41 c 1,205,206
 232 40 232 40 234 36.5 c 128,-1,207
 236 33 236 33 239.5 34.5 c 128,-1,208
 243 36 243 36 249.5 35.5 c 128,-1,209
 256 35 256 35 260 35 c 2,210,-1
 264 36 l 1,211,212
 276 48 276 48 294 51 c 1,213,214
 303 66 303 66 313 69 c 1,215,216
 315 73 315 73 316 80.5 c 128,-1,217
 317 88 317 88 323 90.5 c 128,-1,218
 329 93 329 93 329 101 c 1,177,-1
EndSplineSet
EndChar

StartChar: seven
Encoding: 55 55 26
Width: 398
Flags: HW
LayerCount: 2
Fore
SplineSet
103 386 m 1,0,1
 108 402 108 402 133 402 c 128,-1,2
 158 402 158 402 173 397.5 c 128,-1,3
 188 393 188 393 203 393 c 2,4,-1
 209 393 l 1,5,6
 211 394 211 394 214.5 401 c 2,7,-1
 222 416 l 2,8,9
 235 441 235 441 234.5 443.5 c 128,-1,10
 234 446 234 446 235.5 448.5 c 128,-1,11
 237 451 237 451 238.5 452 c 128,-1,12
 240 453 240 453 244.5 459.5 c 128,-1,13
 249 466 249 466 252 479 c 128,-1,14
 255 492 255 492 266 502 c 1,15,16
 269 512 269 512 274.5 520.5 c 128,-1,17
 280 529 280 529 283 535 c 128,-1,18
 286 541 286 541 286.5 544 c 128,-1,19
 287 547 287 547 290 549 c 1,20,-1
 295 556 l 2,21,22
 297 558 297 558 298.5 557.5 c 128,-1,23
 300 557 300 557 301 558 c 0,24,25
 302 560 302 560 301.5 560.5 c 128,-1,26
 301 561 301 561 301 563 c 256,27,28
 301 565 301 565 304 566 c 128,-1,29
 307 567 307 567 307 570 c 0,30,31
 307 577 307 577 298.5 577 c 128,-1,32
 290 577 290 577 283 568 c 1,33,34
 278 570 278 570 274 570 c 2,35,-1
 264 570 l 2,36,37
 256 570 256 570 254 566 c 128,-1,38
 252 562 252 562 246.5 562 c 128,-1,39
 241 562 241 562 236 565 c 128,-1,40
 231 568 231 568 226 570 c 1,41,42
 218 568 218 568 215.5 563 c 128,-1,43
 213 558 213 558 200 558 c 1,44,-1
 168 562 l 2,45,46
 165 562 165 562 153 554 c 1,47,48
 140 558 140 558 127 558 c 128,-1,49
 114 558 114 558 101 558 c 2,50,-1
 63 560 l 2,51,52
 54 561 54 561 47.5 564.5 c 128,-1,53
 41 568 41 568 27 566 c 1,54,55
 22 572 22 572 17 577.5 c 128,-1,56
 12 583 12 583 12 588.5 c 128,-1,57
 12 594 12 594 14 600 c 1,58,59
 22 605 22 605 32 605 c 2,60,-1
 51 605 l 1,61,-1
 60 607 l 2,62,63
 61 607 61 607 69.5 603.5 c 128,-1,64
 78 600 78 600 106 600 c 1,65,-1
 128 602 l 1,66,-1
 152 598 l 1,67,-1
 180 600 l 1,68,-1
 198 598 l 2,69,70
 202 598 202 598 206.5 599.5 c 128,-1,71
 211 601 211 601 220 602.5 c 128,-1,72
 229 604 229 604 244 603.5 c 128,-1,73
 259 603 259 603 296 608 c 128,-1,74
 333 613 333 613 362 613 c 2,75,-1
 373 613 l 1,76,77
 377 608 377 608 381.5 606 c 128,-1,78
 386 604 386 604 386 596.5 c 128,-1,79
 386 589 386 589 376.5 584.5 c 128,-1,80
 367 580 367 580 360 577 c 1,81,82
 355 567 355 567 348 561 c 128,-1,83
 341 555 341 555 337 548 c 128,-1,84
 333 541 333 541 331.5 534.5 c 128,-1,85
 330 528 330 528 327 521.5 c 128,-1,86
 324 515 324 515 318.5 506.5 c 128,-1,87
 313 498 313 498 308 485.5 c 128,-1,88
 303 473 303 473 299.5 458.5 c 128,-1,89
 296 444 296 444 287 432 c 1,90,-1
 287 419 l 1,91,92
 277 409 277 409 271 383 c 1,93,94
 280 371 280 371 330 371 c 2,95,-1
 340 371 l 2,96,97
 343 371 343 371 348 372 c 1,98,99
 353 369 353 369 356 364 c 128,-1,100
 359 359 359 359 362 354 c 1,101,102
 361 349 361 349 356.5 346.5 c 128,-1,103
 352 344 352 344 349 338 c 128,-1,104
 346 332 346 332 334 332 c 256,105,106
 322 332 322 332 315 338 c 1,107,-1
 311 338 l 1,108,-1
 278 343 l 1,109,110
 262.888888889 343 262.888888889 343 254 327 c 0,111,112
 252 325 252 325 252 321.5 c 0,113,114
 252 315.5 252 315.5 246.5 312.75 c 128,-1,115
 241 310 241 310 242.5 307 c 128,-1,116
 244 304 244 304 244 302 c 0,117,118
 238 291 238 291 239 286.5 c 128,-1,119
 240 282 240 282 238 277 c 128,-1,120
 236 272 236 272 233 269 c 128,-1,121
 230 266 230 266 228 261 c 1,122,-1
 226 250 l 2,123,124
 223 233 223 233 215 218.5 c 128,-1,125
 207 204 207 204 207 186 c 1,126,127
 195 175 195 175 181.5 132.5 c 128,-1,128
 168 90 168 90 162 85 c 1,129,-1
 162 82 l 2,130,131
 162 79 162 79 160 73 c 128,-1,132
 158 67 158 67 157 63.5 c 128,-1,133
 156 60 156 60 154 57 c 128,-1,134
 152 54 152 54 152.5 51 c 128,-1,135
 153 48 153 48 153 43.5 c 128,-1,136
 153 39 153 39 146.5 34 c 128,-1,137
 140 29 140 29 142 19 c 1,138,139
 137 15 137 15 135 8 c 128,-1,140
 133 1 133 1 130 -4 c 1,141,142
 117 -9 117 -9 87 -12 c 1,143,144
 77 -2 77 -2 77 15.5 c 128,-1,145
 77 33 77 33 91 47 c 1,146,147
 96 54 96 54 97 69.5 c 128,-1,148
 98 85 98 85 106 94 c 1,149,150
 108 101 108 101 109.5 109 c 128,-1,151
 111 117 111 117 114 124 c 1,152,-1
 118 126 l 2,153,154
 120 128 120 128 119 131.5 c 128,-1,155
 118 135 118 135 126.5 154 c 128,-1,156
 135 173 135 173 134 188 c 1,157,158
 137 194 137 194 141 198 c 128,-1,159
 145 202 145 202 147 205.5 c 128,-1,160
 149 209 149 209 148.5 212 c 128,-1,161
 148 215 148 215 150 221 c 128,-1,162
 152 227 152 227 156 236.5 c 128,-1,163
 160 246 160 246 163 254.5 c 128,-1,164
 166 263 166 263 167.5 270.5 c 128,-1,165
 169 278 169 278 173 291 c 128,-1,166
 177 304 177 304 185 322 c 128,-1,167
 193 340 193 340 196 359 c 1,168,169
 192 368 192 368 183.5 367 c 128,-1,170
 175 366 175 366 155.5 366 c 128,-1,171
 136 366 136 366 108 372 c 1,172,-1
 103 386 l 1,0,1
EndSplineSet
EndChar

StartChar: eight
Encoding: 56 56 27
Width: 432
Flags: HW
LayerCount: 2
Fore
SplineSet
206 39 m 1,0,-1
 185 34 l 1,1,2
 179 34 179 34 174 38 c 128,-1,3
 169 42 169 42 162 43 c 1,4,-1
 156 42 l 1,5,-1
 154 43 l 1,6,7
 147 50 147 50 143 50.5 c 128,-1,8
 139 51 139 51 133 54 c 128,-1,9
 127 57 127 57 123.5 61.5 c 128,-1,10
 120 66 120 66 116 66 c 128,-1,11
 112 66 112 66 111 65 c 1,12,13
 106 71 106 71 101.5 76 c 128,-1,14
 97 81 97 81 94 86 c 1,15,16
 89 90 89 90 87 94 c 1,17,-1
 83 96 l 1,18,-1
 83 100 l 1,19,20
 80 103 80 103 76.5 103 c 128,-1,21
 73 103 73 103 69 111.5 c 128,-1,22
 65 120 65 120 60 131 c 128,-1,23
 55 142 55 142 49 154 c 1,24,-1
 49 161 l 1,25,-1
 43 249 l 1,26,27
 43 301 43 301 50.5 308.5 c 128,-1,28
 58 316 58 316 56.5 321.5 c 0,29,30
 54.3571428571 329.357142857 54.3571428571 329.357142857 63 338 c 1,31,-1
 67 348 l 1,32,33
 69 350 69 350 69.5 350 c 128,-1,34
 70 350 70 350 72.5 356 c 128,-1,35
 75 362 75 362 79 370 c 128,-1,36
 83 378 83 378 91.5 383 c 128,-1,37
 100 388 100 388 104 392.5 c 128,-1,38
 108 397 108 397 110 401.5 c 128,-1,39
 112 406 112 406 117 413 c 128,-1,40
 122 420 122 420 133 427.5 c 128,-1,41
 144 435 144 435 149 446 c 1,42,43
 146 450 146 450 145.5 454.5 c 128,-1,44
 145 459 145 459 143 462 c 1,45,46
 129 468 129 468 123 512 c 0,47,48
 121 522 121 522 121 530 c 0,49,50
 121 562 121 562 137 576 c 0,51,52
 141 579 141 579 139 584 c 1,53,54
 147 588 147 588 152.5 594.5 c 128,-1,55
 158 601 158 601 167 603 c 1,56,57
 169 608 169 608 172.5 610 c 128,-1,58
 176 612 176 612 186 622 c 128,-1,59
 196 632 196 632 209 632 c 128,-1,60
 222 632 222 632 230 630 c 128,-1,61
 238 628 238 628 242 626 c 128,-1,62
 246 624 246 624 248 624 c 256,63,64
 250 624 250 624 250 624.5 c 128,-1,65
 250 625 250 625 252 626 c 1,66,-1
 260 625 l 2,67,68
 263 625 263 625 265 626 c 1,69,70
 273 622 273 622 283 617.5 c 128,-1,71
 293 613 293 613 299 607 c 1,72,-1
 301 603 l 1,73,-1
 306 604 l 2,74,75
 309 604 309 604 319 591.5 c 128,-1,76
 329 579 329 579 335 568 c 1,77,-1
 334 563 l 2,78,79
 334 562 334 562 341 553.5 c 128,-1,80
 348 545 348 545 348 532 c 1,81,-1
 352 521 l 1,82,83
 348 509 348 509 348 498.5 c 128,-1,84
 348 488 348 488 350 483 c 1,85,86
 333 458 333 458 309 440 c 1,87,88
 312 437 312 437 313 432.5 c 128,-1,89
 314 428 314 428 316 425.5 c 128,-1,90
 318 423 318 423 320.5 423 c 128,-1,91
 323 423 323 423 325 421 c 256,92,93
 327 419 327 419 326 417 c 128,-1,94
 325 415 325 415 327 412.5 c 128,-1,95
 329 410 329 410 332.5 407 c 128,-1,96
 336 404 336 404 338 401.5 c 128,-1,97
 340 399 340 399 340 397 c 128,-1,98
 340 395 340 395 342 393 c 256,99,100
 344 391 344 391 345.5 391 c 0,101,102
 348.333333333 391 348.333333333 391 352.166666667 380 c 128,-1,103
 356 369 356 369 362 360.5 c 128,-1,104
 368 352 368 352 367.5 347 c 0,105,106
 366.545454545 337.454545455 366.545454545 337.454545455 372.272727273 330.727272727 c 128,-1,107
 378 324 378 324 378 317.5 c 128,-1,108
 378 311 378 311 382 308 c 1,109,-1
 382 305 l 1,110,-1
 380 295 l 1,111,112
 391 279 391 279 391 265 c 128,-1,113
 391 251 391 251 388.5 241.5 c 128,-1,114
 386 232 386 232 383.5 223 c 128,-1,115
 381 214 381 214 378.5 206.5 c 128,-1,116
 376 199 376 199 376 196 c 2,117,-1
 378 188 l 1,118,119
 378 167 378 167 373 159.5 c 128,-1,120
 368 152 368 152 363 147 c 128,-1,121
 358 142 358 142 354.5 138 c 128,-1,122
 351 134 351 134 346 132 c 1,123,124
 343 123 343 123 337.5 116 c 128,-1,125
 332 109 332 109 329.5 103 c 128,-1,126
 327 97 327 97 327 94 c 128,-1,127
 327 91 327 91 325 88.5 c 128,-1,128
 323 86 323 86 315.5 81.5 c 128,-1,129
 308 77 308 77 303 71 c 1,130,131
 280 71 280 71 262 53 c 1,132,133
 247 50 247 50 243 45.5 c 128,-1,134
 239 41 239 41 233 39.5 c 128,-1,135
 227 38 227 38 220.5 38.5 c 128,-1,136
 214 39 214 39 206 39 c 1,0,-1
234 425 m 2,137,-1
 190 427 l 2,138,139
 188 427 188 427 188 425 c 1,140,141
 177 420 177 420 170 410 c 128,-1,142
 163 400 163 400 152 395 c 1,143,144
 149 381 149 381 141 374.5 c 128,-1,145
 133 368 133 368 126 356 c 1,146,147
 127 353 127 353 127 347 c 128,-1,148
 127 341 127 341 123.5 334 c 128,-1,149
 120 327 120 327 117.5 313.5 c 128,-1,150
 115 300 115 300 115 276 c 128,-1,151
 115 252 115 252 115.5 247 c 128,-1,152
 116 242 116 242 117 237.5 c 128,-1,153
 118 233 118 233 119.5 229 c 128,-1,154
 121 225 121 225 122.5 214.5 c 128,-1,155
 124 204 124 204 123.5 188 c 128,-1,156
 123 172 123 172 125 163 c 0,157,158
 127.571428571 151.428571429 127.571428571 151.428571429 141.785714286 121.214285714 c 128,-1,159
 156 91 156 91 164 85 c 0,160,161
 179 75 179 75 210.5 75 c 128,-1,162
 242 75 242 75 275 94 c 1,163,-1
 284 100 l 2,164,165
 288 102 288 102 295 104.5 c 128,-1,166
 302 107 302 107 309 121 c 128,-1,167
 316 135 316 135 314 139 c 1,168,169
 323 146 323 146 330 154 c 128,-1,170
 337 162 337 162 344.5 169.5 c 128,-1,171
 352 177 352 177 352 210 c 1,172,173
 357 215 357 215 356.5 220 c 128,-1,174
 356 225 356 225 357.5 228.5 c 128,-1,175
 359 232 359 232 360.5 232.5 c 128,-1,176
 362 233 362 233 364.5 236 c 128,-1,177
 367 239 367 239 367 251.5 c 128,-1,178
 367 264 367 264 362.5 271 c 128,-1,179
 358 278 358 278 356 286.5 c 128,-1,180
 354 295 354 295 353 303.5 c 128,-1,181
 352 312 352 312 350 321 c 1,182,183
 345 325 345 325 343.5 332 c 128,-1,184
 342 339 342 339 340 344 c 1,185,186
 332 352 332 352 323 368 c 1,187,-1
 323 372 l 1,188,-1
 318 374 l 1,189,190
 314 379 314 379 311.5 388.5 c 128,-1,191
 309 398 309 398 304 398.5 c 128,-1,192
 299 399 299 399 295 401.5 c 128,-1,193
 291 404 291 404 287 409.5 c 128,-1,194
 283 415 283 415 275 417 c 1,195,-1
 275 419 l 2,196,197
 275 423 275 423 271 424 c 128,-1,198
 267 425 267 425 265 427 c 1,199,200
 249 425 249 425 234 425 c 2,137,-1
210 467 m 2,201,-1
 243 472 l 1,202,203
 258 472 258 472 273 466 c 1,204,205
 295 475 295 475 311 478 c 1,206,207
 319 499 319 499 319 512 c 128,-1,208
 319 525 319 525 312 542 c 128,-1,209
 305 559 305 559 297 564 c 1,210,-1
 291 566 l 1,211,212
 289 568 289 568 287.5 570 c 128,-1,213
 286 572 286 572 283 574.5 c 128,-1,214
 280 577 280 577 275.5 579 c 128,-1,215
 271 581 271 581 269 586 c 1,216,-1
 264 586 l 2,217,218
 257 586 257 586 251.5 590 c 128,-1,219
 246 594 246 594 239 594 c 2,220,-1
 237 594 l 1,221,222
 222 585 222 585 213 586 c 1,223,224
 191 567 191 567 177 549 c 1,225,-1
 176 541 l 1,226,227
 176 531 176 531 179.5 522 c 128,-1,228
 183 513 183 513 181 504 c 1,229,230
 185 501 185 501 185.5 495.5 c 128,-1,231
 186 490 186 490 188 486.5 c 128,-1,232
 190 483 190 483 192 481.5 c 128,-1,233
 194 480 194 480 195.5 478 c 128,-1,234
 197 476 197 476 197 472 c 128,-1,235
 197 468 197 468 201 470 c 1,236,237
 205 467 205 467 210 467 c 2,201,-1
EndSplineSet
EndChar

StartChar: nine
Encoding: 57 57 28
Width: 413
Flags: HW
LayerCount: 2
Fore
SplineSet
365 318 m 1,0,-1
 367 305 l 1,1,-1
 361 259 l 1,2,3
 356 255 356 255 355.5 247 c 128,-1,4
 355 239 355 239 348 236 c 1,5,6
 350.352941176 230.117647059 350.352941176 230.117647059 347.176470588 211.058823529 c 128,-1,7
 344 192 344 192 342.5 188 c 128,-1,8
 341 184 341 184 334 178 c 128,-1,9
 327 172 327 172 331 161 c 1,10,11
 327 161 327 161 326.5 158 c 128,-1,12
 326 155 326 155 320 156 c 1,13,-1
 320 153 l 1,14,15
 321 145 321 145 316 139.5 c 128,-1,16
 311 134 311 134 309 128 c 1,17,18
 307 127 307 127 304 126.5 c 128,-1,19
 301 126 301 126 296 122.5 c 128,-1,20
 291 119 291 119 285.5 111 c 128,-1,21
 280 103 280 103 269 102 c 1,22,23
 265 100 265 100 263 95.5 c 128,-1,24
 261 91 261 91 258.5 88.5 c 128,-1,25
 256 86 256 86 255 86.5 c 0,26,27
 253.130434783 87.4347826087 253.130434783 87.4347826087 244 77 c 1,28,-1
 243 77 l 2,29,30
 235 77 235 77 232.5 74 c 128,-1,31
 230 71 230 71 226 67 c 1,32,-1
 222 68 l 1,33,34
 212 68 212 68 202 58 c 1,35,36
 200 58 200 58 199.5 60 c 128,-1,37
 199 62 199 62 196 62 c 1,38,39
 192 57 192 57 186 55.5 c 128,-1,40
 180 54 180 54 175 49 c 1,41,42
 173 50 173 50 167.5 50 c 128,-1,43
 162 50 162 50 156 47 c 1,44,45
 151 47 151 47 148 49.5 c 128,-1,46
 145 52 145 52 140.5 53 c 128,-1,47
 136 54 136 54 130.5 53 c 128,-1,48
 125 52 125 52 117.5 52 c 128,-1,49
 110 52 110 52 108 55 c 0,50,51
 101.764705882 64.3529411765 101.764705882 64.3529411765 90 62 c 1,52,53
 80 62 80 62 77.5 69.5 c 128,-1,54
 75 77 75 77 73 81 c 1,55,-1
 68 83 l 1,56,-1
 70 87 l 2,57,58
 70 89 70 89 67 90.5 c 128,-1,59
 64 92 64 92 62.5 95.5 c 128,-1,60
 61 99 61 99 61 105 c 128,-1,61
 61 111 61 111 59 117 c 128,-1,62
 57 123 57 123 52.5 128.5 c 128,-1,63
 48 134 48 134 48 140 c 128,-1,64
 48 146 48 146 51 150 c 1,65,-1
 56 151 l 1,66,67
 67 151 67 151 74 140.5 c 128,-1,68
 81 130 81 130 79 120 c 1,69,70
 81 114 81 114 85 110 c 128,-1,71
 89 106 89 106 89 98 c 1,72,73
 96 96 96 96 102.5 90.5 c 128,-1,74
 109 85 109 85 116 83 c 128,-1,75
 123 81 123 81 129 82 c 128,-1,76
 135 83 135 83 140 83 c 2,77,-1
 163 81 l 2,78,79
 172.142857143 81 172.142857143 81 193.571428571 91 c 128,-1,80
 215 101 215 101 219 104.5 c 128,-1,81
 223 108 223 108 226 112 c 128,-1,82
 229 116 229 116 233 119.5 c 128,-1,83
 237 123 237 123 242.5 126.5 c 128,-1,84
 248 130 248 130 249.5 132.5 c 128,-1,85
 251 135 251 135 251 136.5 c 128,-1,86
 251 138 251 138 254 141.5 c 128,-1,87
 257 145 257 145 260 153.5 c 128,-1,88
 263 162 263 162 266 166 c 128,-1,89
 269 170 269 170 270 178 c 128,-1,90
 271 186 271 186 273 191 c 128,-1,91
 275 196 275 196 278 199 c 128,-1,92
 281 202 281 202 284 207 c 1,93,94
 282 209 282 209 282 213 c 0,95,96
 282 218.5 282 218.5 287 239.75 c 128,-1,97
 292 261 292 261 297 265 c 1,98,-1
 303 325 l 1,99,-1
 299 342 l 1,100,-1
 301 354 l 1,101,-1
 296 390 l 1,102,103
 296 405 296 405 292 411.5 c 128,-1,104
 288 418 288 418 281 425 c 1,105,106
 255 396 255 396 248 382 c 1,107,-1
 247 382 l 2,108,109
 239 382 239 382 233.5 375.5 c 128,-1,110
 228 369 228 369 214 366 c 1,111,112
 210 364 210 364 203 360 c 128,-1,113
 196 356 196 356 192.5 356 c 2,114,-1
 186 356 l 2,115,116
 183 356 183 356 183 354.5 c 128,-1,117
 183 353 183 353 176 353 c 2,118,-1
 143 356 l 1,119,-1
 128 355 l 2,120,121
 117 355 117 355 113 360.5 c 128,-1,122
 109 366 109 366 104.5 368 c 128,-1,123
 100 370 100 370 95.5 369 c 128,-1,124
 91 368 91 368 88.5 370 c 128,-1,125
 86 372 86 372 84 375 c 128,-1,126
 82 378 82 378 79 378 c 1,127,128
 78 380 78 380 77.5 384.5 c 128,-1,129
 77 389 77 389 75 391.5 c 128,-1,130
 73 394 73 394 69 396.5 c 128,-1,131
 65 399 65 399 63.5 401.5 c 128,-1,132
 62 404 62 404 62 407.5 c 128,-1,133
 62 411 62 411 61 413 c 1,134,-1
 57 415 l 1,135,-1
 57 419 l 1,136,137
 52 429 52 429 52 436 c 2,138,-1
 52 451 l 2,139,140
 52 467 52 467 55 473.5 c 128,-1,141
 58 480 58 480 57 483.5 c 128,-1,142
 56 487 56 487 56 491.5 c 128,-1,143
 56 496 56 496 58.5 498.5 c 128,-1,144
 61 501 61 501 62.5 505 c 128,-1,145
 64 509 64 509 63.5 513 c 128,-1,146
 63 517 63 517 64 521 c 1,147,148
 66 523 66 523 68 524.5 c 128,-1,149
 70 526 70 526 71.5 528.5 c 128,-1,150
 73 531 73 531 72.5 534 c 0,151,152
 71.8571428571 537.857142857 71.8571428571 537.857142857 81 547 c 1,153,154
 84 556 84 556 92.5 565.5 c 128,-1,155
 101 575 101 575 108 577 c 1,156,157
 117 592 117 592 137 597.5 c 128,-1,158
 157 603 157 603 171 611 c 1,159,-1
 172 611 l 1,160,-1
 184 609 l 1,161,-1
 207 617 l 2,162,163
 209 617 209 617 209 615 c 1,164,165
 215 613 215 613 218.5 610 c 128,-1,166
 222 607 222 607 230 607 c 1,167,168
 232 602 232 602 237.5 600 c 128,-1,169
 243 598 243 598 248 596 c 1,170,171
 252 585 252 585 261 579 c 128,-1,172
 270 573 270 573 273 562 c 1,173,174
 275 562 275 562 275 560.5 c 128,-1,175
 275 559 275 559 276.5 558 c 128,-1,176
 278 557 278 557 279.5 557.5 c 128,-1,177
 281 558 281 558 283.5 556.5 c 128,-1,178
 286 555 286 555 286 552 c 128,-1,179
 286 549 286 549 289.5 544 c 128,-1,180
 293 539 293 539 299 533.5 c 128,-1,181
 305 528 305 528 307 517 c 1,182,183
 311 511 311 511 315.5 505.5 c 128,-1,184
 320 500 320 500 323.5 495 c 128,-1,185
 327 490 327 490 328 486.5 c 128,-1,186
 329 483 329 483 332 477.5 c 128,-1,187
 335 472 335 472 339.5 464.5 c 128,-1,188
 344 457 344 457 347 446.5 c 128,-1,189
 350 436 350 436 352.5 428 c 128,-1,190
 355 420 355 420 356 417.5 c 128,-1,191
 357 415 357 415 358 413.5 c 128,-1,192
 359 412 359 412 359 410 c 2,193,-1
 359 400 l 2,194,195
 359 395 359 395 360.5 392.5 c 0,196,197
 367 381.666666667 367 381.666666667 367 338 c 1,198,-1
 365 318 l 1,0,-1
173 391 m 1,199,-1
 184 389 l 1,200,-1
 185 389 l 1,201,-1
 188 393 l 1,202,203
 190 394 190 394 191 393.5 c 128,-1,204
 192 393 192 393 195 393 c 128,-1,205
 198 393 198 393 203.5 396.5 c 128,-1,206
 209 400 209 400 212.5 400.5 c 128,-1,207
 216 401 216 401 218 402.5 c 128,-1,208
 220 404 220 404 220 405.5 c 128,-1,209
 220 407 220 407 222 408 c 128,-1,210
 224 409 224 409 226 408.5 c 128,-1,211
 228 408 228 408 230 409.5 c 128,-1,212
 232 411 232 411 233.5 414 c 128,-1,213
 235 417 235 417 237 419 c 1,214,-1
 242 419 l 1,215,216
 250 424 250 424 249.5 427.5 c 128,-1,217
 249 431 249 431 252 436 c 1,218,-1
 256 438 l 2,219,220
 258 440 258 440 257.5 442.5 c 128,-1,221
 257 445 257 445 257 447.5 c 128,-1,222
 257 450 257 450 259.5 452 c 128,-1,223
 262 454 262 454 262.5 457 c 128,-1,224
 263 460 263 460 265 464 c 1,225,226
 261 471 261 471 257.5 472 c 128,-1,227
 254 473 254 473 254 486.5 c 128,-1,228
 254 500 254 500 242 519 c 1,229,230
 239 527 239 527 237.5 526 c 128,-1,231
 236 525 236 525 234 527 c 1,232,233
 222 556 222 556 216.5 560.5 c 128,-1,234
 211 565 211 565 209 567.5 c 128,-1,235
 207 570 207 570 205 574 c 128,-1,236
 203 578 203 578 199 579 c 1,237,238
 199 582 199 582 194.5 579.5 c 128,-1,239
 190 577 190 577 182 577 c 2,240,-1
 158 579 l 1,241,242
 152 574 152 574 150 569 c 128,-1,243
 148 564 148 564 143 560 c 1,244,245
 142 547 142 547 139 535.5 c 128,-1,246
 136 524 136 524 130.5 503 c 128,-1,247
 125 482 125 482 125 448.5 c 128,-1,248
 125 415 125 415 141 393 c 1,249,250
 149 389 149 389 157 390 c 128,-1,251
 165 391 165 391 173 391 c 1,199,-1
EndSplineSet
EndChar

StartChar: colon
Encoding: 58 58 29
Width: 243
Flags: HW
LayerCount: 2
Fore
SplineSet
94 369 m 1,0,1
 77 383 77 383 73 384 c 1,2,-1
 73 386 l 2,3,4
 73 391 73 391 68 392 c 1,5,6
 73 444 73 444 105 457 c 1,7,8
 114 455 114 455 119.5 453 c 128,-1,9
 125 451 125 451 133 451 c 1,10,11
 141 442 141 442 150 436 c 128,-1,12
 159 430 159 430 167 422 c 1,13,14
 168 419 168 419 168 413.5 c 128,-1,15
 168 408 168 408 166.5 403.5 c 128,-1,16
 165 399 165 399 167 392 c 1,17,18
 153 381 153 381 143 378 c 1,19,20
 141 374 141 374 137 372.5 c 128,-1,21
 133 371 133 371 130 369 c 1,22,-1
 94 369 l 1,0,1
171 83 m 2,23,24
 171 68 171 68 166.5 51.5 c 128,-1,25
 162 35 162 35 138.5 35 c 128,-1,26
 115 35 115 35 108.5 41.5 c 128,-1,27
 102 48 102 48 97.5 48.5 c 128,-1,28
 93 49 93 49 94 54 c 1,29,-1
 91 53 l 2,30,31
 88 53 88 53 84 55 c 1,32,33
 80 65 80 65 80 77 c 128,-1,34
 80 89 80 89 82 101 c 1,35,36
 91 106 91 106 102 115.5 c 128,-1,37
 113 125 113 125 119.5 125 c 128,-1,38
 126 125 126 125 131.5 122.5 c 128,-1,39
 137 120 137 120 142.5 116 c 128,-1,40
 148 112 148 112 153.5 108 c 0,41,42
 165.470588235 99.2941176471 165.470588235 99.2941176471 171 91 c 1,43,-1
 171 83 l 2,23,24
EndSplineSet
EndChar

StartChar: semicolon
Encoding: 59 59 30
Width: 244
Flags: HW
LayerCount: 2
Fore
SplineSet
129 119 m 1,0,-1
 159 87 l 1,1,-1
 159 75 l 2,2,3
 159 60 159 60 154 45 c 128,-1,4
 149 30 149 30 148 29 c 1,5,-1
 148 26 l 2,6,7
 148 -14 148 -14 125 -39 c 1,8,-1
 121 -39 l 1,9,10
 120 -40 120 -40 112.5 -51 c 128,-1,11
 105 -62 105 -62 105 -65 c 1,12,13
 87 -71 87 -71 83.5 -71 c 128,-1,14
 80 -71 80 -71 74 -69 c 1,15,16
 72 -60 72 -60 72 -55.5 c 0,17,18
 72 -49.7142857143 72 -49.7142857143 88.5 -22.3571428571 c 128,-1,19
 105 5 105 5 105 33 c 2,20,-1
 105 42 l 1,21,22
 103 46 103 46 99 46 c 2,23,-1
 92 46 l 2,24,25
 88 46 88 46 84 48 c 1,26,27
 82 55 82 55 74.5 58.5 c 128,-1,28
 67 62 67 62 67 70.5 c 128,-1,29
 67 79 67 79 70 84.5 c 128,-1,30
 73 90 73 90 74 95 c 1,31,32
 109 116 109 116 129 119 c 1,0,-1
103 435 m 1,33,-1
 106 434 l 2,34,35
 108 434 108 434 110.5 436 c 0,36,37
 116.75 441 116.75 441 129 441 c 2,38,-1
 143 441 l 2,39,40
 157 441 157 441 167.5 427 c 128,-1,41
 178 413 178 413 178 398.5 c 128,-1,42
 178 384 178 384 162 352 c 1,43,44
 151 351 151 351 141.5 348 c 128,-1,45
 132 345 132 345 118 345 c 128,-1,46
 104 345 104 345 97 354.5 c 128,-1,47
 90 364 90 364 78 371 c 1,48,49
 76 381 76 381 76 395 c 128,-1,50
 76 409 76 409 80 414 c 1,51,-1
 84 416 l 1,52,-1
 84 420 l 1,53,54
 88 425 88 425 94.5 427 c 128,-1,55
 101 429 101 429 103 435 c 1,33,-1
EndSplineSet
EndChar

StartChar: less
Encoding: 60 60 31
Width: 517
Flags: HW
LayerCount: 2
Fore
SplineSet
328 408 m 1,0,1
 337 414 337 414 348 414 c 1,2,3
 351 417 351 417 354.5 419 c 128,-1,4
 358 421 358 421 360 425 c 1,5,6
 368 427 368 427 373 431 c 128,-1,7
 378 435 378 435 386 439.5 c 128,-1,8
 394 444 394 444 404 448.5 c 128,-1,9
 414 453 414 453 421 456 c 128,-1,10
 428 459 428 459 429 458.5 c 128,-1,11
 430 458 430 458 435 463 c 1,12,13
 439 464 439 464 442.5 463.5 c 128,-1,14
 446 463 446 463 450 463 c 256,15,16
 454 463 454 463 460 465 c 1,17,18
 467 458 467 458 467 450 c 128,-1,19
 467 442 467 442 466 439 c 1,20,21
 457 436 457 436 450 437 c 1,22,23
 443 433 443 433 437.5 427.5 c 128,-1,24
 432 422 432 422 427.5 419.5 c 128,-1,25
 423 417 423 417 421.5 417 c 128,-1,26
 420 417 420 417 419 416 c 2,27,-1
 417 412 l 1,28,29
 409 406 409 406 400 401 c 128,-1,30
 391 396 391 396 384 388 c 1,31,32
 364 386 364 386 360 371 c 1,33,-1
 350 371 l 1,34,35
 343 367 343 367 341 356 c 1,36,-1
 330 356 l 1,37,38
 331 354 331 354 328.5 354 c 128,-1,39
 326 354 326 354 324.5 352.5 c 128,-1,40
 323 351 323 351 323.5 349.5 c 128,-1,41
 324 348 324 348 322 347 c 2,42,-1
 307 339 l 2,43,44
 294 332 294 332 280.5 321 c 128,-1,45
 267 310 267 310 258 306.5 c 128,-1,46
 249 303 249 303 245.5 304 c 128,-1,47
 242 305 242 305 236.5 303 c 128,-1,48
 231 301 231 301 226 296 c 128,-1,49
 221 291 221 291 213 292 c 1,50,51
 199 282 199 282 189 272.5 c 128,-1,52
 179 263 179 263 161 260 c 1,53,54
 154 251 154 251 140 247 c 1,55,56
 136 242 136 242 134 237 c 128,-1,57
 132 232 132 232 128 228 c 1,58,59
 123 227 123 227 118.5 227 c 128,-1,60
 114 227 114 227 110 225 c 1,61,-1
 110 222 l 2,62,63
 110 214 110 214 119.5 211 c 128,-1,64
 129 208 129 208 134 203 c 1,65,-1
 141 204 l 2,66,67
 143 204 143 204 150 200.5 c 128,-1,68
 157 197 157 197 163.5 195.5 c 128,-1,69
 170 194 170 194 178 194 c 128,-1,70
 186 194 186 194 191.5 192 c 128,-1,71
 197 190 197 190 199.5 187.5 c 128,-1,72
 202 185 202 185 206.5 183 c 128,-1,73
 211 181 211 181 215.5 181 c 128,-1,74
 220 181 220 181 224 179 c 2,75,-1
 238 172 l 2,76,77
 247 167 247 167 257.5 165.5 c 128,-1,78
 268 164 268 164 279.5 159 c 128,-1,79
 291 154 291 154 304.5 146 c 128,-1,80
 318 138 318 138 334 138 c 1,81,82
 335 133 335 133 340 132.5 c 128,-1,83
 345 132 345 132 347 128 c 1,84,85
 349 130 349 130 351.5 130 c 128,-1,86
 354 130 354 130 357 127 c 128,-1,87
 360 124 360 124 363 122.5 c 128,-1,88
 366 121 366 121 369.5 121.5 c 128,-1,89
 373 122 373 122 382 118.5 c 128,-1,90
 391 115 391 115 397.5 115 c 128,-1,91
 404 115 404 115 411 113 c 2,92,-1
 435 106 l 1,93,94
 441 100 441 100 441 88 c 128,-1,95
 441 76 441 76 429 66 c 1,96,97
 415 67 415 67 404.5 72.5 c 128,-1,98
 394 78 394 78 386 78 c 2,99,-1
 378 77 l 2,100,101
 373 77 373 77 373 81.5 c 128,-1,102
 373 86 373 86 367 86 c 128,-1,103
 361 86 361 86 354 93 c 1,104,105
 340 93 l 2,106,107
 334 93 334 93 330 96 c 2,108,-1
 319 103 l 1,109,110
 299 105 299 105 291 108 c 128,-1,111
 283 111 283 111 282 112 c 128,-1,112
 281 113 281 113 281 112.5 c 128,-1,113
 281 112 281 112 278 112 c 128,-1,114
 275 112 275 112 270.5 116 c 128,-1,115
 266 120 266 120 260 119 c 1,116,117
 254 121 254 121 253 125 c 128,-1,118
 252 129 252 129 246 129 c 2,119,-1
 232 127 l 1,120,121
 224 127 224 127 215 134 c 1,122,-1
 202 134 l 1,123,124
 202 135 202 135 197.5 137 c 0,125,126
 176.8 146.2 176.8 146.2 172 151 c 1,127,128
 160 154 160 154 146.5 156 c 128,-1,129
 133 158 133 158 124 166 c 1,130,-1
 119 166 l 1,131,-1
 99 168 l 1,132,133
 97 172 97 172 93.5 174.5 c 128,-1,134
 90 177 90 177 89 181 c 1,135,136
 80 183 80 183 72.5 187 c 0,137,138
 55.625 196 55.625 196 42.8125 195.5 c 128,-1,139
 30 195 30 195 30 207 c 0,140,141
 30 216 30 216 35 228 c 1,142,143
 48 230 48 230 62 240 c 128,-1,144
 76 250 76 250 83 254 c 128,-1,145
 90 258 90 258 93 259 c 128,-1,146
 96 260 96 260 103 264.5 c 128,-1,147
 110 269 110 269 120 277 c 128,-1,148
 130 285 130 285 142 290 c 1,149,150
 149 296 149 296 160.5 302.5 c 128,-1,151
 172 309 172 309 183.5 316 c 128,-1,152
 195 323 195 323 206.5 329 c 128,-1,153
 218 335 218 335 234 347 c 1,154,-1
 244 350 l 1,155,156
 252 355 252 355 259.5 362 c 128,-1,157
 267 369 267 369 277 371 c 1,158,159
 288 383 288 383 328 403 c 1,160,-1
 328 408 l 1,0,1
EndSplineSet
EndChar

StartChar: equal
Encoding: 61 61 32
Width: 585
Flags: HW
LayerCount: 2
Fore
SplineSet
366 186 m 1,0,1
 463 186 463 186 482 188 c 1,2,3
 487 183 487 183 494 177.5 c 128,-1,4
 501 172 501 172 501 165.5 c 128,-1,5
 501 159 501 159 496.5 156.5 c 128,-1,6
 492 154 492 154 489 150 c 1,7,8
 484 154 484 154 477 153.5 c 128,-1,9
 470 153 470 153 463 153 c 1,10,-1
 448 156 l 2,11,12
 444 156 444 156 442.5 153 c 128,-1,13
 441 150 441 150 438 150 c 2,14,-1
 428 151 l 1,15,16
 405 150 l 1,17,-1
 391 152 l 2,18,19
 387 152 387 152 386 149 c 128,-1,20
 385 146 385 146 381 145 c 1,21,22
 378 147 378 147 373 147 c 2,23,-1
 353 145 l 2,24,25
 345 145 345 145 338.5 149 c 128,-1,26
 332 153 332 153 320.5 153 c 128,-1,27
 309 153 309 153 299 143 c 1,28,29
 292 151 292 151 283 148.5 c 128,-1,30
 274 146 274 146 266 152 c 1,31,32
 254 146 254 146 239.5 145 c 128,-1,33
 225 144 225 144 213 141 c 1,34,-1
 189 154 l 1,35,36
 179 152 179 152 167 152 c 2,37,-1
 145 152 l 2,38,39
 141 152 141 152 139 155 c 128,-1,40
 137 158 137 158 133.5 158 c 128,-1,41
 130 158 130 158 130 156 c 1,42,-1
 121 158 l 1,43,44
 116 158 116 158 104 152 c 1,45,46
 102 157 102 157 96 157.5 c 128,-1,47
 90 158 90 158 85 160 c 1,48,49
 83 163 83 163 83 171.5 c 128,-1,50
 83 180 83 180 89 188 c 1,51,-1
 92 187 l 2,52,53
 95 187 95 187 97 190 c 128,-1,54
 99 193 99 193 101 193 c 2,55,-1
 112 190 l 1,56,-1
 125 195 l 1,57,58
 130 195 130 195 140 192.5 c 128,-1,59
 150 190 150 190 177 190 c 1,60,-1
 187 193 l 1,61,-1
 208 188 l 1,62,-1
 222 190 l 1,63,-1
 234 188 l 1,64,-1
 260 193 l 1,65,-1
 269 190 l 1,66,-1
 279 193 l 1,67,-1
 311 188 l 1,68,-1
 325 189 l 1,69,-1
 345 185 l 1,70,-1
 366 186 l 1,0,1
333 323 m 1,71,-1
 276 331 l 1,72,73
 263 331 263 331 254.5 327 c 128,-1,74
 246 323 246 323 237 323 c 2,75,-1
 208 325 l 1,76,-1
 198 329 l 1,77,-1
 181 325 l 1,78,-1
 161 329 l 1,79,-1
 149 325 l 1,80,-1
 147 325 l 1,81,-1
 147 326 l 1,82,83
 148 328 148 328 144.5 327.5 c 128,-1,84
 141 327 141 327 139.5 328.5 c 128,-1,85
 138 330 138 330 138 332.5 c 128,-1,86
 138 335 138 335 136 335 c 256,87,88
 134 335 134 335 134 334 c 1,89,90
 128 336 128 336 122.5 334 c 128,-1,91
 117 332 117 332 111 332 c 1,92,93
 94 338 94 338 94 356 c 0,94,95
 94 359 94 359 96 366 c 1,96,97
 105 371 105 371 124 371 c 2,98,-1
 189 368 l 2,99,100
 208 368 208 368 215 361 c 1,101,-1
 238 366 l 1,102,-1
 264 361 l 1,103,-1
 307 364 l 1,104,-1
 324 361 l 1,105,106
 347 361 347 361 360 364.5 c 128,-1,107
 373 368 373 368 379 368 c 1,108,-1
 390 366 l 1,109,-1
 435 370 l 1,110,-1
 442 372 l 1,111,112
 446 370 446 370 448 370 c 2,113,-1
 463 372 l 1,114,115
 473 372 473 372 481 363 c 128,-1,116
 489 354 489 354 489 346 c 2,117,-1
 488 336 l 1,118,119
 482 334 482 334 475.5 335 c 128,-1,120
 469 336 469 336 464 331 c 1,121,122
 455 333 455 333 446 333 c 128,-1,123
 437 333 437 333 429 338 c 1,124,125
 403 333 403 333 390 325 c 1,126,-1
 378 325 l 2,127,128
 369 325 369 325 362 321 c 1,129,130
 357 325 357 325 351 325 c 2,131,-1
 333 323 l 1,71,-1
EndSplineSet
EndChar

StartChar: greater
Encoding: 62 62 33
Width: 539
Flags: HW
LayerCount: 2
Fore
SplineSet
497 278 m 1,0,1
 508 269 508 269 508 252 c 2,2,-1
 507 234 l 1,3,4
 500 230 500 230 495 223 c 1,5,6
 486 222 486 222 470.5 217.5 c 128,-1,7
 455 213 455 213 452.5 213 c 128,-1,8
 450 213 450 213 446 215 c 1,9,10
 437 215 437 215 422.5 204.5 c 128,-1,11
 408 194 408 194 407 191 c 1,12,-1
 403 191 l 1,13,-1
 381 187 l 1,14,15
 380 182 380 182 375.5 181 c 128,-1,16
 371 180 371 180 367 178 c 1,17,18
 363 172 363 172 356 168 c 128,-1,19
 349 164 349 164 345 160 c 1,20,-1
 341 160 l 2,21,22
 322 160 322 160 302 146 c 1,23,-1
 294 147 l 1,24,25
 276 147 276 147 266 132 c 1,26,27
 260 130 260 130 254 128 c 128,-1,28
 248 126 248 126 245 121 c 1,29,-1
 243 121 l 1,30,-1
 236 123 l 1,31,32
 232 123 232 123 230 118 c 128,-1,33
 228 113 228 113 219.5 113 c 128,-1,34
 211 113 211 113 207 109 c 128,-1,35
 203 105 203 105 198.5 103 c 128,-1,36
 194 101 194 101 192.5 101.5 c 128,-1,37
 191 102 191 102 186.5 99.5 c 128,-1,38
 182 97 182 97 177 96.5 c 128,-1,39
 172 96 172 96 166 95 c 128,-1,40
 160 94 160 94 159 91.5 c 128,-1,41
 158 89 158 89 155 87 c 1,42,43
 154 84 154 84 150 84.5 c 128,-1,44
 146 85 146 85 145 81 c 1,45,-1
 139 81 l 2,46,47
 128 81 128 81 123 83 c 1,48,49
 110 66 110 66 104 61 c 1,50,-1
 91 61 l 2,51,52
 81 61 81 61 76 63 c 1,53,-1
 76 65 l 1,54,-1
 71 78 l 1,55,56
 71 94 71 94 105 100 c 0,57,58
 119 103 119 103 127.5 109 c 128,-1,59
 136 115 136 115 141 117 c 128,-1,60
 146 119 146 119 150.5 118 c 128,-1,61
 155 117 155 117 160.5 119 c 128,-1,62
 166 121 166 121 172 126.5 c 128,-1,63
 178 132 178 132 185 135 c 128,-1,64
 192 138 192 138 199 139.5 c 128,-1,65
 206 141 206 141 217 145.5 c 128,-1,66
 228 150 228 150 242.5 155.5 c 128,-1,67
 257 161 257 161 269 170 c 1,68,69
 286 171 286 171 300 177.5 c 128,-1,70
 314 184 314 184 330 187 c 1,71,72
 335 191 335 191 342 195 c 128,-1,73
 349 199 349 199 351.5 201 c 128,-1,74
 354 203 354 203 354 204.5 c 128,-1,75
 354 206 354 206 358 209 c 128,-1,76
 362 212 362 212 370 212.5 c 128,-1,77
 378 213 378 213 383 221 c 1,78,79
 412 226 412 226 424 239 c 0,80,81
 426 241 426 241 431.5 242.5 c 128,-1,82
 437 244 437 244 437 249 c 256,83,84
 437 254 437 254 431 255.5 c 128,-1,85
 425 257 425 257 420 258 c 1,86,87
 414 265 414 265 406 265 c 2,88,-1
 389 265 l 2,89,90
 375 265 375 265 370 269 c 128,-1,91
 365 273 365 273 355.5 276 c 128,-1,92
 346 279 346 279 339 279 c 0,93,94
 323 279 323 279 319.5 282.5 c 128,-1,95
 316 286 316 286 310 287 c 0,96,97
 297.142857143 289.142857143 297.142857143 289.142857143 291.571428571 296.071428571 c 128,-1,98
 286 303 286 303 279 303 c 2,99,-1
 268 303 l 2,100,101
 258 303 258 303 253 313 c 1,102,-1
 247 312 l 1,103,104
 239 312 239 312 235 315.5 c 128,-1,105
 231 319 231 319 224 322 c 1,106,107
 221 326 221 326 219 331.5 c 128,-1,108
 217 337 217 337 211 337 c 1,109,-1
 193 333 l 1,110,111
 184 333 184 333 176 340.5 c 128,-1,112
 168 348 168 348 155 347 c 1,113,114
 147 355 147 355 134.5 357.5 c 128,-1,115
 122 360 122 360 114 371 c 1,116,117
 103 372 103 372 88 379 c 128,-1,118
 73 386 73 386 67.5 391.5 c 128,-1,119
 62 397 62 397 61 404.5 c 128,-1,120
 60 412 60 412 59 416 c 1,121,122
 66 426 66 426 87 426 c 128,-1,123
 108 426 108 426 116 418 c 1,124,125
 122 416 122 416 131 415 c 0,126,127
 144.5 413.5 144.5 413.5 148.75 408.25 c 128,-1,128
 153 403 153 403 160 401.5 c 128,-1,129
 167 400 167 400 173.5 397.5 c 128,-1,130
 180 395 180 395 186 391 c 128,-1,131
 192 387 192 387 202 382.5 c 128,-1,132
 212 378 212 378 226.5 374 c 128,-1,133
 241 370 241 370 252.5 364 c 128,-1,134
 264 358 264 358 272 353.5 c 128,-1,135
 280 349 280 349 288 345.5 c 128,-1,136
 296 342 296 342 303 339.5 c 128,-1,137
 310 337 310 337 317.5 332.5 c 128,-1,138
 325 328 325 328 335 327 c 128,-1,139
 345 326 345 326 354 322 c 1,140,141
 366 310 366 310 381 309.5 c 128,-1,142
 396 309 396 309 402.5 306.5 c 128,-1,143
 409 304 409 304 411.5 302.5 c 128,-1,144
 414 301 414 301 417.5 299.5 c 128,-1,145
 421 298 421 298 426 298.5 c 128,-1,146
 431 299 431 299 439.5 297 c 128,-1,147
 448 295 448 295 459 289 c 128,-1,148
 470 283 470 283 482 278 c 1,149,-1
 497 278 l 1,0,1
EndSplineSet
EndChar

StartChar: question
Encoding: 63 63 34
Width: 378
Flags: HW
LayerCount: 2
Fore
SplineSet
69 726 m 1,0,-1
 68 735 l 2,1,2
 68 743 68 743 78.5 758.5 c 128,-1,3
 89 774 89 774 91 786 c 1,4,5
 100 792 100 792 110 802 c 1,6,7
 115 809 115 809 122.5 811 c 128,-1,8
 130 813 130 813 135 815 c 128,-1,9
 140 817 140 817 140 818 c 128,-1,10
 140 819 140 819 143 820 c 128,-1,11
 146 821 146 821 149 820.5 c 128,-1,12
 152 820 152 820 159 822.5 c 128,-1,13
 166 825 166 825 173.5 829.5 c 128,-1,14
 181 834 181 834 189 834 c 128,-1,15
 197 834 197 834 197 831 c 1,16,17
 228 828 228 828 242 821 c 1,18,-1
 251 814 l 1,19,20
 269 803 269 803 278 792.5 c 128,-1,21
 287 782 287 782 293 774.5 c 128,-1,22
 299 767 299 767 304 761.5 c 128,-1,23
 309 756 309 756 309.5 750.5 c 128,-1,24
 310 745 310 745 313 741 c 1,25,-1
 316 739 l 1,26,27
 323 725 323 725 326.5 709 c 128,-1,28
 330 693 330 693 339 679 c 1,29,30
 337 673 337 673 337 665 c 128,-1,31
 337 657 337 657 340.5 648 c 128,-1,32
 344 639 344 639 344 624.5 c 0,33,34
 344 610 344 610 337.5 589.5 c 128,-1,35
 331 569 331 569 330 561.5 c 128,-1,36
 329 554 329 554 325.5 549.5 c 128,-1,37
 322 545 322 545 318.5 542.5 c 128,-1,38
 315 540 315 540 313 537 c 128,-1,39
 311 534 311 534 311.5 531 c 128,-1,40
 312 528 312 528 309.5 524.5 c 128,-1,41
 307 521 307 521 302.5 518.5 c 128,-1,42
 298 516 298 516 294.5 511.5 c 128,-1,43
 291 507 291 507 289 503 c 128,-1,44
 287 499 287 499 282 494 c 1,45,-1
 281 489 l 1,46,47
 279 488 279 488 277 488.5 c 128,-1,48
 275 489 275 489 273 486 c 256,49,50
 271 483 271 483 260.5 475.5 c 128,-1,51
 250 468 250 468 245 469 c 1,52,53
 242 465 242 465 238.5 462 c 128,-1,54
 235 459 235 459 233 454 c 1,55,56
 225 455 225 455 220 451 c 128,-1,57
 215 447 215 447 209 443 c 1,58,-1
 206 443 l 2,59,60
 200 443 200 443 188.5 439.5 c 128,-1,61
 177 436 177 436 177 431 c 1,62,-1
 181 425 l 1,63,-1
 178 418 l 1,64,-1
 181 402 l 1,65,66
 181 364 181 364 177.5 351.5 c 128,-1,67
 174 339 174 339 174 334 c 2,68,-1
 175 317 l 1,69,-1
 171 289 l 2,70,71
 171 282 171 282 174 275 c 1,72,73
 169 263 169 263 153.5 256 c 128,-1,74
 138 249 138 249 127.5 249 c 128,-1,75
 117 249 117 249 115 258.5 c 128,-1,76
 113 268 113 268 108 273 c 1,77,-1
 112 307 l 1,78,-1
 111 326 l 1,79,-1
 114 340 l 2,80,81
 115 343 115 343 114.5 346 c 128,-1,82
 114 349 114 349 114 354.5 c 128,-1,83
 114 360 114 360 118 366.5 c 128,-1,84
 122 373 122 373 122 380 c 1,85,-1
 119 395 l 1,86,87
 119 415 119 415 124 433.5 c 128,-1,88
 129 452 129 452 129 471 c 1,89,-1
 126 492 l 1,90,-1
 129 507 l 1,91,92
 135 530 135 530 141 537 c 1,93,-1
 154 539 l 2,94,95
 159 539 159 539 166.5 531 c 128,-1,96
 174 523 174 523 176 518.5 c 128,-1,97
 178 514 178 514 177.5 508 c 128,-1,98
 177 502 177 502 182 500 c 1,99,-1
 182 497 l 1,100,-1
 181 484 l 1,101,-1
 181 480 l 1,102,103
 187 478 187 478 193.5 478 c 128,-1,104
 200 478 200 478 208 485.5 c 128,-1,105
 216 493 216 493 225 495 c 1,106,107
 225 500 225 500 228.5 502 c 128,-1,108
 232 504 232 504 234 507.5 c 128,-1,109
 236 511 236 511 237 514.5 c 128,-1,110
 238 518 238 518 243 518 c 1,111,112
 244 526 244 526 247.5 530 c 128,-1,113
 251 534 251 534 254 539 c 1,114,-1
 254 541 l 2,115,116
 254 554 254 554 259.5 567 c 128,-1,117
 265 580 265 580 265 593 c 1,118,-1
 263 597 l 1,119,120
 266 603 266 603 266 604 c 2,121,-1
 264 622 l 1,122,-1
 265 652 l 2,123,124
 265 665 265 665 259 677 c 1,125,126
 261 681 261 681 261 688 c 128,-1,127
 261 695 261 695 252 710 c 1,128,-1
 252 714 l 2,129,130
 252 721 252 721 249 727 c 128,-1,131
 246 733 246 733 245 737.5 c 128,-1,132
 244 742 244 742 244.5 745 c 128,-1,133
 245 748 245 748 244 751.5 c 128,-1,134
 243 755 243 755 238 761 c 128,-1,135
 233 767 233 767 231 773 c 1,136,137
 223 774 223 774 220.5 778.5 c 128,-1,138
 218 783 218 783 214 790 c 1,139,140
 209 792 209 792 200.5 794 c 128,-1,141
 192 796 192 796 189 801 c 1,142,143
 181 800 181 800 177 794 c 128,-1,144
 173 788 173 788 163 792 c 1,145,146
 155 790 155 790 152 784 c 128,-1,147
 149 778 149 778 141 778 c 1,148,149
 137 773 137 773 136 767 c 1,150,151
 129 767 129 767 125.5 763 c 128,-1,152
 122 759 122 759 116 756 c 1,153,154
 116 741 116 741 108 737 c 128,-1,155
 100 733 100 733 96.5 726 c 128,-1,156
 93 719 93 719 93.5 717.5 c 128,-1,157
 94 716 94 716 94 712 c 1,158,-1
 91 701 l 1,159,-1
 92 687 l 1,160,-1
 91 664 l 2,161,162
 91 653 91 653 86.5 647.5 c 128,-1,163
 82 642 82 642 82 635 c 0,164,165
 82 628 82 628 92 624 c 1,166,167
 102 632 102 632 104.5 656 c 0,168,169
 107 680 107 680 111 687 c 1,170,171
 115 689 115 689 119 688.5 c 128,-1,172
 123 688 123 688 126.5 688 c 128,-1,173
 130 688 130 688 134 690 c 0,174,175
 135 690 135 690 139.5 682.5 c 128,-1,176
 144 675 144 675 144 674 c 2,177,-1
 143 669 l 2,178,179
 143 666 143 666 145 667 c 128,-1,180
 147 668 147 668 147 655.5 c 128,-1,181
 147 643 147 643 138.5 631.5 c 128,-1,182
 130 620 130 620 122 608 c 1,183,-1
 121 608 l 1,184,-1
 108 606 l 1,185,186
 102 603 102 603 98.5 597 c 128,-1,187
 95 591 95 591 85.5 591 c 128,-1,188
 76 591 76 591 69.5 598 c 128,-1,189
 63 605 63 605 55 609 c 1,190,-1
 55 615 l 1,191,-1
 54 634 l 2,192,193
 54 645 54 645 58 655 c 128,-1,194
 62 665 62 665 62 676 c 2,195,-1
 61 702 l 2,196,197
 61 712 61 712 64 723 c 1,198,-1
 69 726 l 1,0,-1
146 51 m 2,199,-1
 147 43 l 1,200,201
 154 41 154 41 157.5 38 c 128,-1,202
 161 35 161 35 170 34 c 1,203,204
 172 29 172 29 175.5 24.5 c 128,-1,205
 179 20 179 20 179 12 c 128,-1,206
 179 4 179 4 175.5 -1.5 c 128,-1,207
 172 -7 172 -7 167.5 -9.5 c 128,-1,208
 163 -12 163 -12 159 -14 c 128,-1,209
 155 -16 155 -16 155 -19 c 1,210,-1
 147 -16 l 1,211,212
 144 -16 144 -16 138 -23 c 128,-1,213
 132 -30 132 -30 127 -32 c 1,214,215
 118 -30 118 -30 108 -30 c 128,-1,216
 98 -30 98 -30 94 -22 c 1,217,-1
 92 -22 l 1,218,-1
 83 -25 l 1,219,220
 76 -25 76 -25 72 -16 c 128,-1,221
 68 -7 68 -7 68 1 c 128,-1,222
 68 9 68 9 71 10.5 c 128,-1,223
 74 12 74 12 78 19 c 128,-1,224
 82 26 82 26 86 29.5 c 128,-1,225
 90 33 90 33 95 38 c 128,-1,226
 100 43 100 43 100 44.5 c 128,-1,227
 100 46 100 46 103.5 49.5 c 128,-1,228
 107 53 107 53 114 55.5 c 128,-1,229
 121 58 121 58 126 63 c 1,230,-1
 129 63 l 2,231,232
 135 63 135 63 138.5 60.5 c 128,-1,233
 142 58 142 58 147 56 c 1,234,235
 146 55 146 55 146 51 c 2,199,-1
EndSplineSet
EndChar

StartChar: at
Encoding: 64 64 35
Width: 669
Flags: HW
LayerCount: 2
Fore
SplineSet
373 636 m 1,0,1
 365 633 365 633 352 633 c 128,-1,2
 339 633 339 633 324 618 c 1,3,4
 320 620 320 620 316 620 c 128,-1,5
 312 620 312 620 308 622 c 1,6,-1
 296 618 l 2,7,8
 294 618 294 618 288 621 c 1,9,10
 281 617 281 617 275 610.5 c 128,-1,11
 269 604 269 604 261 606 c 1,12,13
 256 604 256 604 253.5 599.5 c 128,-1,14
 251 595 251 595 247 591 c 1,15,16
 216 585 216 585 213 555 c 1,17,18
 202 550 202 550 193 535.5 c 128,-1,19
 184 521 184 521 182 508 c 1,20,21
 176 508 176 508 173 503.5 c 128,-1,22
 170 499 170 499 164 498 c 1,23,-1
 165 496 l 1,24,25
 165 490 165 490 163 487 c 128,-1,26
 161 484 161 484 163 478 c 1,27,28
 158 475 158 475 155.5 470.5 c 128,-1,29
 153 466 153 466 146 465 c 1,30,31
 143 451 143 451 137 441.5 c 128,-1,32
 131 432 131 432 133 416 c 1,33,34
 126 408 126 408 126 397 c 1,35,-1
 121 345 l 1,36,-1
 123 329 l 1,37,-1
 121 319 l 1,38,-1
 125 299 l 1,39,40
 125 292 125 292 127 288 c 128,-1,41
 129 284 129 284 131 276.5 c 128,-1,42
 133 269 133 269 133.5 258 c 128,-1,43
 134 247 134 247 142 241 c 1,44,45
 149 206 149 206 164 191 c 0,46,47
 165 189 165 189 164.5 188.5 c 128,-1,48
 164 188 164 188 164 186 c 256,49,50
 164 184 164 184 166.5 182.5 c 128,-1,51
 169 181 169 181 170.5 179 c 128,-1,52
 172 177 172 177 171.5 174.5 c 128,-1,53
 171 172 171 172 172.5 169 c 128,-1,54
 174 166 174 166 177.5 163 c 128,-1,55
 181 160 181 160 183.5 156.5 c 128,-1,56
 186 153 186 153 188 148 c 128,-1,57
 190 143 190 143 198.5 136.5 c 128,-1,58
 207 130 207 130 210 125 c 0,59,60
 216 112 216 112 225.5 108.5 c 128,-1,61
 235 105 235 105 237 99 c 1,62,63
 248 95 248 95 259.5 87 c 128,-1,64
 271 79 271 79 278 77.5 c 128,-1,65
 285 76 285 76 291 77 c 128,-1,66
 297 78 297 78 303 78 c 2,67,-1
 341 74 l 2,68,69
 347 73 347 73 352.5 73.5 c 128,-1,70
 358 74 358 74 370.5 74 c 128,-1,71
 383 74 383 74 398 70 c 1,72,-1
 416 78 l 1,73,74
 422 75 422 75 429.5 75 c 128,-1,75
 437 75 437 75 461 81 c 1,76,77
 465 84 465 84 468 85.5 c 128,-1,78
 471 87 471 87 469 93 c 1,79,80
 473 91 473 91 477 91 c 2,81,-1
 495 93 l 1,82,83
 505 85 505 85 505 77 c 128,-1,84
 505 69 505 69 503 61 c 1,85,86
 498 59 498 59 491.5 57 c 128,-1,87
 485 55 485 55 483 50 c 1,88,89
 481 52 481 52 478.5 52 c 128,-1,90
 476 52 476 52 473 49.5 c 128,-1,91
 470 47 470 47 467.5 46 c 128,-1,92
 465 45 465 45 462 45.5 c 128,-1,93
 459 46 459 46 456 46 c 2,94,-1
 439 41 l 1,95,96
 435 41 435 41 434 44 c 1,97,98
 430 45 430 45 430.5 40.5 c 128,-1,99
 431 36 431 36 426 38 c 1,100,-1
 421 38 l 2,101,102
 412 38 412 38 403.5 42 c 128,-1,103
 395 46 395 46 389 46 c 128,-1,104
 383 46 383 46 371 40 c 1,105,106
 371 42 371 42 369 42 c 256,107,108
 367 42 367 42 366.5 41 c 128,-1,109
 366 40 366 40 362 38.5 c 128,-1,110
 358 37 358 37 352 37 c 128,-1,111
 346 37 346 37 341 32 c 1,112,113
 334 35 334 35 328 35 c 2,114,-1
 312 35 l 2,115,116
 303 35 303 35 296 38 c 1,117,-1
 279 34 l 1,118,119
 271 34 271 34 265.5 38 c 128,-1,120
 260 42 260 42 255.5 42 c 128,-1,121
 251 42 251 42 245 40 c 1,122,123
 238 45 238 45 229.5 47.5 c 128,-1,124
 221 50 221 50 215 55 c 1,125,-1
 213 55 l 2,126,127
 201 55 201 55 194.5 61.5 c 128,-1,128
 188 68 188 68 178 70 c 1,129,130
 171 81 171 81 163 83 c 1,131,132
 161 86 161 86 160 89.5 c 128,-1,133
 159 93 159 93 157 95 c 1,134,135
 143 97 143 97 138 105.5 c 128,-1,136
 133 114 133 114 123 119 c 1,137,138
 123 123 123 123 121.5 126 c 128,-1,139
 120 129 120 129 118.5 132.5 c 128,-1,140
 117 136 117 136 110 144 c 256,141,142
 103 152 103 152 101.5 157 c 128,-1,143
 100 162 100 162 98.5 163 c 128,-1,144
 97 164 97 164 95.5 166 c 128,-1,145
 94 168 94 168 94.5 170 c 128,-1,146
 95 172 95 172 93.5 174 c 128,-1,147
 92 176 92 176 89 177.5 c 128,-1,148
 86 179 86 179 86 181 c 128,-1,149
 86 183 86 183 88 185 c 1,150,151
 81 190 81 190 77 197 c 128,-1,152
 73 204 73 204 68 211 c 1,153,-1
 68 215 l 2,154,155
 68 236 68 236 56 252 c 1,156,-1
 54 292 l 2,157,158
 54 294 54 294 52 300 c 1,159,-1
 58 332 l 1,160,-1
 56 345 l 1,161,162
 56 354 56 354 65 378 c 1,163,164
 71 427 71 427 89 461 c 0,165,166
 91 464 91 464 94.5 467.5 c 128,-1,167
 98 471 98 471 99.5 476 c 128,-1,168
 101 481 101 481 103 483.5 c 128,-1,169
 105 486 105 486 107.5 489 c 128,-1,170
 110 492 110 492 110 495 c 2,171,-1
 110 497 l 1,172,-1
 111 496 l 1,173,174
 114 496 114 496 114.5 499 c 128,-1,175
 115 502 115 502 119 500 c 1,176,-1
 119 502 l 2,177,178
 119 504 119 504 120.5 506 c 128,-1,179
 122 508 122 508 125 514 c 128,-1,180
 128 520 128 520 135 528.5 c 128,-1,181
 142 537 142 537 148 546 c 1,182,-1
 153 549 l 1,183,184
 155 552 155 552 155 555.5 c 128,-1,185
 155 559 155 559 158.5 563.5 c 128,-1,186
 162 568 162 568 169 573 c 128,-1,187
 176 578 176 578 178 587 c 1,188,189
 186 589 186 589 192 594.5 c 128,-1,190
 198 600 198 600 206 602 c 1,191,192
 209 605 209 605 211 610 c 128,-1,193
 213 615 213 615 216 617.5 c 128,-1,194
 219 620 219 620 220 619 c 128,-1,195
 221 618 221 618 223 620 c 128,-1,196
 225 622 225 622 225 623.5 c 128,-1,197
 225 625 225 625 227 626 c 2,198,-1
 236 632 l 2,199,200
 243 637 243 637 251 640.5 c 128,-1,201
 259 644 259 644 266 649 c 1,202,-1
 281 649 l 2,203,204
 285 649 285 649 285.5 651 c 128,-1,205
 286 653 286 653 288 655 c 1,206,-1
 317 659 l 1,207,208
 320 662 320 662 322 662 c 2,209,-1
 325 662 l 2,210,211
 338 662 338 662 341 668 c 1,212,213
 343 667 343 667 347 667 c 2,214,-1
 373 672 l 1,215,216
 393 672 393 672 412 665.5 c 128,-1,217
 431 659 431 659 452 657 c 1,218,219
 455 652 455 652 461 651 c 128,-1,220
 467 650 467 650 472.5 646 c 128,-1,221
 478 642 478 642 481.5 641 c 128,-1,222
 485 640 485 640 488 638 c 1,223,224
 492 632 492 632 495 632 c 0,225,226
 501 632 501 632 510 614 c 1,227,-1
 512 614 l 1,228,-1
 520 616 l 1,229,-1
 522 616 l 1,230,231
 540 595 540 595 553 592 c 0,232,233
 560 591 560 591 558 587 c 1,234,235
 557 581 557 581 563 580.5 c 128,-1,236
 569 580 569 580 569 569 c 1,237,238
 579 567 579 567 584.5 559 c 128,-1,239
 590 551 590 551 595 544 c 1,240,-1
 599 544 l 1,241,-1
 599 540 l 1,242,243
 612 524 612 524 616 514 c 1,244,-1
 619 502 l 1,245,-1
 623 495 l 1,246,247
 626 482 626 482 625.5 473 c 128,-1,248
 625 464 625 464 633 453 c 1,249,-1
 633 450 l 1,250,-1
 635 441 l 2,251,252
 635 438 635 438 632 437 c 1,253,-1
 632 436 l 2,254,255
 632 432 632 432 635.5 431 c 128,-1,256
 639 430 639 430 638 427 c 1,257,-1
 638 425 l 1,258,259
 635 424 635 424 635 415 c 128,-1,260
 635 406 635 406 629 406 c 1,261,-1
 629 404 l 1,262,263
 628 401 628 401 631.5 399.5 c 128,-1,264
 635 398 635 398 635 395.5 c 128,-1,265
 635 393 635 393 632.5 390.5 c 128,-1,266
 630 388 630 388 629.5 382 c 128,-1,267
 629 376 629 376 626.5 372.5 c 128,-1,268
 624 369 624 369 624.5 367 c 128,-1,269
 625 365 625 365 625 361.5 c 128,-1,270
 625 358 625 358 620.5 355 c 128,-1,271
 616 352 616 352 614.5 349.5 c 128,-1,272
 613 347 613 347 613.5 345 c 128,-1,273
 614 343 614 343 612.5 341 c 128,-1,274
 611 339 611 339 609.5 339 c 128,-1,275
 608 339 608 339 604.5 335 c 128,-1,276
 601 331 601 331 599.5 323.5 c 128,-1,277
 598 316 598 316 591 311 c 1,278,279
 590 308 590 308 589.5 303 c 128,-1,280
 589 298 589 298 587.5 296 c 128,-1,281
 586 294 586 294 584.5 294 c 128,-1,282
 583 294 583 294 581.5 292 c 128,-1,283
 580 290 580 290 581 288 c 128,-1,284
 582 286 582 286 580 284 c 256,285,286
 578 282 578 282 569.5 277 c 128,-1,287
 561 272 561 272 557 274 c 1,288,289
 555 260 555 260 538 256 c 1,290,291
 522 230 522 230 517.5 230 c 128,-1,292
 513 230 513 230 510 225 c 1,293,294
 507 223 507 223 504.5 223 c 128,-1,295
 502 223 502 223 494 219.5 c 128,-1,296
 486 216 486 216 482.5 216.5 c 128,-1,297
 479 217 479 217 477 217 c 2,298,-1
 463 213 l 1,299,300
 442 213 442 213 423 232 c 0,301,302
 418 237 418 237 410 241 c 1,303,304
 407 249 407 249 398 256 c 1,305,-1
 398 260 l 1,306,307
 399 267 399 267 393.5 275.5 c 128,-1,308
 388 284 388 284 381.5 284 c 128,-1,309
 375 284 375 284 370.5 274.5 c 128,-1,310
 366 265 366 265 360 264 c 1,311,312
 355 256 355 256 349 244 c 128,-1,313
 343 232 343 232 336.5 227.5 c 128,-1,314
 330 223 330 223 327.5 218 c 128,-1,315
 325 213 325 213 320 209 c 1,316,317
 314 209 314 209 311 205 c 1,318,319
 303 211 303 211 292 211 c 1,320,-1
 264 239 l 1,321,-1
 265 241 l 1,322,323
 265 246 265 246 261 250 c 128,-1,324
 257 254 257 254 251.5 265 c 128,-1,325
 246 276 246 276 246 290.5 c 128,-1,326
 246 305 246 305 249.5 314.5 c 128,-1,327
 253 324 253 324 253 335 c 128,-1,328
 253 346 253 346 254.5 352.5 c 128,-1,329
 256 359 256 359 257.5 362.5 c 128,-1,330
 259 366 259 366 265.5 385.5 c 128,-1,331
 272 405 272 405 300 441 c 1,332,333
 307 452 307 452 311 454.5 c 128,-1,334
 315 457 315 457 318 459 c 128,-1,335
 321 461 321 461 325 466 c 0,336,337
 331.4 474 331.4 474 336.2 473.5 c 128,-1,338
 341 473 341 473 343 476 c 128,-1,339
 345 479 345 479 348 480.5 c 128,-1,340
 351 482 351 482 366 484.5 c 128,-1,341
 381 487 381 487 386 488 c 1,342,343
 394 485 394 485 398 478.5 c 128,-1,344
 402 472 402 472 412 471 c 1,345,346
 414 465 414 465 419.5 461.5 c 128,-1,347
 425 458 425 458 427 453.5 c 128,-1,348
 429 449 429 449 430.5 449 c 128,-1,349
 432 449 432 449 433.5 447 c 128,-1,350
 435 445 435 445 434.5 444 c 128,-1,351
 434 443 434 443 435.5 440.5 c 128,-1,352
 437 438 437 438 439.5 436 c 128,-1,353
 442 434 442 434 443.5 430.5 c 128,-1,354
 445 427 445 427 444 419.5 c 128,-1,355
 443 412 443 412 443 407 c 2,356,-1
 443 403 l 2,357,358
 443 398 443 398 442.5 374 c 0,359,360
 439.958333333 252 439.958333333 252 470 252 c 1,361,-1
 479 254 l 1,362,-1
 486 252 l 1,363,364
 495 252 495 252 497 257 c 128,-1,365
 499 262 499 262 501 266 c 1,366,367
 560.516129032 305.677419355 560.516129032 305.677419355 562 322 c 0,368,369
 563 326 563 326 571 331 c 1,370,-1
 571 332 l 2,371,372
 571 340 571 340 577 345 c 128,-1,373
 583 350 583 350 585 354 c 128,-1,374
 587 358 587 358 586.5 361.5 c 128,-1,375
 586 365 586 365 587.5 368.5 c 128,-1,376
 589 372 589 372 590 372 c 128,-1,377
 591 372 591 372 591 375 c 128,-1,378
 591 378 591 378 599 386 c 1,379,-1
 598 390 l 1,380,381
 598 398 598 398 601.5 402 c 128,-1,382
 605 406 605 406 605 411 c 2,383,-1
 603 430 l 1,384,-1
 606 439 l 1,385,386
 606 458 606 458 593 471 c 1,387,-1
 593 475 l 1,388,-1
 591 495 l 1,389,390
 584 501 584 501 578.5 508.5 c 128,-1,391
 573 516 573 516 569 520.5 c 128,-1,392
 565 525 565 525 562.5 527 c 128,-1,393
 560 529 560 529 559 531 c 1,394,-1
 560 537 l 1,395,-1
 559 538 l 1,396,-1
 556 540 l 1,397,398
 554 547 554 547 554 552 c 0,399,400
 554 563 554 563 541 563 c 0,401,402
 525.5 563 525.5 563 513.25 572.5 c 128,-1,403
 501 582 501 582 499 589 c 1,404,405
 483 592 483 592 463 612 c 1,406,407
 461 610 461 610 457.5 610 c 128,-1,408
 454 610 454 610 451.5 613 c 128,-1,409
 449 616 449 616 441 614 c 1,410,411
 440 617 440 617 428 622.5 c 128,-1,412
 416 628 416 628 413 628 c 2,413,-1
 402 626 l 1,414,415
 396 626 396 626 373 636 c 1,0,1
357 322 m 1,416,-1
 355 331 l 1,417,418
 360 336 360 336 367 349 c 128,-1,419
 374 362 374 362 375 371 c 1,420,421
 393 389 393 389 398 431 c 1,422,423
 391 435 391 435 388 442.5 c 128,-1,424
 385 450 385 450 377.5 450 c 128,-1,425
 370 450 370 450 365.5 448 c 128,-1,426
 361 446 361 446 357 445 c 1,427,428
 354 439 354 439 350 434 c 0,429,430
 343.818181818 426.272727273 343.818181818 426.272727273 338.409090909 410.636363636 c 128,-1,431
 333 395 333 395 333.5 391 c 128,-1,432
 334 387 334 387 334 379.5 c 128,-1,433
 334 372 334 372 328.5 360 c 128,-1,434
 323 348 323 348 323 340 c 128,-1,435
 323 332 323 332 324 329 c 1,436,437
 318 326 318 326 319 320 c 128,-1,438
 320 314 320 314 318 310 c 128,-1,439
 316 306 316 306 314 306 c 128,-1,440
 312 306 312 306 312 299 c 2,441,-1
 313 279 l 2,442,443
 313 273 313 273 317 274 c 1,444,445
 318 273 318 273 321 273 c 0,446,447
 328 273 328 273 336.5 289 c 128,-1,448
 345 305 345 305 345 307 c 1,449,450
 349 309 349 309 351.5 312.5 c 128,-1,451
 354 316 354 316 357 319 c 1,452,-1
 357 322 l 1,416,-1
EndSplineSet
EndChar

StartChar: A
Encoding: 65 65 36
Width: 568
Flags: HW
LayerCount: 2
Fore
SplineSet
-21.5 -62 m 0,0,1
 -28 -62 -28 -62 -28 -51 c 128,-1,2
 -28 -40 -28 -40 -20 -33 c 1,3,4
 -14 -31 -14 -31 -11 -31 c 2,5,-1
 5 -33 l 1,6,-1
 20 -31 l 1,7,-1
 29 -32 l 1,8,9
 44 -32 44 -32 49 4 c 0,10,11
 51 18 51 18 53 32 c 128,-1,12
 55 46 55 46 61 52 c 1,13,14
 59 53 59 53 59 56 c 128,-1,15
 59 59 59 59 61 65 c 128,-1,16
 63 71 63 71 64.5 77 c 128,-1,17
 66 83 66 83 68 88.5 c 128,-1,18
 70 94 70 94 71 97 c 256,19,20
 72 100 72 100 73.5 102.5 c 128,-1,21
 75 105 75 105 76.5 111 c 128,-1,22
 78 117 78 117 78 124 c 128,-1,23
 78 131 78 131 79.5 136.5 c 128,-1,24
 81 142 81 142 82 145 c 128,-1,25
 83 148 83 148 86.5 161 c 128,-1,26
 90 174 90 174 93 196.5 c 128,-1,27
 96 219 96 219 102 241.5 c 128,-1,28
 108 264 108 264 115 286.5 c 128,-1,29
 122 309 122 309 125.5 324 c 128,-1,30
 129 339 129 339 130 345.5 c 0,31,32
 132.172413793 359.620689655 132.172413793 359.620689655 136.586206897 367.810344828 c 128,-1,33
 141 376 141 376 142.5 382 c 128,-1,34
 144 388 144 388 147.5 398 c 128,-1,35
 151 408 151 408 153 424.5 c 128,-1,36
 155 441 155 441 158 450 c 128,-1,37
 161 459 161 459 161.5 460 c 128,-1,38
 162 461 162 461 162 466 c 128,-1,39
 162 471 162 471 163.5 473 c 128,-1,40
 165 475 165 475 167 478 c 1,41,-1
 172 506 l 1,42,-1
 174 507 l 1,43,-1
 173 511 l 1,44,45
 173 525 173 525 184.5 546.5 c 128,-1,46
 196 568 196 568 198 570 c 1,47,48
 199 575 199 575 198.5 580.5 c 0,49,50
 197.52173913 591.260869565 197.52173913 591.260869565 203 594 c 1,51,52
 206 597 206 597 208 608 c 1,53,-1
 212 610 l 1,54,-1
 212 615 l 2,55,56
 212 619 212 619 218 622 c 1,57,58
 220 630 220 630 221.5 637 c 128,-1,59
 223 644 223 644 225 651 c 1,60,-1
 232 664 l 2,61,62
 234 667 234 667 234 670.5 c 128,-1,63
 234 674 234 674 236.5 678.5 c 128,-1,64
 239 683 239 683 244 688 c 128,-1,65
 249 693 249 693 251.5 702.5 c 128,-1,66
 254 712 254 712 252.5 722.5 c 128,-1,67
 251 733 251 733 257 743 c 1,68,69
 263 746 263 746 274.5 746 c 128,-1,70
 286 746 286 746 294 732.5 c 128,-1,71
 302 719 302 719 302 705 c 1,72,73
 307 698 307 698 309.5 690 c 128,-1,74
 312 682 312 682 318 677 c 1,75,-1
 318 675 l 2,76,77
 318 659 318 659 329.5 636 c 128,-1,78
 341 613 341 613 341 603 c 1,79,80
 344 600 344 600 347.5 586 c 128,-1,81
 351 572 351 572 364 559 c 1,82,-1
 363 556 l 1,83,84
 363 545 363 545 368.5 535.5 c 0,85,86
 379 517.363636364 379 517.363636364 379 500.681818182 c 128,-1,87
 379 484 379 484 395 441.5 c 128,-1,88
 411 399 411 399 413 380 c 1,89,-1
 412 379 l 1,90,91
 412 376 412 376 414.5 375.5 c 0,92,93
 421 374.2 421 374.2 421 364.1 c 128,-1,94
 421 354 421 354 430 343 c 1,95,96
 435 334 435 334 437.5 323.5 c 128,-1,97
 440 313 440 313 448 305 c 1,98,-1
 448 303 l 2,99,100
 448 296 448 296 451 290 c 128,-1,101
 454 284 454 284 455.5 279 c 128,-1,102
 457 274 457 274 457.5 270.5 c 128,-1,103
 458 267 458 267 459.5 264 c 128,-1,104
 461 261 461 261 464.5 252.5 c 128,-1,105
 468 244 468 244 471.5 234 c 128,-1,106
 475 224 475 224 478 216 c 128,-1,107
 481 208 481 208 481 206 c 2,108,-1
 481 203 l 1,109,110
 486 198 486 198 487 192.5 c 128,-1,111
 488 187 488 187 490 181 c 1,112,113
 496 173 496 173 497 163 c 128,-1,114
 498 153 498 153 500.5 144 c 128,-1,115
 503 135 503 135 506.5 129 c 128,-1,116
 510 123 510 123 513.5 116 c 128,-1,117
 517 109 517 109 518.5 98.5 c 128,-1,118
 520 88 520 88 522 80.5 c 128,-1,119
 524 73 524 73 527.5 66.5 c 128,-1,120
 531 60 531 60 533 52.5 c 128,-1,121
 535 45 535 45 534.5 37 c 0,122,123
 533.542857143 21.6857142857 533.542857143 21.6857142857 538.271428571 14.3428571429 c 128,-1,124
 543 7 543 7 546 -5 c 1,125,126
 552 -18 552 -18 554 -29 c 128,-1,127
 556 -40 556 -40 563 -46 c 1,128,-1
 566 -47 l 1,129,130
 578 -47 578 -47 583.5 -41.5 c 128,-1,131
 589 -36 589 -36 599 -35 c 1,132,133
 613 -43 613 -43 613 -57 c 0,134,135
 613 -60 613 -60 612 -62 c 1,136,137
 614 -68 614 -68 604.5 -70.5 c 128,-1,138
 595 -73 595 -73 591 -74 c 1,139,140
 583 -80 583 -80 576.5 -79.5 c 128,-1,141
 570 -79 570 -79 566.5 -80 c 128,-1,142
 563 -81 563 -81 561.5 -82 c 128,-1,143
 560 -83 560 -83 558 -84 c 1,144,-1
 550 -84 l 2,145,146
 545 -84 545 -84 539.5 -89 c 128,-1,147
 534 -94 534 -94 530 -94 c 128,-1,148
 526 -94 526 -94 511 -92 c 1,149,-1
 480 -98 l 2,150,151
 475 -98 475 -98 473 -97 c 1,152,153
 466 -99 466 -99 461 -102 c 128,-1,154
 456 -105 456 -105 448 -105 c 1,155,156
 445 -100 445 -100 442 -95 c 128,-1,157
 439 -90 439 -90 439 -83 c 1,158,159
 442 -74 442 -74 453 -70 c 128,-1,160
 464 -66 464 -66 474 -62.5 c 128,-1,161
 484 -59 484 -59 492 -55.5 c 128,-1,162
 500 -52 500 -52 500 -45 c 1,163,-1
 490 -9 l 1,164,165
 488 -6 488 -6 486 -3.5 c 128,-1,166
 484 -1 484 -1 482.5 4 c 128,-1,167
 481 9 481 9 481 16.5 c 128,-1,168
 481 24 481 24 479 30 c 256,169,170
 477 36 477 36 475 42 c 128,-1,171
 473 48 473 48 471 53 c 1,172,173
 466 57 466 57 459 65.5 c 128,-1,174
 452 74 452 74 445 74 c 1,175,-1
 432 72 l 1,176,-1
 420 74 l 2,177,178
 416 74 416 74 412 72.5 c 0,179,180
 400 68 400 68 383 68 c 2,181,-1
 364 68 l 1,182,-1
 347 70 l 1,183,-1
 342 68 l 1,184,-1
 326 72 l 1,185,-1
 315 71 l 2,186,187
 311 71 311 71 308 74 c 1,188,189
 296 68 296 68 292 68 c 2,190,-1
 269 72 l 1,191,-1
 258 70 l 1,192,-1
 243 74 l 1,193,-1
 216 72 l 1,194,-1
 200 72 l 2,195,196
 148 72 148 72 129 59 c 1,197,-1
 129 55 l 1,198,-1
 125 55 l 1,199,200
 118 48 118 48 108 12 c 128,-1,201
 98 -24 98 -24 98 -29 c 128,-1,202
 98 -34 98 -34 104.5 -37 c 128,-1,203
 111 -40 111 -40 116 -40 c 256,204,205
 121 -40 121 -40 133 -37 c 1,206,207
 142 -43 142 -43 149 -52 c 1,208,209
 148 -60 148 -60 145 -66 c 128,-1,210
 142 -72 142 -72 139 -78 c 1,211,-1
 99 -73 l 1,212,-1
 92 -70 l 1,213,-1
 77 -72 l 1,214,-1
 58 -67 l 1,215,-1
 48 -69 l 1,216,-1
 37 -68 l 2,217,218
 29 -68 29 -68 28 -71 c 1,219,220
 26 -71 26 -71 26 -70 c 128,-1,221
 26 -69 26 -69 24 -69 c 2,222,-1
 9 -74 l 1,223,224
 5 -74 5 -74 -5 -71.5 c 128,-1,225
 -15 -69 -15 -69 -15 -63 c 0,226,227
 -15 -60 -15 -60 -18 -60 c 1,228,229
 -20 -62 -20 -62 -21.5 -62 c 0,0,1
345 109 m 2,230,231
 349 109 349 109 351.5 110 c 128,-1,232
 354 111 354 111 364 104 c 1,233,234
 375 108 375 108 385 108 c 2,235,-1
 408 108 l 2,236,237
 423 108 423 108 438 111 c 1,238,239
 437 115 437 115 443 119 c 1,240,-1
 443 122 l 2,241,242
 443 133 443 133 439.5 142.5 c 128,-1,243
 436 152 436 152 434.5 159 c 128,-1,244
 433 166 433 166 433.5 170 c 128,-1,245
 434 174 434 174 432 177.5 c 128,-1,246
 430 181 430 181 428 183.5 c 0,247,248
 422.695652174 190.130434783 422.695652174 190.130434783 421 202 c 256,249,250
 420 209 420 209 416.5 216 c 128,-1,251
 413 223 413 223 413 227 c 128,-1,252
 413 231 413 231 411 237 c 2,253,-1
 389 284 l 2,254,255
 388 286 388 286 388.5 286.5 c 128,-1,256
 389 287 389 287 389 290 c 128,-1,257
 389 293 389 293 378.5 310 c 128,-1,258
 368 327 368 327 369.5 332 c 128,-1,259
 371 337 371 337 368 345.5 c 128,-1,260
 365 354 365 354 360 367 c 128,-1,261
 355 380 355 380 353 394 c 1,262,263
 348 396 348 396 348.5 398.5 c 128,-1,264
 349 401 349 401 347 406 c 1,265,-1
 343 410 l 1,266,267
 341 415 341 415 341 421 c 128,-1,268
 341 427 341 427 340 433 c 1,269,270
 328 448 328 448 328 474 c 1,271,-1
 318 495 l 1,272,273
 321 501 321 501 321 506 c 128,-1,274
 321 511 321 511 316.5 513.5 c 128,-1,275
 312 516 312 516 312 526 c 128,-1,276
 312 536 312 536 306 545 c 128,-1,277
 300 554 300 554 300 567 c 1,278,279
 299 569 299 569 296.5 569.5 c 128,-1,280
 294 570 294 570 290 574.5 c 128,-1,281
 286 579 286 579 282.5 586 c 128,-1,282
 279 593 279 593 270 598 c 1,283,-1
 270 600 l 1,284,285
 267 600 267 600 267 598 c 1,286,287
 261.095238095 598 261.095238095 598 258.047619048 582 c 128,-1,288
 255 566 255 566 247 557 c 1,289,290
 246 553 246 553 246.5 549.5 c 128,-1,291
 247 546 247 546 245 539 c 128,-1,292
 243 532 243 532 240 520 c 1,293,294
 234 512 234 512 232.5 499 c 128,-1,295
 231 486 231 486 225 476 c 1,296,297
 224 471 224 471 223.5 465 c 128,-1,298
 223 459 223 459 221.5 454.5 c 128,-1,299
 220 450 220 450 218.5 446.5 c 128,-1,300
 217 443 217 443 216 439 c 2,301,-1
 210 388 l 1,302,303
 199 372 199 372 200 354 c 1,304,305
 197 352 197 352 196.5 348.5 c 128,-1,306
 196 345 196 345 193 343 c 1,307,308
 190 317 190 317 170 274 c 1,309,-1
 170 256 l 1,310,311
 164 247 164 247 158.5 216 c 128,-1,312
 153 185 153 185 153 181 c 1,313,314
 151 179 151 179 150 175.5 c 128,-1,315
 149 172 149 172 144 170 c 1,316,317
 145 167 145 167 145 162 c 2,318,-1
 139 119 l 1,319,320
 148 111 148 111 164 111 c 2,321,-1
 236 114 l 2,322,323
 242 114 242 114 248 114 c 2,324,-1
 290 109 l 1,325,-1
 326 111 l 1,326,-1
 345 109 l 2,230,231
EndSplineSet
EndChar

StartChar: B
Encoding: 66 66 37
Width: 486
Flags: HW
LayerCount: 2
Fore
SplineSet
463 579 m 1,0,-1
 461 570 l 1,1,2
 463 568 463 568 463 563.5 c 128,-1,3
 463 559 463 559 460 550.5 c 128,-1,4
 457 542 457 542 455 533 c 128,-1,5
 453 524 453 524 453 512 c 128,-1,6
 453 500 453 500 450 490 c 128,-1,7
 447 480 447 480 441.5 473.5 c 128,-1,8
 436 467 436 467 437 459 c 1,9,-1
 435 459 l 2,10,11
 432 459 432 459 431.5 455.5 c 128,-1,12
 431 452 431 452 429.5 449 c 128,-1,13
 428 446 428 446 423 442 c 128,-1,14
 418 438 418 438 416 435 c 2,15,-1
 408 422 l 2,16,17
 406 419 406 419 402.5 416.5 c 128,-1,18
 399 414 399 414 399 410 c 2,19,-1
 399 408 l 1,20,21
 388 404 388 404 384 390 c 1,22,23
 377 389 377 389 367 376 c 1,24,25
 365 376 365 376 358 373.5 c 128,-1,26
 351 371 351 371 349 369 c 1,27,-1
 349 365 l 1,28,29
 347 362 347 362 345 363.5 c 128,-1,30
 343 365 343 365 341 362.5 c 128,-1,31
 339 360 339 360 339 358 c 128,-1,32
 339 356 339 356 337 354 c 1,33,-1
 325 354 l 1,34,35
 318 350 318 350 313 341 c 1,36,-1
 298 335 l 1,37,38
 301 326 301 326 313 324 c 1,39,40
 318 315 318 315 329 311 c 1,41,42
 335 298 335 298 353.5 285.5 c 128,-1,43
 372 273 372 273 384.5 245 c 128,-1,44
 397 217 397 217 397 193.5 c 128,-1,45
 397 170 397 170 384 162 c 1,46,47
 385 161 385 161 385 156.5 c 128,-1,48
 385 152 385 152 383 146.5 c 128,-1,49
 381 141 381 141 380 136 c 1,50,51
 376 134 376 134 373 131.5 c 128,-1,52
 370 129 370 129 365 128 c 1,53,54
 362 126 362 126 363 121.5 c 128,-1,55
 364 117 364 117 361 115 c 1,56,57
 361 113 361 113 358.5 113.5 c 128,-1,58
 356 114 356 114 355 114 c 2,59,-1
 352 113 l 2,60,61
 351 112 351 112 351.5 110.5 c 128,-1,62
 352 109 352 109 350.5 107 c 128,-1,63
 349 105 349 105 347.5 105.5 c 128,-1,64
 346 106 346 106 344.5 104.5 c 128,-1,65
 343 103 343 103 343.5 101.5 c 128,-1,66
 344 100 344 100 341.5 97 c 128,-1,67
 339 94 339 94 333.5 92 c 128,-1,68
 328 90 328 90 325 83 c 1,69,-1
 323 83 l 1,70,71
 314 84 314 84 311 79.5 c 128,-1,72
 308 75 308 75 304.5 72 c 128,-1,73
 301 69 301 69 297.5 69 c 128,-1,74
 294 69 294 69 290.5 67.5 c 128,-1,75
 287 66 287 66 288.5 64.5 c 128,-1,76
 290 63 290 63 286 63 c 0,77,78
 280 63 280 63 272 55 c 1,79,80
 264 50 264 50 256 46.5 c 128,-1,81
 248 43 248 43 241 36 c 1,82,-1
 233 36 l 2,83,84
 226 36 226 36 225 34 c 1,85,86
 219 34 219 34 217.5 30 c 128,-1,87
 216 26 216 26 213 23 c 0,88,89
 211 22 211 22 205 18 c 128,-1,90
 199 14 199 14 186.5 8.5 c 128,-1,91
 174 3 174 3 170 -1 c 1,92,-1
 167 -1 l 1,93,94
 164 -3 164 -3 160 1 c 1,95,96
 158 0 158 0 158 -3 c 128,-1,97
 158 -6 158 -6 156 -7 c 1,98,99
 151 -4 151 -4 143.5 -4 c 128,-1,100
 136 -4 136 -4 127.5 -10.5 c 128,-1,101
 119 -17 119 -17 107 -17 c 2,102,-1
 101 -17 l 1,103,104
 95 -11 95 -11 95 -1 c 128,-1,105
 95 9 95 9 98.5 14.5 c 128,-1,106
 102 20 102 20 107.5 22.5 c 128,-1,107
 113 25 113 25 118 26 c 128,-1,108
 123 27 123 27 127 32 c 1,109,-1
 128 81 l 2,110,111
 128 83 128 83 129 83 c 128,-1,112
 130 83 130 83 130 85 c 2,113,-1
 127 95 l 1,114,115
 127 100 127 100 129 102 c 1,116,117
 129 114 129 114 123.5 138 c 128,-1,118
 118 162 118 162 118.5 193 c 128,-1,119
 119 224 119 224 115 243 c 1,120,-1
 117 252 l 1,121,-1
 113 262 l 1,122,-1
 115 272 l 1,123,-1
 110 325 l 2,124,125
 110 330 110 330 113 335 c 1,126,127
 105 364 105 364 105 382 c 2,128,-1
 106 419 l 2,129,130
 106 424 106 424 106 429 c 128,-1,131
 106 434 106 434 105 439 c 2,132,-1
 101 454 l 1,133,-1
 103 467 l 1,134,135
 103 481 103 481 98.5 496 c 128,-1,136
 94 511 94 511 94 528 c 1,137,-1
 97 551 l 2,138,139
 97 554 97 554 95.5 557 c 128,-1,140
 94 560 94 560 93 564 c 128,-1,141
 92 568 92 568 92.5 573 c 128,-1,142
 93 578 93 578 93 583 c 2,143,-1
 92 604 l 2,144,145
 92 614 92 614 95 620 c 1,146,147
 92 628 92 628 92 636 c 128,-1,148
 92 644 92 644 92 652 c 2,149,-1
 89 676 l 1,150,-1
 93 684 l 1,151,-1
 93 687 l 1,152,153
 90 700 90 700 90.5 714.5 c 128,-1,154
 91 729 91 729 88 741 c 0,155,156
 83 767 83 767 48 767 c 1,157,-1
 -3 764 l 1,158,-1
 -7 764 l 1,159,160
 -11 774 -11 774 -11 787 c 2,161,-1
 -11 792 l 1,162,163
 -4 797 -4 797 5 798 c 0,164,165
 53 800 53 800 86.5 806 c 128,-1,166
 120 812 120 812 124 813.5 c 128,-1,167
 128 815 128 815 132 815 c 2,168,-1
 146 813 l 1,169,-1
 188 815 l 1,170,-1
 236 809 l 1,171,172
 247 809 247 809 257 803.5 c 128,-1,173
 267 798 267 798 275 796 c 128,-1,174
 283 794 283 794 287 794.5 c 128,-1,175
 291 795 291 795 295 793.5 c 0,176,177
 332.6 779.4 332.6 779.4 343 769 c 1,178,-1
 346 770 l 1,179,180
 358 770 358 770 368 762.5 c 128,-1,181
 378 755 378 755 381.5 749 c 128,-1,182
 385 743 385 743 389 738.5 c 128,-1,183
 393 734 393 734 400 728.5 c 128,-1,184
 407 723 407 723 410.5 719 c 128,-1,185
 414 715 414 715 415 712 c 128,-1,186
 416 709 416 709 420 703.5 c 128,-1,187
 424 698 424 698 428.5 694 c 128,-1,188
 433 690 433 690 436 683 c 128,-1,189
 439 676 439 676 439 671.5 c 128,-1,190
 439 667 439 667 440.5 662.5 c 128,-1,191
 442 658 442 658 444.5 655.5 c 128,-1,192
 447 653 447 653 448 649 c 1,193,-1
 447 640 l 2,194,195
 447 634 447 634 451 623.5 c 128,-1,196
 455 613 455 613 457 607.5 c 128,-1,197
 459 602 459 602 461 600 c 1,198,199
 459 598 459 598 459 595 c 2,200,-1
 463 579 l 1,0,-1
394 537 m 1,201,-1
 398 569 l 1,202,-1
 396 585 l 1,203,204
 398 587 398 587 398 589.5 c 128,-1,205
 398 592 398 592 396.5 594 c 128,-1,206
 395 596 395 596 393.5 599 c 128,-1,207
 392 602 392 602 389 616.5 c 128,-1,208
 386 631 386 631 386 634.5 c 128,-1,209
 386 638 386 638 388 644 c 1,210,211
 378 657 378 657 374 677 c 1,212,213
 369 680 369 680 367.5 685 c 128,-1,214
 366 690 366 690 362.5 694.5 c 128,-1,215
 359 699 359 699 354.5 703 c 128,-1,216
 350 707 350 707 350 715 c 1,217,218
 328 725 328 725 318 738 c 1,219,220
 318 733 318 733 312 733 c 1,221,222
 302 737 302 737 296 741.5 c 128,-1,223
 290 746 290 746 278 745 c 1,224,225
 269 751 269 751 263 758 c 128,-1,226
 257 765 257 765 248.5 765 c 128,-1,227
 240 765 240 765 237 764 c 1,228,229
 217 768 217 768 195.5 768 c 128,-1,230
 174 768 174 768 168.5 765.5 c 128,-1,231
 163 763 163 763 160 763.5 c 128,-1,232
 157 764 157 764 151.5 764 c 128,-1,233
 146 764 146 764 144 762 c 0,234,235
 143 760 143 760 143 756 c 2,236,-1
 146 737 l 1,237,-1
 142 724 l 1,238,-1
 144 678 l 2,239,240
 144 670 144 670 146.5 666 c 128,-1,241
 149 662 149 662 149 658 c 1,242,-1
 146 649 l 1,243,-1
 150 641 l 1,244,-1
 149 634 l 2,245,246
 149 632 149 632 150.5 627.5 c 128,-1,247
 152 623 152 623 151 616.5 c 128,-1,248
 150 610 150 610 150 605 c 2,249,-1
 156 557 l 2,250,251
 157 552 157 552 156.5 547.5 c 128,-1,252
 156 543 156 543 156 538 c 2,253,-1
 162 486 l 1,254,-1
 160 478 l 1,255,-1
 166 461 l 1,256,-1
 164 455 l 1,257,258
 164 446 164 446 168 438 c 128,-1,259
 172 430 172 430 172 422 c 2,260,-1
 170 399 l 1,261,262
 170 382 170 382 176 337 c 1,263,264
 181 332 181 332 185.5 332.5 c 128,-1,265
 190 333 190 333 196 333 c 1,266,-1
 207 331 l 1,267,268
 224 331 224 331 276 352 c 0,269,270
 286 357 286 357 295 366.5 c 128,-1,271
 304 376 304 376 315 376 c 1,272,273
 325 390 325 390 339 398 c 1,274,275
 343 404 343 404 350 412 c 0,276,277
 375 441 375 441 382 469 c 0,278,279
 383 471 383 471 384 472.5 c 128,-1,280
 385 474 385 474 386 476.5 c 128,-1,281
 387 479 387 479 386.5 482 c 128,-1,282
 386 485 386 485 386 491 c 128,-1,283
 386 497 386 497 391 505.5 c 128,-1,284
 396 514 396 514 396 523 c 1,285,-1
 394 537 l 1,201,-1
341 185 m 2,286,-1
 343 199 l 1,287,288
 343 207 343 207 338.5 212.5 c 128,-1,289
 334 218 334 218 335 226 c 1,290,291
 330 230 330 230 328 235 c 128,-1,292
 326 240 326 240 322 245 c 1,293,294
 282 281 282 281 282 285.5 c 128,-1,295
 282 290 282 290 280 292 c 1,296,297
 253 300 253 300 241 300 c 128,-1,298
 229 300 229 300 213 292 c 1,299,-1
 207 292 l 2,300,301
 195 292 195 292 185 288 c 1,302,303
 184 276 184 276 179.5 267.5 c 128,-1,304
 175 259 175 259 175 248.5 c 128,-1,305
 175 238 175 238 176.5 228.5 c 128,-1,306
 178 219 178 219 179.5 207 c 128,-1,307
 181 195 181 195 180.5 181.5 c 128,-1,308
 180 168 180 168 181 159 c 128,-1,309
 182 150 182 150 183.5 146 c 128,-1,310
 185 142 185 142 185 138 c 2,311,-1
 183 130 l 1,312,-1
 185 123 l 1,313,-1
 183 103 l 1,314,-1
 187 84 l 1,315,-1
 185 68 l 2,316,317
 185 63 185 63 190 57 c 1,318,-1
 194 57 l 2,319,320
 202 57 202 57 207 60 c 128,-1,321
 212 63 212 63 221 61 c 1,322,323
 226 69 226 69 235.5 71.5 c 128,-1,324
 245 74 245 74 252 78 c 1,325,-1
 254 81 l 1,326,327
 258 83 258 83 262 83.5 c 128,-1,328
 266 84 266 84 270 85 c 1,329,330
 283 103 283 103 303 113 c 1,331,332
 306 118 306 118 310 120 c 0,333,334
 320 125 320 125 320 132 c 256,335,336
 320 135 320 135 328.5 147.5 c 128,-1,337
 337 160 337 160 341 185 c 2,286,-1
EndSplineSet
EndChar

StartChar: C
Encoding: 67 67 38
Width: 681
Flags: HW
LayerCount: 2
Fore
SplineSet
232.5 674 m 0,0,1
 212 674 212 674 212 665 c 0,2,3
 212 659 212 659 208 657 c 2,4,-1
 193 649 l 1,5,6
 184 629 184 629 173 624 c 1,7,-1
 167 610 l 1,8,9
 163 609 163 609 162 605.5 c 128,-1,10
 161 602 161 602 157 600 c 1,11,12
 157 590 157 590 152 584.5 c 128,-1,13
 147 579 147 579 148 567 c 1,14,15
 143 565 143 565 142 561 c 128,-1,16
 141 557 141 557 135 555 c 1,17,18
 137 554 137 554 137 549 c 128,-1,19
 137 544 137 544 130 536 c 1,20,21
 130 522 130 522 120 492 c 128,-1,22
 110 462 110 462 108 459 c 1,23,24
 110 458 110 458 110 454 c 2,25,-1
 108 441 l 1,26,-1
 111 422 l 1,27,-1
 110 403 l 2,28,29
 110 395 110 395 110 387 c 128,-1,30
 110 379 110 379 111.5 373.5 c 128,-1,31
 113 368 113 368 114.5 364.5 c 128,-1,32
 116 361 116 361 116 360 c 2,33,-1
 116 342 l 2,34,35
 116 329 116 329 121.5 317 c 128,-1,36
 127 305 127 305 127.5 295 c 128,-1,37
 128 285 128 285 133.5 283.5 c 128,-1,38
 139 282 139 282 139 275 c 1,39,-1
 135 268 l 1,40,-1
 135 266 l 1,41,42
 162 198 162 198 207 156 c 0,43,44
 218 145 218 145 227 132 c 1,45,46
 233 132 233 132 250 121 c 1,47,-1
 259 113 l 1,48,49
 268 108 268 108 275 104.5 c 128,-1,50
 282 101 282 101 287 93 c 1,51,52
 295 92 295 92 301.5 87.5 c 128,-1,53
 308 83 308 83 312 83 c 2,54,-1
 321 85 l 1,55,-1
 323 85 l 1,56,57
 325 81 325 81 339.5 77 c 128,-1,58
 354 73 354 73 356 73 c 2,59,-1
 366 74 l 2,60,61
 374 74 374 74 381.5 71.5 c 128,-1,62
 389 69 389 69 398 70 c 1,63,-1
 402 70 l 1,64,65
 404 72 404 72 407 72 c 2,66,-1
 413 70 l 1,67,-1
 431 74 l 1,68,-1
 463 72 l 2,69,70
 479 72 479 72 486 76 c 128,-1,71
 493 80 493 80 492 83 c 1,72,73
 511 83 511 83 517 88 c 128,-1,74
 523 93 523 93 525.5 95 c 128,-1,75
 528 97 528 97 531.5 98 c 128,-1,76
 535 99 535 99 537 100.5 c 128,-1,77
 539 102 539 102 539 103.5 c 128,-1,78
 539 105 539 105 541 107 c 128,-1,79
 543 109 543 109 544 108.5 c 128,-1,80
 545 108 545 108 547.5 109.5 c 0,81,82
 555 114 555 114 571 130 c 1,83,84
 591 146 591 146 594 146 c 1,85,86
 596 152 596 152 599 156 c 128,-1,87
 602 160 602 160 603 166 c 1,88,89
 616 171 616 171 621 183 c 128,-1,90
 626 195 626 195 637 200 c 1,91,92
 659 191 659 191 659 177 c 0,93,94
 659 169 659 169 651.5 164.5 c 128,-1,95
 644 160 644 160 640 155.5 c 128,-1,96
 636 151 636 151 635 146.5 c 128,-1,97
 634 142 634 142 631 138 c 1,98,99
 618 133 618 133 618 125 c 1,100,-1
 616 125 l 2,101,102
 613 125 613 125 611 123.5 c 128,-1,103
 609 122 609 122 606 121 c 1,104,105
 603 116 603 116 599.5 111 c 128,-1,106
 596 106 596 106 594 101 c 1,107,108
 589 99 589 99 585 95.5 c 128,-1,109
 581 92 581 92 576 91 c 1,110,111
 572 83 572 83 564.5 77.5 c 128,-1,112
 557 72 557 72 552 63 c 1,113,114
 545 63 545 63 541.5 59.5 c 128,-1,115
 538 56 538 56 531.5 56 c 128,-1,116
 525 56 525 56 523.5 53 c 128,-1,117
 522 50 522 50 513 52 c 1,118,119
 511 50 511 50 498 38 c 1,120,-1
 476 34 l 1,121,-1
 462 38 l 1,122,123
 429 38 429 38 419 34 c 2,124,-1
 404 28 l 2,125,126
 395 25 395 25 378 25 c 1,127,-1
 350 29 l 2,128,129
 344 29 344 29 336 25 c 1,130,131
 332 28 332 28 327 28 c 2,132,-1
 315.5 28 l 2,133,134
 309 28 309 28 306.5 31 c 128,-1,135
 304 34 304 34 294 34 c 2,136,-1
 293 34 l 1,137,-1
 289 38 l 1,138,139
 242 56 242 56 218 61 c 1,140,141
 212 74 212 74 193 79 c 1,142,143
 193 82 193 82 189 83 c 128,-1,144
 185 84 185 84 185 87.5 c 128,-1,145
 185 91 185 91 183 93 c 1,146,147
 163 99 163 99 148 125 c 1,148,149
 140 126 140 126 132 130 c 1,150,151
 130 133 130 133 125.5 137.5 c 128,-1,152
 121 142 121 142 116.5 148 c 128,-1,153
 112 154 112 154 108.5 158 c 128,-1,154
 105 162 105 162 105 164 c 1,155,156
 98 167 98 167 90 172 c 1,157,158
 74 201 74 201 70 220 c 128,-1,159
 66 239 66 239 63.5 244.5 c 128,-1,160
 61 250 61 250 57.5 255.5 c 128,-1,161
 54 261 54 261 51.5 265.5 c 128,-1,162
 49 270 49 270 50 274 c 128,-1,163
 51 278 51 278 49 282 c 2,164,-1
 45 294 l 2,165,166
 44 297 44 297 44.5 300.5 c 128,-1,167
 45 304 45 304 45 307 c 2,168,-1
 39 348 l 1,169,-1
 41 384 l 1,170,-1
 41 402 l 2,171,172
 41 419 41 419 47 436.5 c 128,-1,173
 53 454 53 454 58 469 c 1,174,175
 57 471 57 471 57 474 c 128,-1,176
 57 477 57 477 59.5 485 c 128,-1,177
 62 493 62 493 65.5 501.5 c 128,-1,178
 69 510 69 510 72 517.5 c 128,-1,179
 75 525 75 525 77.5 528.5 c 128,-1,180
 80 532 80 532 84 537.5 c 128,-1,181
 88 543 88 543 92 554.5 c 128,-1,182
 96 566 96 566 103 575 c 128,-1,183
 110 584 110 584 110 593 c 1,184,185
 131 606 131 606 135 628 c 1,186,187
 142 630 142 630 155.5 645 c 128,-1,188
 169 660 169 660 169 662 c 1,189,190
 172 663 172 663 171.5 665 c 128,-1,191
 171 667 171 667 173 669 c 2,192,-1
 177 671 l 1,193,194
 182 680 182 680 191.5 687 c 128,-1,195
 201 694 201 694 201 698 c 1,196,197
 209 700 209 700 216 706.5 c 128,-1,198
 223 713 223 713 229 716 c 128,-1,199
 235 719 235 719 239.5 721 c 128,-1,200
 244 723 244 723 246 728 c 1,201,-1
 249 727 l 1,202,203
 255 727 255 727 257 731.5 c 128,-1,204
 259 736 259 736 271 736 c 0,205,206
 272 736 272 736 274 740 c 1,207,208
 282 742 282 742 289 743 c 128,-1,209
 296 744 296 744 303 752 c 1,210,211
 320 752 320 752 336 762 c 1,212,213
 338 761 338 761 343 761 c 256,214,215
 348 761 348 761 351.5 763 c 128,-1,216
 355 765 355 765 361.5 766 c 128,-1,217
 368 767 368 767 378 766.5 c 128,-1,218
 388 766 388 766 394.5 769 c 128,-1,219
 401 772 401 772 401.5 773 c 128,-1,220
 402 774 402 774 409 774 c 1,221,-1
 435 769 l 1,222,-1
 457 772 l 1,223,-1
 471 768 l 1,224,-1
 482 769 l 1,225,-1
 482 768 l 2,226,227
 482 765 482 765 484.5 765.5 c 128,-1,228
 487 766 487 766 491 766 c 128,-1,229
 495 766 495 766 498 760 c 1,230,-1
 503 760 l 2,231,232
 520 760 520 760 556 734 c 0,233,234
 568 726 568 726 572.5 722 c 128,-1,235
 577 718 577 718 592 715 c 1,236,237
 594 721 594 721 595.5 728.5 c 0,238,239
 602.2 762 602.2 762 622 762 c 0,240,241
 629 762 629 762 634 756 c 128,-1,242
 639 750 639 750 639 744 c 128,-1,243
 639 738 639 738 637 732 c 1,244,245
 638 730 638 730 638 724 c 256,246,247
 638 718 638 718 632.5 697.5 c 128,-1,248
 627 677 627 677 627 645 c 1,249,-1
 629 635 l 1,250,251
 629 614 629 614 637 606 c 1,252,253
 632 600 632 600 626 585 c 1,254,255
 622 583 622 583 618.5 581 c 128,-1,256
 615 579 615 579 608.5 579 c 128,-1,257
 602 579 602 579 596 586 c 0,258,259
 587 596.5 587 596.5 587 604 c 2,260,-1
 587 611 l 2,261,262
 587 622.5 587 622.5 582.5 629.25 c 128,-1,263
 578 636 578 636 580 642 c 1,264,265
 574 646 574 646 569 651 c 1,266,-1
 569 657 l 2,267,268
 569 680 569 680 542 694 c 0,269,270
 537 696 537 696 537 700 c 1,271,-1
 522 705 l 1,272,273
 519 710 519 710 513 711.5 c 128,-1,274
 507 713 507 713 505 719 c 1,275,-1
 503 719 l 1,276,-1
 493 716 l 1,277,-1
 478 726 l 1,278,279
 475 725 475 725 469 725 c 256,280,281
 463 725 463 725 458 730 c 1,282,283
 458 728 458 728 455.5 728 c 128,-1,284
 453 728 453 728 453 730 c 1,285,-1
 435 726 l 1,286,287
 426 726 426 726 420.5 730 c 128,-1,288
 415 734 415 734 403 734 c 128,-1,289
 391 734 391 734 383 726 c 1,290,291
 352 726 352 726 336 715 c 1,292,-1
 332 715 l 2,293,294
 319 715 319 715 311.5 711.5 c 128,-1,295
 304 708 304 708 301.5 708.5 c 128,-1,296
 299 709 299 709 296.5 709 c 128,-1,297
 294 709 294 709 292 707.5 c 128,-1,298
 290 706 290 706 276.5 701 c 128,-1,299
 263 696 263 696 238 673 c 1,300,301
 237 674 237 674 232.5 674 c 0,0,1
EndSplineSet
EndChar

StartChar: D
Encoding: 68 68 39
Width: 595
Flags: HW
LayerCount: 2
Fore
SplineSet
553 494 m 1,0,-1
 550 480 l 2,1,2
 550 476 550 476 552 472 c 128,-1,3
 554 468 554 468 555.5 462 c 128,-1,4
 557 456 557 456 556.5 447 c 128,-1,5
 556 438 556 438 556 411 c 128,-1,6
 556 384 556 384 551 384 c 0,7,8
 549 384 549 384 549 377 c 128,-1,9
 549 370 549 370 546 369 c 128,-1,10
 543 368 543 368 543 359 c 1,11,-1
 542 358 l 1,12,-1
 538 356 l 1,13,14
 536 352 536 352 536.5 348 c 128,-1,15
 537 344 537 344 536 339 c 1,16,17
 528 333 528 333 525 325.5 c 128,-1,18
 522 318 522 318 518 310 c 1,19,-1
 514 308 l 1,20,-1
 516 304 l 2,21,22
 516 302 516 302 513.5 300.5 c 128,-1,23
 511 299 511 299 511 295.5 c 128,-1,24
 511 292 511 292 507 291 c 128,-1,25
 503 290 503 290 505 284 c 1,26,27
 503 282 503 282 499 282 c 128,-1,28
 495 282 495 282 493 280 c 0,29,30
 478 252 478 252 446 229 c 1,31,32
 443 224 443 224 442.5 219 c 128,-1,33
 442 214 442 214 440 210 c 1,34,35
 435 206 435 206 430 205.5 c 128,-1,36
 425 205 425 205 418 198 c 1,37,38
 392 186 392 186 385 173 c 1,39,-1
 383 173 l 2,40,41
 370 173 370 173 366.5 169.5 c 128,-1,42
 363 166 363 166 356 157 c 1,43,44
 348 157 348 157 344.5 152 c 128,-1,45
 341 147 341 147 336 142 c 1,46,-1
 334 142 l 1,47,48
 328 143 328 143 323.5 139.5 c 128,-1,49
 319 136 319 136 312 137 c 1,50,51
 309 136 309 136 307.5 133 c 128,-1,52
 306 130 306 130 304 128 c 1,53,-1
 303 128 l 2,54,55
 293 128 293 128 277 117 c 128,-1,56
 261 106 261 106 259 104 c 1,57,58
 254 104 254 104 248 104.5 c 0,59,60
 228.684931507 106.109589041 228.684931507 106.109589041 227 96 c 1,61,62
 224 87 224 87 198.5 87 c 128,-1,63
 173 87 173 87 166 76 c 1,64,-1
 160 77 l 1,65,-1
 115 71 l 1,66,67
 101 71 101 71 94 76 c 1,68,69
 93 79 93 79 93 89 c 128,-1,70
 93 99 93 99 103 109 c 1,71,72
 109 110 109 110 115 111.5 c 128,-1,73
 121 113 121 113 125.5 113 c 128,-1,74
 130 113 130 113 136 111 c 1,75,76
 141 115 141 115 148 116 c 128,-1,77
 155 117 155 117 160 120 c 1,78,79
 160 191 160 191 156.5 206.5 c 128,-1,80
 153 222 153 222 153 224 c 2,81,-1
 154 238 l 1,82,-1
 151 254 l 2,83,84
 151 257 151 257 154 260 c 1,85,86
 144 274 144 274 145 294.5 c 128,-1,87
 146 315 146 315 146 328 c 128,-1,88
 146 341 146 341 143 345 c 1,89,-1
 146 350 l 1,90,91
 146 356 146 356 143 365 c 128,-1,92
 140 374 140 374 140 385 c 2,93,-1
 142 438 l 2,94,95
 142 446 142 446 139 461 c 1,96,-1
 140 471 l 1,97,-1
 136 479 l 1,98,-1
 139 490 l 2,99,100
 139 493 139 493 138 493 c 128,-1,101
 137 493 137 493 137 495 c 256,102,103
 137 497 137 497 138 497 c 128,-1,104
 139 497 139 497 139 499 c 256,105,106
 139 501 139 501 137.5 502 c 128,-1,107
 136 503 136 503 136 511 c 2,108,-1
 136 512 l 1,109,110
 129 561 129 561 129 566 c 1,111,112
 127 570 127 570 127 572 c 2,113,-1
 130 578 l 1,114,-1
 126 590 l 1,115,-1
 129 605 l 2,116,117
 129 609 129 609 128 613 c 128,-1,118
 127 617 127 617 126 621.5 c 128,-1,119
 125 626 125 626 125.5 630 c 128,-1,120
 126 634 126 634 125 638 c 128,-1,121
 124 642 124 642 122.5 645 c 128,-1,122
 121 648 121 648 120 650.5 c 128,-1,123
 119 653 119 653 119.5 655 c 128,-1,124
 120 657 120 657 120 659 c 2,125,-1
 120 660 l 1,126,-1
 117 665 l 1,127,128
 119 671 119 671 119 673 c 2,129,-1
 114 724 l 1,130,-1
 117 742 l 1,131,132
 117 752 117 752 111 759.5 c 128,-1,133
 105 767 105 767 105 770.5 c 128,-1,134
 105 774 105 774 107 778 c 1,135,136
 105 780 105 780 97 785 c 128,-1,137
 89 790 89 790 86 790 c 256,138,139
 83 790 83 790 82 787 c 128,-1,140
 81 784 81 784 77 782.5 c 128,-1,141
 73 781 73 781 63.5 780 c 128,-1,142
 54 779 54 779 50 777.5 c 128,-1,143
 46 776 46 776 42.5 776 c 128,-1,144
 39 776 39 776 37.5 779.5 c 128,-1,145
 36 783 36 783 28.5 783 c 128,-1,146
 21 783 21 783 14.5 776 c 128,-1,147
 8 769 8 769 -3 769 c 1,148,149
 -11 777 -11 777 -11 785 c 2,150,-1
 -10 805 l 1,151,152
 -4 811 -4 811 3.5 810.5 c 128,-1,153
 11 810 11 810 17 811 c 128,-1,154
 23 812 23 812 25.5 814 c 128,-1,155
 28 816 28 816 31 817 c 128,-1,156
 34 818 34 818 37 817 c 128,-1,157
 40 816 40 816 41.5 816 c 128,-1,158
 43 816 43 816 51 820 c 1,159,-1
 62 819 l 2,160,161
 65 819 65 819 67 820.5 c 0,162,163
 73 825 73 825 100 825 c 1,164,-1
 113 822 l 1,165,-1
 124 826 l 1,166,-1
 136 823 l 1,167,-1
 144 825 l 1,168,-1
 150 823 l 1,169,-1
 156 826 l 1,170,171
 163 826 163 826 169 824 c 128,-1,172
 175 822 175 822 182.5 821 c 128,-1,173
 190 820 190 820 199 820.5 c 128,-1,174
 208 821 208 821 217 819 c 2,175,-1
 235 815 l 2,176,177
 239 814 239 814 242.5 814.5 c 128,-1,178
 246 815 246 815 249.5 814 c 128,-1,179
 253 813 253 813 255.5 811.5 c 128,-1,180
 258 810 258 810 262 809 c 128,-1,181
 266 808 266 808 272 808 c 128,-1,182
 278 808 278 808 285.5 806 c 128,-1,183
 293 804 293 804 301.5 801 c 128,-1,184
 310 798 310 798 317.5 795.5 c 128,-1,185
 325 793 325 793 329.5 792.5 c 128,-1,186
 334 792 334 792 340.5 789 c 128,-1,187
 347 786 347 786 354.5 780.5 c 128,-1,188
 362 775 362 775 372.5 769.5 c 128,-1,189
 383 764 383 764 396.5 757 c 128,-1,190
 410 750 410 750 418 742.5 c 128,-1,191
 426 735 426 735 429.5 730 c 128,-1,192
 433 725 433 725 438 719.5 c 128,-1,193
 443 714 443 714 449.5 708.5 c 128,-1,194
 456 703 456 703 460 698 c 128,-1,195
 464 693 464 693 466 689 c 0,196,197
 471 679 471 679 475 679 c 0,198,199
 476 679 476 679 479 671 c 1,200,201
 481 669 481 669 483 666 c 128,-1,202
 485 663 485 663 489 663 c 1,203,204
 503 629 503 629 521 607 c 1,205,206
 529 575 529 575 536.5 562 c 128,-1,207
 544 549 544 549 545 538.5 c 128,-1,208
 546 528 546 528 548 519.5 c 128,-1,209
 550 511 550 511 551.5 505.5 c 128,-1,210
 553 500 553 500 553 494 c 1,0,-1
347 730 m 2,211,-1
 340 729.5 l 2,212,213
 340 730 340 730 330 732.5 c 128,-1,214
 320 735 320 735 307 744 c 1,215,-1
 305 744 l 2,216,217
 297 744 297 744 277 754 c 1,218,219
 256 751 256 751 249.5 751 c 128,-1,220
 243 751 243 751 236 754 c 128,-1,221
 229 757 229 757 220.5 758.5 c 128,-1,222
 212 760 212 760 202 760 c 128,-1,223
 192 760 192 760 182 760 c 1,224,-1
 178 759 l 1,225,226
 178 757 178 757 178 755 c 128,-1,227
 178 753 178 753 176 753 c 1,228,-1
 176 751 l 2,229,230
 176 733 176 733 178.5 721.5 c 128,-1,231
 181 710 181 710 181 704.5 c 128,-1,232
 181 699 181 699 179 697 c 1,233,234
 186 687 186 687 184.5 675 c 128,-1,235
 183 663 183 663 186 651 c 1,236,237
 192 638 192 638 192 610 c 1,238,-1
 199 579 l 1,239,-1
 196 557 l 2,240,241
 196 552 196 552 198 548 c 128,-1,242
 200 544 200 544 201 539.5 c 128,-1,243
 202 535 202 535 201.5 531.5 c 128,-1,244
 201 528 201 528 201 524 c 2,245,-1
 203 511 l 2,246,247
 211 455 211 455 211 440 c 2,248,-1
 211 418 l 2,249,250
 211 411 211 411 210 404 c 1,251,252
 214 398 214 398 214 393 c 2,253,-1
 212 381 l 1,254,-1
 215 358 l 1,255,-1
 213 351 l 1,256,-1
 216 335 l 1,257,258
 214 333 214 333 214 329 c 128,-1,259
 214 325 214 325 216 320 c 128,-1,260
 218 315 218 315 219 310.5 c 128,-1,261
 220 306 220 306 219.5 302.5 c 128,-1,262
 219 299 219 299 220.5 288.5 c 128,-1,263
 222 278 222 278 225 261.5 c 128,-1,264
 228 245 228 245 228 228 c 2,265,-1
 226 187 l 2,266,267
 226 179 226 179 229 137 c 1,268,-1
 235 137 l 2,269,270
 241.4 137 241.4 137 255.7 143.5 c 128,-1,271
 270 150 270 150 278.5 152.5 c 128,-1,272
 287 155 287 155 292 159 c 128,-1,273
 297 163 297 163 308 167 c 1,274,-1
 343 191 l 2,275,276
 378 216 378 216 417.5 258.5 c 128,-1,277
 457 301 457 301 472.5 347.5 c 128,-1,278
 488 394 488 394 488 419 c 128,-1,279
 488 444 488 444 484 469 c 128,-1,280
 480 494 480 494 479 519 c 1,281,282
 473 524 473 524 473 532 c 128,-1,283
 473 540 473 540 471.5 544.5 c 128,-1,284
 470 549 470 549 469 551.5 c 128,-1,285
 468 554 468 554 468 556 c 2,286,-1
 469 559 l 1,287,288
 456 572 456 572 456 601 c 1,289,290
 450 609 450 609 444 615.5 c 128,-1,291
 438 622 438 622 439 633 c 1,292,293
 426 642 426 642 427 653 c 1,294,295
 417 657 417 657 410 667 c 1,296,297
 408 676 408 676 400.5 682.5 c 128,-1,298
 393 689 393 689 391 698 c 1,299,300
 383 701 383 701 376 705 c 128,-1,301
 369 709 369 709 369 719 c 1,302,303
 362 719 362 719 356.5 724.5 c 128,-1,304
 351 730 351 730 347 730 c 2,211,-1
EndSplineSet
EndChar

StartChar: E
Encoding: 69 69 40
Width: 496
Flags: HW
LayerCount: 2
Fore
SplineSet
88 383 m 1,0,-1
 95 479 l 1,1,-1
 95 512 l 2,2,3
 95 518 95 518 94 526 c 2,4,-1
 91 562 l 2,5,6
 90 571 90 571 90.5 581 c 128,-1,7
 91 591 91 591 91 598 c 2,8,-1
 91 610 l 2,9,10
 91 614 91 614 90 620 c 2,11,-1
 87 633 l 1,12,-1
 88 643 l 2,13,14
 88 648 88 648 86 651 c 128,-1,15
 84 654 84 654 82.5 660 c 128,-1,16
 81 666 81 666 82 674 c 128,-1,17
 83 682 83 682 81.5 686.5 c 128,-1,18
 80 691 80 691 77.5 693 c 128,-1,19
 75 695 75 695 73 697.5 c 128,-1,20
 71 700 71 700 70.5 703 c 128,-1,21
 70 706 70 706 66.5 709.5 c 128,-1,22
 63 713 63 713 55.5 716 c 128,-1,23
 48 719 48 719 42 724 c 1,24,25
 43 731 43 731 42.5 737.5 c 128,-1,26
 42 744 42 744 46 752 c 1,27,28
 58 756 58 756 71.5 756 c 128,-1,29
 85 756 85 756 92.5 750.5 c 128,-1,30
 100 745 100 745 109.5 745 c 128,-1,31
 119 745 119 745 130 754 c 1,32,33
 139 751 139 751 155 751 c 2,34,-1
 192 752 l 1,35,-1
 241 748 l 1,36,-1
 259 750 l 1,37,38
 273 750 273 750 286 746 c 128,-1,39
 299 742 299 742 313 742 c 2,40,-1
 337 743 l 1,41,-1
 351 745 l 1,42,-1
 368 741 l 1,43,-1
 386 743 l 1,44,-1
 403 742 l 2,45,46
 411 742 411 742 420 745 c 1,47,48
 428 762 428 762 430.5 782 c 128,-1,49
 433 802 433 802 443 816 c 1,50,51
 453 818 453 818 458.5 818 c 128,-1,52
 464 818 464 818 467 813 c 128,-1,53
 470 808 470 808 470 805 c 2,54,-1
 468 799 l 1,55,-1
 471 777 l 1,56,-1
 469 759 l 1,57,-1
 472 730 l 1,58,-1
 470 712 l 1,59,-1
 473 696 l 1,60,-1
 470 676 l 1,61,-1
 471 669 l 1,62,63
 466 665 466 665 463.5 658 c 128,-1,64
 461 651 461 651 458 646 c 1,65,66
 452 643 452 643 445.5 639.5 c 128,-1,67
 439 636 439 636 435 636 c 0,68,69
 430.6 636 430.6 636 425.8 649 c 128,-1,70
 421 662 421 662 421 670 c 2,71,-1
 423 692 l 1,72,-1
 423 698 l 1,73,74
 415 706 415 706 403 706 c 1,75,-1
 385 701 l 1,76,-1
 355 708 l 1,77,-1
 330 706 l 2,78,79
 327 706 327 706 325 708 c 1,80,-1
 305 708 l 1,81,-1
 268 710 l 2,82,83
 257 710 257 710 250 707.5 c 128,-1,84
 243 705 243 705 235 703 c 128,-1,85
 227 701 227 701 215.5 699.5 c 128,-1,86
 204 698 204 698 192.5 697 c 128,-1,87
 181 696 181 696 169.5 695 c 128,-1,88
 158 694 158 694 153 694 c 1,89,90
 148 689 148 689 149 681.5 c 128,-1,91
 150 674 150 674 148 669.5 c 128,-1,92
 146 665 146 665 145 665 c 128,-1,93
 144 665 144 665 144 658 c 2,94,-1
 150 609 l 1,95,-1
 150 583 l 1,96,-1
 151 569 l 1,97,98
 149 569 149 569 149 564.5 c 128,-1,99
 149 560 149 560 156 546 c 1,100,101
 155 542 155 542 155 535 c 1,102,-1
 152 522 l 1,103,-1
 155 510 l 1,104,-1
 154 486 l 1,105,-1
 156 456 l 1,106,-1
 149 343 l 2,107,108
 149 328 149 328 153 312 c 128,-1,109
 157 296 157 296 154 282 c 1,110,111
 164 272 164 272 195.5 272 c 128,-1,112
 227 272 227 272 234 271 c 2,113,-1
 246 269 l 1,114,-1
 256 271 l 1,115,-1
 279 267 l 1,116,-1
 303 265 l 1,117,118
 316 265 316 265 320 276 c 1,119,120
 322.6 291.6 322.6 291.6 328 297 c 1,121,122
 328 311 328 311 333 321 c 1,123,-1
 348 325 l 1,124,125
 353 325 353 325 357.5 316.5 c 128,-1,126
 362 308 362 308 362 303 c 2,127,-1
 354 242 l 1,128,-1
 358 214 l 1,129,130
 351 202 351 202 347 190 c 1,131,132
 341 189 341 189 335 186.5 c 128,-1,133
 329 184 329 184 323 184 c 1,134,135
 321 186 321 186 319.5 189.5 c 128,-1,136
 318 193 318 193 314.5 196.5 c 128,-1,137
 311 200 311 200 309.5 208.5 c 128,-1,138
 308 217 308 217 306 224 c 1,139,140
 299 229 299 229 290 227.5 c 128,-1,141
 281 226 281 226 275 232 c 1,142,143
 267 228 267 228 261.5 228 c 128,-1,144
 256 228 256 228 250 232 c 1,145,146
 238 228 238 228 224 228 c 2,147,-1
 191 229 l 1,148,-1
 182 229 l 2,149,150
 175 229 175 229 168.5 226 c 128,-1,151
 162 223 162 223 160 223.5 c 128,-1,152
 158 224 158 224 156 222 c 1,153,-1
 157 218 l 1,154,-1
 151 168 l 1,155,-1
 153 139 l 1,156,-1
 150 122 l 1,157,-1
 153 110 l 1,158,-1
 150 65 l 1,159,160
 150 33 150 33 171 33 c 1,161,-1
 190 35 l 1,162,-1
 214 32 l 2,163,164
 222 32 222 32 227 37 c 1,165,166
 234 34 234 34 243 34 c 2,167,-1
 280 37 l 1,168,-1
 286 37 l 2,169,170
 290 37 290 37 294 35 c 1,171,172
 305 39 305 39 322 39 c 128,-1,173
 339 39 339 39 349.5 40 c 128,-1,174
 360 41 360 41 369.5 42.5 c 128,-1,175
 379 44 379 44 388 44 c 2,176,-1
 405 43 l 2,177,178
 416 43 416 43 418.5 47.5 c 128,-1,179
 421 52 421 52 426 54 c 1,180,181
 427 58 427 58 428 65 c 0,182,183
 432 93 432 93 445.5 93 c 0,184,185
 455 93 455 93 457.5 88 c 128,-1,186
 460 83 460 83 467 78 c 1,187,188
 470 42 470 42 470 29 c 1,189,190
 468 29 468 29 468 27 c 2,191,-1
 470 4 l 2,192,193
 470 -7 470 -7 465 -15 c 1,194,195
 466 -20 466 -20 460 -20 c 128,-1,196
 454 -20 454 -20 450.5 -22.5 c 128,-1,197
 447 -25 447 -25 445 -28 c 128,-1,198
 443 -31 443 -31 438 -31 c 1,199,-1
 421 -25 l 1,200,201
 420 -16 420 -16 419 -5 c 128,-1,202
 418 6 418 6 413 14 c 1,203,204
 407 13 407 13 401 13 c 2,205,-1
 388 13 l 2,206,207
 368 13 368 13 366 7 c 1,208,209
 362 9 362 9 357.5 9 c 128,-1,210
 353 9 353 9 347 5 c 1,211,212
 344 8 344 8 339 8 c 2,213,-1
 325 7 l 1,214,-1
 314 9 l 1,215,-1
 303 7 l 1,216,-1
 286 12 l 1,217,218
 276 12 276 12 254 -3 c 1,219,-1
 228 4 l 2,220,221
 226 4 226 4 224.5 1.5 c 128,-1,222
 223 -1 223 -1 219 -1 c 2,223,-1
 188 3 l 1,224,-1
 167 0 l 1,225,-1
 151 0 l 2,226,227
 125 0 125 0 116 -7 c 1,228,229
 111 -3 111 -3 102 -3 c 1,230,-1
 95 -5 l 1,231,-1
 90 -3 l 1,232,233
 82 -3 82 -3 72.5 -9 c 128,-1,234
 63 -15 63 -15 60 -15 c 0,235,236
 40 -15 40 -15 40 10 c 2,237,-1
 40 15 l 1,238,239
 44 23 44 23 62 27 c 128,-1,240
 80 31 80 31 82 31 c 1,241,242
 86 39 86 39 87.5 50 c 128,-1,243
 89 61 89 61 90 68 c 128,-1,244
 91 75 91 75 91 78 c 2,245,-1
 88 96 l 1,246,-1
 91 108 l 1,247,-1
 88 116 l 1,248,-1
 90 126 l 1,249,-1
 87 135 l 1,250,-1
 90 161 l 2,251,252
 91 165 91 165 90.5 168.5 c 128,-1,253
 90 172 90 172 90 177 c 2,254,-1
 93 203 l 1,255,-1
 89 228 l 2,256,257
 89 233 89 233 90 237 c 128,-1,258
 91 241 91 241 92 246.5 c 128,-1,259
 93 252 93 252 92.5 258.5 c 128,-1,260
 92 265 92 265 92 271 c 2,261,-1
 92 282 l 1,262,263
 90 282 90 282 90 284 c 2,264,-1
 93 291 l 1,265,-1
 90 303 l 2,266,267
 87 314 87 314 87.5 331.5 c 128,-1,268
 88 349 88 349 88 361 c 2,269,-1
 88 383 l 1,0,-1
EndSplineSet
EndChar

StartChar: F
Encoding: 70 70 41
Width: 474
Flags: HW
LayerCount: 2
Fore
SplineSet
148 113 m 1,0,1
 147 123 147 123 147 146 c 2,2,-1
 147 158 l 2,3,4
 147 168 147 168 144.5 171.5 c 128,-1,5
 142 175 142 175 140 182.5 c 128,-1,6
 138 190 138 190 137.5 203.5 c 128,-1,7
 137 217 137 217 135.5 225.5 c 128,-1,8
 134 234 134 234 131.5 247 c 128,-1,9
 129 260 129 260 129 262 c 2,10,-1
 131 266 l 1,11,-1
 127 275 l 1,12,-1
 129 286 l 1,13,-1
 125 324 l 2,14,15
 124 336 124 336 124 348 c 2,16,-1
 124 373 l 1,17,-1
 125 378 l 1,18,-1
 122 390 l 2,19,20
 121 394 121 394 121.5 397.5 c 128,-1,21
 122 401 122 401 122 409 c 128,-1,22
 122 417 122 417 119 426.5 c 0,23,24
 112 448.666666667 112 448.666666667 112 476 c 1,25,-1
 114 484 l 1,26,-1
 109 497 l 1,27,-1
 109 498 l 1,28,29
 112 502 112 502 112 504 c 256,30,31
 112 506 112 506 110 509.5 c 128,-1,32
 108 513 108 513 106.5 524.5 c 128,-1,33
 105 536 105 536 106 554.5 c 128,-1,34
 107 573 107 573 101 593 c 1,35,-1
 105 608 l 1,36,-1
 101 624 l 1,37,-1
 104 641 l 1,38,39
 104 652 104 652 90.5 661 c 128,-1,40
 77 670 77 670 71 670 c 2,41,-1
 47 668 l 2,42,43
 42 668 42 668 39 669 c 1,44,-1
 37 673 l 1,45,-1
 36 673 l 1,46,-1
 18 671 l 2,47,48
 11 671 11 671 1 675 c 1,49,50
 0 678 0 678 0 683 c 256,51,52
 0 688 0 688 3 700 c 1,53,54
 20 705 20 705 41.5 705 c 2,55,-1
 81 705 l 2,56,57
 112 705 112 705 116.5 711 c 128,-1,58
 121 717 121 717 127 717 c 128,-1,59
 133 717 133 717 142.5 711.5 c 128,-1,60
 152 706 152 706 155 702 c 1,61,-1
 172 707 l 1,62,63
 176 707 176 707 182 702 c 1,64,65
 186 708 186 708 194.5 707.5 c 128,-1,66
 203 707 203 707 208 707 c 2,67,-1
 214 707 l 1,68,-1
 215 709 l 1,69,-1
 222 707 l 1,70,-1
 240 709 l 1,71,-1
 251 707 l 1,72,-1
 266 708 l 2,73,74
 275 708 275 708 278 705 c 1,75,76
 289 712 289 712 309 712 c 2,77,-1
 349 711 l 1,78,-1
 363 713 l 1,79,-1
 380 711 l 1,80,-1
 390 715 l 2,81,82
 391 715 391 715 391 714.5 c 128,-1,83
 391 714 391 714 393.5 714 c 128,-1,84
 396 714 396 714 397.5 717 c 128,-1,85
 399 720 399 720 400 728.5 c 128,-1,86
 401 737 401 737 402 745 c 0,87,88
 406 764 406 764 421 764 c 0,89,90
 425 764 425 764 428.5 761.5 c 128,-1,91
 432 759 432 759 436 758 c 1,92,93
 438 749 438 749 441 740 c 128,-1,94
 444 731 444 731 444 722 c 2,95,-1
 443 692 l 2,96,97
 443 684 443 684 444.5 679.5 c 128,-1,98
 446 675 446 675 447.5 666.5 c 128,-1,99
 449 658 449 658 448.5 649 c 128,-1,100
 448 640 448 640 449 632.5 c 128,-1,101
 450 625 450 625 452.5 618 c 128,-1,102
 455 611 455 611 455 604 c 0,103,104
 455 583 455 583 419 583 c 1,105,106
 412 590 412 590 410 612.5 c 128,-1,107
 408 635 408 635 407 646 c 128,-1,108
 406 657 406 657 400 666 c 0,109,110
 398 668 398 668 394 667 c 128,-1,111
 390 666 390 666 386.5 669 c 128,-1,112
 383 672 383 672 381 669 c 1,113,114
 373 674 373 674 370.5 673.5 c 128,-1,115
 368 673 368 673 359 673 c 1,116,-1
 342 677 l 2,117,118
 337 678 337 678 333.5 677.5 c 128,-1,119
 330 677 330 677 323 677 c 128,-1,120
 316 677 316 677 312 679 c 1,121,122
 301 671 301 671 292 671 c 128,-1,123
 283 671 283 671 272 673 c 1,124,125
 248 667 248 667 242.5 667 c 128,-1,126
 237 667 237 667 229 669 c 1,127,-1
 218 666 l 2,128,129
 214 665 214 665 211 665.5 c 128,-1,130
 208 666 208 666 205 666 c 2,131,-1
 202 666 l 1,132,133
 197 665 197 665 187 657.5 c 128,-1,134
 177 650 177 650 167.5 650 c 128,-1,135
 158 650 158 650 158 643 c 128,-1,136
 158 636 158 636 152 634 c 1,137,138
 157 622 157 622 157 613 c 1,139,-1
 155 600 l 1,140,-1
 157 595 l 1,141,-1
 155 589 l 2,142,143
 155 586 155 586 156.5 583 c 128,-1,144
 158 580 158 580 159.5 573.5 c 128,-1,145
 161 567 161 567 160.5 557.5 c 128,-1,146
 160 548 160 548 161 538.5 c 128,-1,147
 162 529 162 529 163.5 522 c 128,-1,148
 165 515 165 515 165 508.5 c 128,-1,149
 165 502 165 502 167 499.5 c 128,-1,150
 169 497 169 497 169 470.5 c 128,-1,151
 169 444 169 444 175.5 421 c 128,-1,152
 182 398 182 398 182 392 c 1,153,-1
 180 391 l 1,154,-1
 182 386 l 1,155,156
 182 382 182 382 178 376 c 1,157,158
 182 352 182 352 181 322.5 c 128,-1,159
 180 293 180 293 188 272 c 1,160,161
 187 268 187 268 187 262 c 256,162,163
 187 256 187 256 188 252 c 1,164,165
 208 249 208 249 233 249 c 128,-1,166
 258 249 258 249 287 253.5 c 128,-1,167
 316 258 316 258 346 258 c 1,168,169
 350 262 350 262 352.5 274.5 c 128,-1,170
 355 287 355 287 358.5 291.5 c 128,-1,171
 362 296 362 296 369.5 296 c 128,-1,172
 377 296 377 296 381 290.5 c 128,-1,173
 385 285 385 285 387 277 c 128,-1,174
 389 269 389 269 390 261.5 c 128,-1,175
 391 254 391 254 393 249 c 1,176,-1
 393 246 l 1,177,-1
 391 237 l 1,178,179
 391 225 391 225 396 215.5 c 128,-1,180
 401 206 401 206 401 193.5 c 128,-1,181
 401 181 401 181 390 175 c 128,-1,182
 379 169 379 169 370.5 169 c 128,-1,183
 362 169 362 169 359 170 c 1,184,185
 350 197 350 197 350 206 c 128,-1,186
 350 215 350 215 351 219 c 1,187,188
 341 223 341 223 323 223 c 128,-1,189
 305 223 305 223 297 215 c 1,190,-1
 276 218 l 1,191,192
 268 218 268 218 267.5 215.5 c 128,-1,193
 267 213 267 213 262 213 c 2,194,-1
 233 217 l 2,195,196
 230 217 230 217 227 212.5 c 128,-1,197
 224 208 224 208 218.5 208 c 128,-1,198
 213 208 213 208 207 203 c 128,-1,199
 201 198 201 198 194 198 c 1,200,201
 194 186 194 186 200 181 c 1,202,203
 199 178 199 178 199 172 c 2,204,-1
 205 123 l 1,205,206
 205 108 205 108 199 97 c 1,207,208
 201 92 201 92 201 82 c 128,-1,209
 201 72 201 72 202.5 65 c 128,-1,210
 204 58 204 58 206 52.5 c 128,-1,211
 208 47 208 47 208 39.5 c 128,-1,212
 208 32 208 32 197 32 c 1,213,214
 200 28 200 28 206 28 c 1,215,-1
 225 32 l 1,216,217
 236 25 236 25 242 8 c 1,218,219
 228 -9 228 -9 218 -9 c 1,220,-1
 202 -5 l 1,221,-1
 187 -7 l 2,222,223
 184 -7 184 -7 180 -5 c 1,224,225
 175 -7 175 -7 172.5 -11.5 c 128,-1,226
 170 -16 170 -16 163.5 -17 c 128,-1,227
 157 -18 157 -18 149 -18 c 128,-1,228
 141 -18 141 -18 133 -20 c 1,229,230
 121 -27 121 -27 116.5 -27 c 128,-1,231
 112 -27 112 -27 105 -23 c 1,232,-1
 104 -14 l 1,233,234
 104 -3 104 -3 110 -2 c 128,-1,235
 116 -1 116 -1 122 6 c 0,236,237
 125 8 125 8 129 7.5 c 128,-1,238
 133 7 133 7 137.5 8.5 c 128,-1,239
 142 10 142 10 145.5 13.5 c 128,-1,240
 149 17 149 17 155 18 c 1,241,242
 151 28 151 28 151.5 37.5 c 128,-1,243
 152 47 152 47 150 57 c 2,244,-1
 147 76 l 1,245,-1
 148 87 l 1,246,-1
 147 93 l 1,247,-1
 148 113 l 1,0,1
EndSplineSet
EndChar

